<svg version="1.1" id="Layer_1" xmlns="http://www.w3.org/2000/svg" xmlns:xlink="http://www.w3.org/1999/xlink" x="0px" y="0px"
	 width="100%" viewBox="0 0 6250 6250" enable-background="new 0 0 6250 6250" xml:space="preserve">
<path fill="#FFFFFF" opacity="1.000000" stroke="none" 
	d="
M3452.000000,6256.000000 
	C2301.333496,6256.000000 1152.667114,6256.000000 4.000463,6256.000000 
	C4.000308,4172.000488 4.000308,2088.001221 4.000154,4.001302 
	C2087.999023,4.000868 4171.998047,4.000868 6255.998047,4.000434 
	C6255.998535,2087.998779 6255.998535,4171.997559 6255.999023,6255.998047 
	C5322.000000,6256.000000 4388.000000,6256.000000 3452.000000,6256.000000 
M6112.713867,4282.000000 
	C6112.713867,3907.344971 6112.656738,3532.689697 6112.753418,3158.034668 
	C6112.778320,3060.669434 6109.411621,2963.492676 6100.921875,2866.449951 
	C6095.460449,2804.014404 6088.190430,2741.817871 6078.800781,2679.914062 
	C6065.714844,2593.638916 6048.730957,2508.076416 6027.987305,2423.269287 
	C5994.547363,2286.560791 5951.747070,2152.871338 5899.333984,2022.274170 
	C5811.580078,1803.620728 5699.219238,1598.348267 5562.659668,1406.411255 
	C5419.367676,1205.011597 5253.650391,1024.031738 5065.660645,863.488708 
	C4906.977051,727.972107 4736.045410,610.196228 4552.712402,510.584930 
	C4330.970215,390.104523 4097.665039,299.206299 3852.656982,238.367508 
	C3764.684814,216.522797 3675.995605,198.357681 3586.397461,184.857819 
	C3525.797852,175.727219 3465.037842,167.508759 3403.848389,163.172928 
	C3353.994629,159.640320 3304.176270,154.611084 3254.259033,153.212616 
	C3185.647949,151.290390 3116.938477,150.997437 3048.306885,152.138855 
	C2960.312012,153.602325 2872.528320,159.885147 2785.227295,171.313370 
	C2725.802246,179.092468 2666.314697,186.812988 2607.266602,196.956039 
	C2523.899902,211.276428 2441.499512,230.399841 2359.788818,252.383286 
	C2203.836182,294.340576 2052.305176,348.634735 1905.256226,415.384857 
	C1760.583374,481.056427 1622.080933,557.862793 1489.700195,645.756042 
	C1310.762817,764.560303 1146.450684,900.926147 996.766541,1054.955444 
	C888.308044,1166.562134 789.175842,1285.905273 699.260681,1412.915771 
	C606.278809,1544.258179 524.495605,1682.242554 453.825073,1826.814819 
	C397.590149,1941.855835 349.090149,2060.091797 308.241058,2181.431396 
	C267.398254,2302.752197 234.579834,2426.241455 209.844467,2551.857422 
	C197.874054,2612.647705 187.404953,2673.697998 179.792862,2735.192383 
	C174.965546,2774.190430 170.388916,2813.239502 166.822495,2852.368164 
	C162.770844,2896.819824 158.486359,2941.332764 156.895554,2985.911377 
	C151.327423,3141.945312 153.932114,3297.768799 171.391129,3453.151855 
	C178.386307,3515.407959 186.724670,3577.452637 197.345917,3639.162109 
	C212.828613,3729.116699 232.448456,3818.198486 256.346191,3906.313965 
	C294.058228,4045.364746 341.385864,4181.029785 398.736786,4313.232422 
	C490.636078,4525.074219 605.737854,4723.476074 743.693359,4908.548340 
	C863.179260,5068.842773 997.322693,5215.860352 1146.445068,5349.138672 
	C1256.964600,5447.916504 1373.965820,5538.250000 1497.682861,5619.910645 
	C1607.944946,5692.689941 1722.603760,5757.726074 1841.504150,5815.255859 
	C1953.140137,5869.270996 2067.764893,5916.109863 2185.362549,5955.465820 
	C2307.362793,5996.295898 2431.444336,6029.427734 2557.808838,6053.900391 
	C2619.946777,6065.934570 2682.292236,6076.649902 2745.105957,6084.392578 
	C2783.444580,6089.118652 2821.901123,6092.902832 2860.322998,6096.935059 
	C2919.348877,6103.130371 2978.558105,6106.677246 3037.877441,6108.057617 
	C3077.194580,6108.972656 3116.531738,6109.419922 3155.859863,6109.423828 
	C3977.166748,6109.499023 4798.473633,6109.482422 5619.780273,6109.463379 
	C5633.111816,6109.462891 5646.442871,6109.203125 5659.774414,6109.070801 
	C5691.921387,6108.751953 5723.421875,6103.828613 5754.652344,6096.413086 
	C5918.194824,6057.581543 6056.835449,5926.967773 6099.894531,5750.852051 
	C6109.604004,5711.138184 6112.880371,5670.827148 6112.859375,5629.956543 
	C6112.626465,5181.971191 6112.713867,4733.985352 6112.713867,4282.000000 
z"/>
<path fill="#00BF63" opacity="1.000000" stroke="none" 
	d="
M6112.713867,4284.000000 
	C6112.713867,4733.985352 6112.626465,5181.971191 6112.859375,5629.956543 
	C6112.880371,5670.827148 6109.604004,5711.138184 6099.894531,5750.852051 
	C6056.835449,5926.967773 5918.194824,6057.581543 5754.652344,6096.413086 
	C5723.421875,6103.828613 5691.921387,6108.751953 5659.774414,6109.070801 
	C5646.442871,6109.203125 5633.111816,6109.462891 5619.780273,6109.463379 
	C4798.473633,6109.482422 3977.166748,6109.499023 3155.859863,6109.423828 
	C3116.531738,6109.419922 3077.194580,6108.972656 3037.877441,6108.057617 
	C2978.558105,6106.677246 2919.348877,6103.130371 2860.322998,6096.935059 
	C2821.901123,6092.902832 2783.444580,6089.118652 2745.105957,6084.392578 
	C2682.292236,6076.649902 2619.946777,6065.934570 2557.808838,6053.900391 
	C2431.444336,6029.427734 2307.362793,5996.295898 2185.362549,5955.465820 
	C2067.764893,5916.109863 1953.140137,5869.270996 1841.504150,5815.255859 
	C1722.603760,5757.726074 1607.944946,5692.689941 1497.682861,5619.910645 
	C1373.965820,5538.250000 1256.964600,5447.916504 1146.445068,5349.138672 
	C997.322693,5215.860352 863.179260,5068.842773 743.693359,4908.548340 
	C605.737854,4723.476074 490.636078,4525.074219 398.736786,4313.232422 
	C341.385864,4181.029785 294.058228,4045.364746 256.346191,3906.313965 
	C232.448456,3818.198486 212.828613,3729.116699 197.345917,3639.162109 
	C186.724670,3577.452637 178.386307,3515.407959 171.391129,3453.151855 
	C153.932114,3297.768799 151.327423,3141.945312 156.895554,2985.911377 
	C158.486359,2941.332764 162.770844,2896.819824 166.822495,2852.368164 
	C170.388916,2813.239502 174.965546,2774.190430 179.792862,2735.192383 
	C187.404953,2673.697998 197.874054,2612.647705 209.844467,2551.857422 
	C234.579834,2426.241455 267.398254,2302.752197 308.241058,2181.431396 
	C349.090149,2060.091797 397.590149,1941.855835 453.825073,1826.814819 
	C524.495605,1682.242554 606.278809,1544.258179 699.260681,1412.915771 
	C789.175842,1285.905273 888.308044,1166.562134 996.766541,1054.955444 
	C1146.450684,900.926147 1310.762817,764.560303 1489.700195,645.756042 
	C1622.080933,557.862793 1760.583374,481.056427 1905.256226,415.384857 
	C2052.305176,348.634735 2203.836182,294.340576 2359.788818,252.383286 
	C2441.499512,230.399841 2523.899902,211.276428 2607.266602,196.956039 
	C2666.314697,186.812988 2725.802246,179.092468 2785.227295,171.313370 
	C2872.528320,159.885147 2960.312012,153.602325 3048.306885,152.138855 
	C3116.938477,150.997437 3185.647949,151.290390 3254.259033,153.212616 
	C3304.176270,154.611084 3353.994629,159.640320 3403.848389,163.172928 
	C3465.037842,167.508759 3525.797852,175.727219 3586.397461,184.857819 
	C3675.995605,198.357681 3764.684814,216.522797 3852.656982,238.367508 
	C4097.665039,299.206299 4330.970215,390.104523 4552.712402,510.584930 
	C4736.045410,610.196228 4906.977051,727.972107 5065.660645,863.488708 
	C5253.650391,1024.031738 5419.367676,1205.011597 5562.659668,1406.411255 
	C5699.219238,1598.348267 5811.580078,1803.620728 5899.333984,2022.274170 
	C5951.747070,2152.871338 5994.547363,2286.560791 6027.987305,2423.269287 
	C6048.730957,2508.076416 6065.714844,2593.638916 6078.800781,2679.914062 
	C6088.190430,2741.817871 6095.460449,2804.014404 6100.921875,2866.449951 
	C6109.411621,2963.492676 6112.778320,3060.669434 6112.753418,3158.034668 
	C6112.656738,3532.689697 6112.713867,3907.344971 6112.713867,4284.000000 
M1110.970337,3049.230225 
	C1100.615845,3081.144043 1094.916992,3113.810547 1094.935181,3147.425537 
	C1095.006348,3278.746094 1095.041504,3410.066406 1095.116333,3541.386963 
	C1095.121216,3550.051270 1095.325195,3558.716064 1095.467407,3567.380127 
	C1095.863403,3591.508057 1099.898193,3615.134033 1106.072632,3638.361572 
	C1146.761841,3791.430664 1281.294556,3895.071289 1439.900757,3895.595947 
	C1485.229248,3895.746094 1530.558716,3895.622559 1575.887695,3895.624512 
	C1582.465454,3895.624756 1589.043335,3895.624756 1595.808838,3895.624756 
	C1598.848999,3901.229736 1601.472290,3905.785156 1603.833740,3910.472412 
	C1611.026367,3924.749023 1617.839600,3939.223145 1625.291382,3953.361572 
	C1710.547729,4115.124512 1824.016846,4254.363281 1962.162109,4373.684082 
	C2112.486572,4503.523926 2281.630371,4601.759277 2467.111572,4672.162598 
	C2594.609131,4720.558105 2725.930176,4754.017578 2861.014404,4773.124023 
	C2927.741455,4782.562012 2994.722900,4788.804199 3061.980713,4791.185547 
	C3155.991699,4794.515137 3249.842285,4791.617676 3343.439453,4780.894043 
	C3416.310303,4772.544922 3488.523193,4760.848633 3560.010498,4744.417480 
	C3741.840332,4702.626465 3913.452881,4635.238770 4073.744385,4539.553223 
	C4240.244141,4440.161621 4385.241699,4315.948242 4505.928711,4163.821289 
	C4568.695312,4084.703369 4622.398926,3999.848145 4667.081055,3909.272949 
	C4670.227539,3902.895020 4671.935059,3895.444580 4678.706055,3890.819336 
	C4697.074707,3896.289551 4715.738770,3895.678467 4734.379395,3895.648438 
	C4781.041504,3895.573486 4827.709473,3896.030762 4874.363770,3895.424805 
	C4893.634766,3895.174316 4913.220215,3894.569824 4932.078613,3891.022705 
	C5060.533691,3866.861572 5150.586426,3794.677979 5199.965820,3673.212402 
	C5215.406250,3635.231689 5221.702148,3595.227295 5222.432617,3553.893799 
	C5218.086914,3551.571533 5214.199219,3549.493896 5209.703125,3547.091064 
	C5209.703125,3539.456787 5209.703125,3532.172607 5209.702637,3524.888428 
	C5209.701172,3404.899902 5209.736816,3284.911133 5209.670898,3164.922607 
	C5209.655762,3136.905762 5208.504395,3108.947998 5203.089844,3081.347168 
	C5171.764648,2921.669922 5031.872070,2805.323975 4869.312012,2804.050293 
	C4817.986328,2803.647949 4766.654785,2803.833496 4715.328125,2804.117920 
	C4706.088379,2804.169189 4696.867676,2806.119385 4687.620605,2807.001709 
	C4679.830078,2807.744873 4672.083984,2810.827148 4663.384277,2807.817139 
	C4660.428223,2802.163574 4657.250488,2796.355225 4654.314453,2790.426758 
	C4633.603516,2748.607910 4611.218262,2707.720459 4586.438965,2668.162354 
	C4488.314941,2511.516357 4363.614258,2379.429932 4216.144531,2268.577637 
	C4079.326660,2165.731934 3929.597168,2086.668457 3768.859863,2028.329224 
	C3666.602783,1991.215332 3561.757324,1963.525391 3454.629395,1944.653809 
	C3400.161865,1935.058838 3345.392822,1927.547119 3290.222412,1923.170776 
	C3276.412842,1922.075317 3262.651855,1920.365479 3250.020264,1919.057129 
	C3248.599365,1917.371094 3247.985352,1916.937866 3247.803955,1916.367065 
	C3247.402588,1915.106079 3246.981201,1913.775757 3246.979980,1912.473633 
	C3246.895264,1801.818237 3246.842285,1691.162720 3246.823975,1580.507324 
	C3246.823242,1575.186401 3247.133301,1569.864746 3247.356934,1564.545776 
	C3247.383789,1563.910034 3247.728271,1563.264038 3248.020752,1562.669922 
	C3248.303711,1562.094849 3248.709473,1561.580322 3249.061279,1561.039185 
	C3408.125488,1464.700317 3485.325195,1276.822144 3428.196777,1096.063477 
	C3380.044678,943.706543 3238.233643,822.143799 3052.641846,821.793823 
	C2865.068604,821.440125 2722.009766,945.087402 2674.332764,1098.042725 
	C2625.576904,1254.458496 2674.322754,1452.266724 2857.145020,1562.906128 
	C2857.145020,1569.261963 2857.145264,1576.526367 2857.145264,1583.790771 
	C2857.145264,1680.448242 2857.145264,1777.105835 2857.144531,1873.763306 
	C2857.144531,1891.094971 2857.289551,1908.428833 2857.033447,1925.756714 
	C2856.968994,1930.131592 2855.616699,1934.487427 2854.962402,1938.242798 
	C2829.273682,1942.747070 2805.015869,1946.979004 2780.765869,1951.256470 
	C2666.953369,1971.331177 2556.302002,2002.761475 2448.638916,2044.611206 
	C2247.746826,2122.700195 2066.387207,2232.492676 1908.396240,2379.706787 
	C1778.366089,2500.867188 1672.134766,2639.898682 1594.904053,2800.472168 
	C1593.479492,2803.434082 1591.624512,2806.188965 1589.334717,2810.136719 
	C1582.967407,2810.247559 1576.388672,2810.456055 1569.809692,2810.460938 
	C1526.480469,2810.493408 1483.151123,2810.548828 1439.822021,2810.468018 
	C1388.389404,2810.372314 1339.149780,2820.614258 1292.792725,2842.919922 
	C1204.342773,2885.478760 1143.802734,2953.170898 1110.970337,3049.230225 
z"/>
<path fill="#FFFFFF" opacity="1.000000" stroke="none" 
	d="
M1111.407104,3047.698242 
	C1143.802734,2953.170898 1204.342773,2885.478760 1292.792725,2842.919922 
	C1339.149780,2820.614258 1388.389404,2810.372314 1439.822021,2810.468018 
	C1483.151123,2810.548828 1526.480469,2810.493408 1569.809692,2810.460938 
	C1576.388672,2810.456055 1582.967407,2810.247559 1589.334717,2810.136719 
	C1591.624512,2806.188965 1593.479492,2803.434082 1594.904053,2800.472168 
	C1672.134766,2639.898682 1778.366089,2500.867188 1908.396240,2379.706787 
	C2066.387207,2232.492676 2247.746826,2122.700195 2448.638916,2044.611206 
	C2556.302002,2002.761475 2666.953369,1971.331177 2780.765869,1951.256470 
	C2805.015869,1946.979004 2829.273682,1942.747070 2854.962402,1938.242798 
	C2855.616699,1934.487427 2856.968994,1930.131592 2857.033447,1925.756714 
	C2857.289551,1908.428833 2857.144531,1891.094971 2857.144531,1873.763306 
	C2857.145264,1777.105835 2857.145264,1680.448242 2857.145264,1583.790771 
	C2857.145264,1576.526367 2857.145020,1569.261963 2857.145020,1562.906128 
	C2674.322754,1452.266724 2625.576904,1254.458496 2674.332764,1098.042725 
	C2722.009766,945.087402 2865.068604,821.440125 3052.641846,821.793823 
	C3238.233643,822.143799 3380.044678,943.706543 3428.196777,1096.063477 
	C3485.325195,1276.822144 3408.125488,1464.700317 3249.061279,1561.039307 
	C3248.709473,1561.580322 3248.303711,1562.094849 3248.020752,1562.669922 
	C3247.728271,1563.264038 3247.383789,1563.910034 3247.356934,1564.545776 
	C3247.133301,1569.864746 3246.823242,1575.186401 3246.823975,1580.507324 
	C3246.842285,1691.162720 3246.895264,1801.818237 3246.979980,1912.473633 
	C3246.981201,1913.775757 3247.402588,1915.106079 3247.803955,1916.367065 
	C3247.985352,1916.937866 3248.599365,1917.371094 3250.020264,1919.057129 
	C3262.651855,1920.365479 3276.412842,1922.075317 3290.222412,1923.170776 
	C3345.392822,1927.547119 3400.161865,1935.058838 3454.629395,1944.653809 
	C3561.757324,1963.525391 3666.602783,1991.215332 3768.859863,2028.329224 
	C3929.597168,2086.668457 4079.326660,2165.731934 4216.144531,2268.577637 
	C4363.614258,2379.429932 4488.314941,2511.516357 4586.438965,2668.162354 
	C4611.218262,2707.720459 4633.603516,2748.607910 4654.314453,2790.426758 
	C4657.250488,2796.355225 4660.428223,2802.163574 4663.384277,2807.817139 
	C4672.083984,2810.827148 4679.830078,2807.744873 4687.620605,2807.001709 
	C4696.867676,2806.119385 4706.088379,2804.169189 4715.328125,2804.117920 
	C4766.654785,2803.833496 4817.986328,2803.647949 4869.312012,2804.050293 
	C5031.872070,2805.323975 5171.764648,2921.669922 5203.089844,3081.347168 
	C5208.504395,3108.947998 5209.655762,3136.905762 5209.670898,3164.922607 
	C5209.736816,3284.911133 5209.701172,3404.899902 5209.702637,3524.888428 
	C5209.703125,3532.172607 5209.703125,3539.456787 5209.703125,3547.091064 
	C5214.199219,3549.493896 5218.086914,3551.571533 5222.432617,3553.893799 
	C5221.702148,3595.227295 5215.406250,3635.231689 5199.965820,3673.212402 
	C5150.586426,3794.677979 5060.533691,3866.861572 4932.078613,3891.022705 
	C4913.220215,3894.569824 4893.634766,3895.174316 4874.363770,3895.424805 
	C4827.709473,3896.030762 4781.041504,3895.573486 4734.379395,3895.648438 
	C4715.738770,3895.678467 4697.074707,3896.289551 4678.706055,3890.819336 
	C4671.935059,3895.444580 4670.227539,3902.895020 4667.081055,3909.272949 
	C4622.398926,3999.848145 4568.695312,4084.703369 4505.928711,4163.821289 
	C4385.241699,4315.948242 4240.244141,4440.161621 4073.744385,4539.553223 
	C3913.452881,4635.238770 3741.840332,4702.626465 3560.010498,4744.417480 
	C3488.523193,4760.848633 3416.310303,4772.544922 3343.439453,4780.894043 
	C3249.842285,4791.617676 3155.991699,4794.515137 3061.980713,4791.185547 
	C2994.722900,4788.804199 2927.741455,4782.562012 2861.014404,4773.124023 
	C2725.930176,4754.017578 2594.609131,4720.558105 2467.111572,4672.162598 
	C2281.630371,4601.759277 2112.486572,4503.523926 1962.162109,4373.684082 
	C1824.016846,4254.363281 1710.547729,4115.124512 1625.291382,3953.361572 
	C1617.839600,3939.223145 1611.026367,3924.749023 1603.833740,3910.472412 
	C1601.472290,3905.785156 1598.848999,3901.229736 1595.808838,3895.624756 
	C1589.043335,3895.624756 1582.465454,3895.624756 1575.887695,3895.624512 
	C1530.558716,3895.622559 1485.229248,3895.746094 1439.900757,3895.595947 
	C1281.294556,3895.071289 1146.761841,3791.430664 1106.072632,3638.361572 
	C1099.898193,3615.134033 1095.863403,3591.508057 1095.467407,3567.380127 
	C1095.325195,3558.716064 1095.121216,3550.051270 1095.116333,3541.386963 
	C1095.041504,3410.066406 1095.006348,3278.746094 1094.935181,3147.425537 
	C1094.916992,3113.810547 1100.615845,3081.144043 1111.407104,3047.698242 
M2185.979004,3024.314453 
	C2168.274658,3058.094482 2160.614502,3094.193848 2160.883545,3132.172607 
	C2161.025146,3152.166748 2160.904053,3172.162842 2160.904297,3192.157959 
	C2160.906494,3320.127441 2160.918701,3448.096924 2160.902588,3576.066406 
	C2160.899658,3598.855225 2163.768799,3621.216797 2170.318115,3643.084229 
	C2198.808838,3738.210693 2289.193848,3802.447021 2380.655273,3801.177490 
	C2427.301514,3800.530029 2473.964600,3801.115234 2520.620117,3801.090088 
	C2562.609619,3801.067383 2604.601562,3801.239746 2646.587646,3800.830566 
	C2685.506592,3800.451172 2721.714355,3789.590332 2754.255615,3768.508057 
	C2821.348633,3725.041260 2856.526611,3662.852295 2856.913574,3582.853271 
	C2857.654785,3429.559814 2857.166260,3276.260742 2857.039551,3122.963867 
	C2857.030762,3112.326660 2856.739258,3101.532227 2854.984619,3091.078369 
	C2836.714844,2982.222900 2742.962891,2904.971191 2639.190430,2904.405518 
	C2552.546875,2903.933350 2465.898926,2904.254150 2379.252930,2904.349365 
	C2357.107666,2904.373779 2335.476807,2908.068604 2314.497803,2915.171143 
	C2258.328369,2934.187012 2216.206055,2970.014893 2185.979004,3024.314453 
M3948.277344,3070.296875 
	C3946.319336,3063.937256 3944.636230,3057.477539 3942.361572,3051.233398 
	C3911.383789,2966.189697 3829.232422,2904.078857 3733.646973,2904.257080 
	C3648.990234,2904.414795 3564.331787,2904.030762 3479.677734,2904.530029 
	C3463.800781,2904.623779 3447.584717,2906.196777 3432.132324,2909.737305 
	C3324.187012,2934.471924 3258.467041,3031.990723 3259.053467,3124.627441 
	C3260.019775,3277.270264 3259.295410,3429.923828 3259.385498,3582.572754 
	C3259.390869,3591.888184 3259.540283,3601.312500 3260.883545,3610.501709 
	C3277.883789,3726.798828 3379.522705,3801.975342 3477.016846,3801.194824 
	C3563.667725,3800.501221 3650.329102,3801.123779 3736.985107,3800.968262 
	C3747.621582,3800.949219 3758.412354,3800.642578 3768.867188,3798.891846 
	C3875.927002,3780.967529 3954.985352,3689.100342 3955.367676,3580.880615 
	C3955.904541,3428.900146 3955.496094,3276.916260 3955.505859,3124.933838 
	C3955.506836,3107.515381 3953.295654,3090.389404 3948.277344,3070.296875 
z"/>
<path fill="#01BF63" opacity="1.000000" stroke="none" 
	d="
M2186.710693,3023.026123 
	C2216.206055,2970.014893 2258.328369,2934.187012 2314.497803,2915.171143 
	C2335.476807,2908.068604 2357.107666,2904.373779 2379.252930,2904.349365 
	C2465.898926,2904.254150 2552.546875,2903.933350 2639.190430,2904.405518 
	C2742.962891,2904.971191 2836.714844,2982.222900 2854.984619,3091.078369 
	C2856.739258,3101.532227 2857.030762,3112.326660 2857.039551,3122.963867 
	C2857.166260,3276.260742 2857.654785,3429.559814 2856.913574,3582.853271 
	C2856.526611,3662.852295 2821.348633,3725.041260 2754.255615,3768.508057 
	C2721.714355,3789.590332 2685.506592,3800.451172 2646.587646,3800.830566 
	C2604.601562,3801.239746 2562.609619,3801.067383 2520.620117,3801.090088 
	C2473.964600,3801.115234 2427.301514,3800.530029 2380.655273,3801.177490 
	C2289.193848,3802.447021 2198.808838,3738.210693 2170.318115,3643.084229 
	C2163.768799,3621.216797 2160.899658,3598.855225 2160.902588,3576.066406 
	C2160.918701,3448.096924 2160.906494,3320.127441 2160.904297,3192.157959 
	C2160.904053,3172.162842 2161.025146,3152.166748 2160.883545,3132.172607 
	C2160.614502,3094.193848 2168.274658,3058.094482 2186.710693,3023.026123 
z"/>
<path fill="#01BF63" opacity="1.000000" stroke="none" 
	d="
M3948.620361,3071.912598 
	C3953.295654,3090.389404 3955.506836,3107.515381 3955.505859,3124.933838 
	C3955.496094,3276.916260 3955.904541,3428.900146 3955.367676,3580.880615 
	C3954.985352,3689.100342 3875.927002,3780.967529 3768.867188,3798.891846 
	C3758.412354,3800.642578 3747.621582,3800.949219 3736.985107,3800.968262 
	C3650.329102,3801.123779 3563.667725,3800.501221 3477.016846,3801.194824 
	C3379.522705,3801.975342 3277.883789,3726.798828 3260.883545,3610.501709 
	C3259.540283,3601.312500 3259.390869,3591.888184 3259.385498,3582.572754 
	C3259.295410,3429.923828 3260.019775,3277.270264 3259.053467,3124.627441 
	C3258.467041,3031.990723 3324.187012,2934.471924 3432.132324,2909.737305 
	C3447.584717,2906.196777 3463.800781,2904.623779 3479.677734,2904.530029 
	C3564.331787,2904.030762 3648.990234,2904.414795 3733.646973,2904.257080 
	C3829.232422,2904.078857 3911.383789,2966.189697 3942.361572,3051.233398 
	C3944.636230,3057.477539 3946.319336,3063.937256 3948.620361,3071.912598 
z"/>
</svg>