<svg xmlns="http://www.w3.org/2000/svg" viewBox="0 0 500 500"><g id="freepik--background-complete--inject-1"><path d="M51.43 429.36h175.73l3.66-72.11H47.77z" style="fill:#ebebeb"/><path d="M218.83 390.26h-73.47l-1.37-25h76.45Zm-72.63-.89H218l1.5-23.26h-74.58Zm71.28 29.69h-69.24l-1.12-22.6h71.77Zm-68.39-.89h67.56l1.3-20.82h-69.9Z" style="fill:#dbdbdb"/><path d="M189.17 380.45h-12.34l-.78-6H190Zm-11.56-.88h10.78l.55-4.27h-11.88Zm11.56 31.21h-12.34l-.78-6H190Zm-11.56-.89h10.78l.55-4.26h-11.88Zm-45.19-19.63H59l-1.38-25H134Zm-72.63-.89h71.79l1.5-23.26H58.5Zm71.27 29.69H61.82l-1.12-22.6h71.77Zm-68.39-.89h67.56l1.3-20.82h-69.9Z" style="fill:#dbdbdb"/><path d="M102.75 380.45H90.41l-.78-6h13.9Zm-11.56-.88H102l.55-4.27H90.64Zm11.56 31.21H90.41l-.78-6h13.9Zm-11.56-.89H102l.55-4.26H90.64Z" style="fill:#dbdbdb"/><path d="m67.19 429.36-1.11 7.85L63.87 453h-4.34v-23.64z" style="fill:#ebebeb"/><path d="m67.19 429.36-1.11 7.85h-6.55v-7.85z" style="fill:#dbdbdb"/><path d="m211.4 429.36 1.11 7.85 2.22 15.79h4.34v-23.64z" style="fill:#ebebeb"/><path d="m211.4 429.36 1.11 7.85h6.56v-7.85z" style="fill:#dbdbdb"/><path d="M89.22 89a15.58 15.58 0 1 1-18.78-11.54A15.58 15.58 0 0 1 89.22 89" style="fill:#ebebeb"/><path d="M69 91.51a4.9 4.9 0 1 0 3.6-5.91 4.9 4.9 0 0 0-3.6 5.91" style="fill:#fff"/><path d="m68.66 105.49.47 2a15.7 15.7 0 0 0 5 .8 16 16 0 0 0 11.5-4.76l-.47-2a8.47 8.47 0 0 0-16.47 3.95Z" style="fill:#fff"/><path d="M93.95 72.3h48.42v.89H93.95z" style="fill:#ebebeb" transform="rotate(-13.49 118.199 72.75)"/><path d="M95.36 78.19h48.42v.89H95.36z" style="fill:#ebebeb" transform="rotate(-13.49 119.6 78.661)"/><path d="M96.77 84.08h48.42v.89H96.77z" style="fill:#ebebeb" transform="rotate(-13.49 121.049 84.534)"/><path d="M98.52 92.82h24v.89h-24z" style="fill:#ebebeb" transform="rotate(-13.49 110.583 93.284)"/><path d="M158.45 98.3 56.06 122.88 43.24 69.43l102.38-24.57ZM57.12 121.15l99.6-23.9-12.16-50.67L45 70.49Z" style="fill:#ebebeb"/><path d="M43.65 57.72h103.86v8.47H43.65z" style="fill:#ebebeb" transform="rotate(-13.49 95.638 61.98)"/><path d="M55.27 251.79a2.94 2.94 0 0 1 3.09 0c.26.16.53.31.8.45s.54.29.82.42a3 3 0 0 1 1.72 2.55l.12 3.8 12.38-.38-.11-3.8a2.92 2.92 0 0 1 1.55-2.67c.54-.3 1.06-.62 1.57-1a2.93 2.93 0 0 1 3.08-.2l3.34 1.79 5.86-10.92-3.34-1.8a3 3 0 0 1-1.54-2.67c0-.61 0-1.23-.06-1.84a2.94 2.94 0 0 1 1.36-2.78l3.23-2-6.53-10.53-3.25 2a2.93 2.93 0 0 1-3.07 0c-.26-.16-.53-.31-.8-.45s-.54-.29-.81-.41a3 3 0 0 1-1.68-2.53l-.11-3.8-12.39.38.12 3.79a2.94 2.94 0 0 1-1.62 2.68 17 17 0 0 0-1.58 1 2.93 2.93 0 0 1-3.08.2L51 221.25l-5.86 10.92 3.37 1.83a2.94 2.94 0 0 1 1.49 2.64c0 .62 0 1.24.06 1.85a2.93 2.93 0 0 1-1.37 2.77l-3.22 2L52 253.79Zm3.1-19.56A10.15 10.15 0 1 1 62.53 246a10.16 10.16 0 0 1-4.16-13.77M437 124.44a2.07 2.07 0 0 1 1.92-1h1.28a2.06 2.06 0 0 1 1.91 1l1.33 2.31 7.56-4.35-1.33-2.3a2.07 2.07 0 0 1 .08-2.17c.23-.36.45-.73.65-1.12a2.06 2.06 0 0 1 1.83-1.14h2.66V107h-2.66a2.06 2.06 0 0 1-1.83-1.14c-.2-.39-.42-.76-.65-1.12a2.07 2.07 0 0 1-.08-2.17l1.33-2.3-7.52-4.34-1.34 2.32a2.06 2.06 0 0 1-1.9 1h-1.28a2.07 2.07 0 0 1-1.92-1l-1.33-2.31-7.52 4.34 1.33 2.3a2.05 2.05 0 0 1-.07 2.16 11 11 0 0 0-.65 1.13 2.07 2.07 0 0 1-1.84 1.14h-2.65v8.68h2.65a2.07 2.07 0 0 1 1.84 1.14 11 11 0 0 0 .65 1.13 2.05 2.05 0 0 1 .07 2.16l-1.33 2.3 7.52 4.34Zm-4.56-13.11a7.11 7.11 0 1 1 7.12 7.11 7.12 7.12 0 0 1-7.13-7.11ZM82.36 282.66a2.05 2.05 0 0 1 1 1.91v1.29a2.06 2.06 0 0 1-1 1.91l-2.31 1.33 4.34 7.52 2.31-1.33a2.05 2.05 0 0 1 2.16.07A13 13 0 0 0 90 296a2.05 2.05 0 0 1 1.14 1.83v2.66h8.69v-2.66A2.05 2.05 0 0 1 101 296a13 13 0 0 0 1.12-.65 2.05 2.05 0 0 1 2.16-.07l2.31 1.33 4.34-7.52-2.32-1.34a2.07 2.07 0 0 1-1-1.91v-1.28a2.06 2.06 0 0 1 1-1.91l2.31-1.33-4.34-7.52-2.3 1.33a2.07 2.07 0 0 1-2.17-.08c-.36-.23-.73-.45-1.12-.65a2 2 0 0 1-1.14-1.83v-2.66h-8.73v2.66a2 2 0 0 1-1.12 1.84c-.39.2-.76.42-1.12.65a2.07 2.07 0 0 1-2.17.08l-2.3-1.33-4.34 7.52Zm13.1-4.56a7.11 7.11 0 1 1-7.11 7.11 7.11 7.11 0 0 1 7.11-7.11M408.28 99.66l-16.9-8 .08-.32a80 80 0 0 0 1.69-8.91c.09-1.41-.63-3.11-1.53-5.26-2.06-4.9-5.17-12.31-1.22-23.93 2.27-6.71 8.38-13 15.55-16a26.58 26.58 0 0 1 35.34 16.77c2.18 7.47 1.16 16.19-2.6 22.21-6.52 10.4-14.23 12.67-19.33 14.17-2.24.66-4 1.18-5.05 2.14a80 80 0 0 0-5.83 6.94Zm-16-8.47L408 98.66a77 77 0 0 1 5.73-6.79c1.19-1.08 3-1.63 5.36-2.31 5.33-1.56 12.57-3.69 18.91-13.83 3.64-5.84 4.63-14.3 2.5-21.57a25.77 25.77 0 0 0-34.24-16.26c-7 3-12.9 9.06-15.11 15.57-3.85 11.33-.93 18.28 1.2 23.36.95 2.25 1.69 4 1.59 5.62a70 70 0 0 1-1.64 8.74Z" style="fill:#ebebeb"/><path d="M385.35 78.8h29.24v1.18h-29.24z" style="fill:#ebebeb" transform="rotate(-75.16 399.97 79.397)"/><path d="M398.22 84.92h29.24v1.18h-29.24z" style="fill:#ebebeb" transform="rotate(-54.02 412.854 85.503)"/><path d="M408.45 78.16c-1.54-.73-2.21-2.72-2.33-4.88a2.17 2.17 0 0 1-1.74.07c-2.49-1.18-1.07-6.74-1-7l.57.15c-.39 1.47-1 5.48.69 6.29a1.84 1.84 0 0 0 1.46-.17 12.75 12.75 0 0 1 1-5.17c.69-1.45 1.64-2 2.6-1.56a1.68 1.68 0 0 1 1 1.46c.14 1.7-1.68 4.07-3.45 5.29-.19.13-.38.25-.56.35.09 2.08.7 4 2 4.61 1.2.57 2.77 0 4.22-1.12a7.5 7.5 0 0 1 .59-5.09c.88-1.85 2.13-2.66 3.26-2.13.93.44 1 1.6.28 3.18a13.6 13.6 0 0 1-3.45 4.24 2.5 2.5 0 0 0 1.27 1.38c1.46.69 4.44-2.23 5.47-3.41l.44.39c-.4.47-4 4.56-6.16 3.55a3.08 3.08 0 0 1-1.48-1.54c-1.55 1.16-3.26 1.79-4.68 1.11m8.07-8.33c-1-.46-1.94.71-2.48 1.84a7.5 7.5 0 0 0-.63 4.45 12.5 12.5 0 0 0 3.1-3.91c.28-.58.84-2 0-2.38Zm-7.1-3.37c-.81-.39-1.44.48-1.81 1.28a11.5 11.5 0 0 0-.94 4.6l.24-.16c1.6-1.11 3.31-3.33 3.19-4.75a1.1 1.1 0 0 0-.68-1Zm-.7 37.37-20.85-9.9 2.21-4.65 20.85 9.9Zm-19.79-10.28 19.42 9.23 1.53-3.22-19.42-9.23Z" style="fill:#ebebeb"/><path d="M406.55 108.41 385.7 98.5l2.21-4.65 20.85 9.9Zm-19.8-10.28 19.43 9.22 1.53-3.22-19.43-9.22Z" style="fill:#ebebeb"/><path d="m404.38 113-20.85-9.91 2.21-4.65 20.85 9.91Zm-19.8-10.28 19.42 9.2 1.52-3.22-19.42-9.22Z" style="fill:#ebebeb"/></g><path id="freepik--Floor--inject-1" d="M47.77 453c129.56-.62 274.9-.62 404.46 0-129.56.61-274.9.61-404.46 0" style="fill:#263238"/><g id="freepik--Device--inject-1"><rect width="402.34" height="269.18" x="46.74" y="117.24" rx="12.89" style="fill:#37474f" transform="rotate(90 247.91 251.83)"/><path d="M124.99 78.82h246.15v346.26H124.99z" style="fill:#fff"/><rect width="4.18" height="58.58" x="245.81" y="37.71" rx="1.25" style="fill:#263238" transform="rotate(90 247.905 67.005)"/><circle cx="247.91" cy="438.68" r="7.58" style="fill:#263238"/><path d="M124.99 78.82h246.15v346.26H124.99z" style="fill:#fff"/><path d="M124.99 78.82h246.15v346.26H124.99z" style="fill:#fff"/><path d="M371.14 425.08c-.08 0-246.18.08-246.26.11s-.11-346.34-.14-346.37v-.25h.26c.1-.06 246.19.15 246.29.11s-.21 346.32-.14 346.4Zm0 0L371 78.82c.88.35-246.2.16-246 .25l.25-.25-.15 346.26c-.65-.21 246.19 0 246.05 0Z" style="fill:#263238"/><path d="M124.99 417.42h246.15v7.66H124.99z" style="fill:#23c423"/><path d="M246.39 78.82h124.75v346.26H246.39z" style="fill:#23c423;opacity:.1"/><path d="M142.49 101.75h211.14v24.79H142.49z" style="fill:#23c423"/><path d="M142.49 237.39h41.18v2.79h-41.18zm0 131.32h41.18v2.79h-41.18zm0-51.79h41.18v2.79h-41.18z" style="fill:#455a64"/><path d="M154.78 249.55h82.92v3.85h-82.92z" style="fill:#ebebeb"/><path d="M154.78 249.55h59.95v3.85h-59.95z" style="fill:#23c423"/><path d="M154.78 259.5h82.92v3.85h-82.92z" style="fill:#ebebeb"/><path d="M154.78 259.5h76.04v3.85h-76.04z" style="fill:#23c423"/><path d="M154.78 269.46h82.92v3.85h-82.92z" style="fill:#ebebeb"/><path d="M154.78 269.46h64.62v3.85h-64.62z" style="fill:#23c423"/><path d="M154.78 279.42h82.92v3.85h-82.92z" style="fill:#ebebeb"/><path d="M154.78 279.42h71.26v3.85h-71.26z" style="fill:#23c423"/><path d="M154.78 289.38h82.92v3.85h-82.92z" style="fill:#ebebeb"/><path d="M154.78 289.38h77.98v3.85h-77.98zm-12.29-41.02h6.22v6.22h-6.22z" style="fill:#23c423"/><path d="M142.49 258.32h6.22v6.22h-6.22z" style="fill:#455a64"/><path d="M142.49 268.28h6.22v6.22h-6.22z" style="fill:#c7c7c7"/><path d="M142.49 278.24h6.22v6.22h-6.22z" style="fill:#23c423"/><path d="M142.49 288.2h6.22v6.22h-6.22z" style="fill:#263238"/><path d="M260.08 237.39h52.84v2.79h-52.84z" style="fill:#455a64"/><path d="M260.08 248.21h20.08V251h-20.08zm0 23.71h20.08v2.79h-20.08zm0 23.72h20.08v2.79h-20.08zm0 23.71h20.08v2.79h-20.08zm0 24.83h20.08v2.79h-20.08z" style="fill:#c7c7c7"/><path d="M300.64 249.6c17.05-.49 35.81-.5 52.86 0-17.05.5-35.81.49-52.86 0m0 3.81c17.05-.5 35.81-.5 52.86 0-17.05.49-35.81.49-52.86 0m0 3.8c17.05-.49 35.81-.5 52.86 0-17.05.5-35.81.49-52.86 0m0 3.79a162 162 0 0 1 22.36 0 163 163 0 0 1-22.33 0Zm0 12.38c17.05-.49 35.81-.49 52.86 0-17.05.5-35.81.49-52.86 0m0 3.81c17.05-.49 35.81-.5 52.86 0-17.05.49-35.81.49-52.86 0m0 3.81c17.05-.49 35.81-.49 52.86 0-17.05.5-35.81.5-52.86 0m0 3.8a162 162 0 0 1 22.33 0 163 163 0 0 1-22.33 0m0 12.36c17.05-.49 35.81-.49 52.86 0-17.05.5-35.81.5-52.86 0m0 3.84c17.05-.49 35.81-.5 52.86 0-17.05.5-35.81.49-52.86 0m0 3.78c17.05-.5 35.81-.5 52.86 0-17.05.49-35.81.49-52.86 0m0 3.8a163 163 0 0 1 22.33 0 162 162 0 0 1-22.33 0m0 36.15c17.05-.49 35.81-.5 52.86 0-17.05.49-35.81.49-52.86 0m0 3.8c17.05-.49 35.81-.49 52.86 0-17.05.5-35.81.5-52.86 0m0 3.81c17.05-.49 35.81-.5 52.86 0-17.05.5-35.81.49-52.86 0m0 3.81a162 162 0 0 1 22.33 0 163 163 0 0 1-22.33 0m0-35.15c17.05-.5 35.81-.5 52.86 0-17.05.49-35.81.49-52.86 0m0 3.75c17.05-.49 35.81-.49 52.86 0-17.05.5-35.81.49-52.86 0m0 3.81c17.05-.49 35.81-.5 52.86 0-17.05.49-35.81.49-52.86 0m0 3.8a163 163 0 0 1 22.33 0 162 162 0 0 1-22.33 0" style="fill:#a6a6a6"/><path d="m290.06 248.65.15 17.87.09 17.88.08 35.75-.07 2.2-.1 17.87-.15 17.88-.16-17.88-.09-17.87-.08-2.2.08-35.75.09-17.88z" style="fill:#23c423"/><path d="M291.29 249.6a1.24 1.24 0 1 1-1.24-1.24 1.24 1.24 0 0 1 1.24 1.24m0 23.78a1.24 1.24 0 1 1-1.24-1.24 1.23 1.23 0 0 1 1.24 1.24m0 23.78a1.24 1.24 0 1 1-1.24-1.23 1.23 1.23 0 0 1 1.24 1.23m0 23.84a1.24 1.24 0 1 1-1.24-1.24 1.23 1.23 0 0 1 1.24 1.24m0 23.73a1.24 1.24 0 1 1-1.24-1.24 1.24 1.24 0 0 1 1.24 1.24" style="fill:#23c423"/><path d="M160.83 338.4a9.17 9.17 0 1 1-1.21-4.55 9.16 9.16 0 0 1 1.21 4.55" style="fill:#455a64"/><path d="m159.62 333.85-8 4.55v-9.17a9.16 9.16 0 0 1 8 4.62" style="fill:#23c423"/><path d="M158 338.4a6.34 6.34 0 1 1-6.34-6.34 6.34 6.34 0 0 1 6.34 6.34" style="fill:#fff"/><path d="M149.02 336.99h5.28v.75h-5.28z" style="fill:#263238"/><path d="M147.72 339.07h7.9v.75h-7.9z" style="fill:#a6a6a6"/><path d="M186.49 338.4a8.6 8.6 0 0 1-.1 1.35 9.16 9.16 0 1 1 .1-1.35" style="fill:#455a64"/><path d="M186.49 338.4a8.6 8.6 0 0 1-.1 1.35l-9.07-1.35v-9.17a9.17 9.17 0 0 1 9.17 9.17" style="fill:#23c423"/><path d="M183.66 338.4a6.34 6.34 0 1 1-6.34-6.34 6.34 6.34 0 0 1 6.34 6.34" style="fill:#fff"/><path d="M174.68 336.99h5.28v.75h-5.28z" style="fill:#263238"/><path d="M173.37 339.07h7.89v.75h-7.89z" style="fill:#a6a6a6"/><path d="M212.33 338.4a9.16 9.16 0 0 1-5.89 8.56 9 9 0 0 1-3.28.61 9.17 9.17 0 1 1 8-13.72 9 9 0 0 1 1.17 4.55" style="fill:#455a64"/><path d="M212.33 338.4a9.16 9.16 0 0 1-5.89 8.56l-3.28-8.56v-9.17a9.16 9.16 0 0 1 8 4.62 9 9 0 0 1 1.17 4.55" style="fill:#23c423"/><path d="M209.5 338.4a6.35 6.35 0 1 1-6.34-6.34 6.34 6.34 0 0 1 6.34 6.34" style="fill:#fff"/><path d="M200.52 336.99h5.28v.75h-5.28z" style="fill:#263238"/><path d="M199.21 339.07h7.89v.75h-7.89z" style="fill:#a6a6a6"/><path d="M238 338.4a9.15 9.15 0 0 1-9.17 9.17 9.17 9.17 0 1 1 9.17-9.17" style="fill:#455a64"/><path d="M238 338.4a9.15 9.15 0 0 1-9.17 9.17 9.1 9.1 0 0 1-5.95-2.19l5.95-7v-9.17a9.17 9.17 0 0 1 9.17 9.19" style="fill:#23c423"/><circle cx="228.85" cy="338.4" r="6.34" style="fill:#fff"/><path d="M226.21 336.99h5.28v.75h-5.28z" style="fill:#263238"/><path d="M224.9 339.07h7.89v.75h-7.89z" style="fill:#a6a6a6"/><path id="freepik--IaQ7Yo--inject-1" d="M149.41 389.38a1 1 0 0 1-.49.24l-.24.05h-.43l-.43-.07a4.3 4.3 0 0 1-1.55-.69 10 10 0 0 1-2.78-2.79 4.3 4.3 0 0 1-.68-1.53c0-.15 0-.3-.07-.44v-.42a2.5 2.5 0 0 1 .1-.39 4 4 0 0 1 .16-.34l.07.06 1.76 1.76v.11a.86.86 0 0 0 .19.85 15 15 0 0 0 1.59 1.59.86.86 0 0 0 .85.19s.07 0 .1 0l1.79 1.78s.05.02.06.04m1.03-1.03-.62.62-1.8-1.8.13-.13.53-.52a.28.28 0 0 1 .46 0l1.34 1.34a.28.28 0 0 1-.04.49m-4.57-4.6-.69.66-1.78-1.78.63-.63a.28.28 0 0 1 .44 0l1.36 1.36a.27.27 0 0 1 .04.39" style="fill:#23c423"/><g id="freepik--TEfYE6--inject-1"><path d="m150.2 398.5-.19.18-3 2.87a.46.46 0 0 1-.69 0l-3.09-2.92-.12-.11a.47.47 0 0 1 .27-.08h6.45a.67.67 0 0 1 .37.06" style="fill:#23c423"/><path d="M150.19 403.83a2 2 0 0 1-.26 0h-6.5a.7.7 0 0 1-.33-.08l2.5-2.37.48.45.2.19a.54.54 0 0 0 .77 0l.67-.64c.82.79 1.65 1.57 2.48 2.35Zm-4.91-2.67c-.81.78-1.63 1.55-2.43 2.34v-4.52a.6.6 0 0 1 0-.14Zm5.17 2.31c-.3-.29-.6-.58-.91-.86l-1.47-1.4h-.06c.81-.79 1.63-1.56 2.42-2.34.04.04.06 4.48.02 4.6" style="fill:#23c423"/></g><path id="freepik--aiZGp2--inject-1" d="M270.28 383.78a5.5 5.5 0 0 0-.38 1.74h-1.55v-.12a4 4 0 0 1 .1-.61 4.7 4.7 0 0 1 .34-.95h1.43Zm-.05 3.89h-1.42a4.6 4.6 0 0 1-.35-1.08 3 3 0 0 1-.07-.54V386h1.52v.37a5 5 0 0 0 .09.58 6 6 0 0 0 .2.7Zm5.96.45a7 7 0 0 1-.4.52 4.3 4.3 0 0 1-.59.54 4 4 0 0 1-1.38.69 4 4 0 0 1-.59.13h-.09a4.6 4.6 0 0 0 1.12-1.08 6 6 0 0 0 .46-.76h1.45Zm-1.42-2.6h-2v-1.74h1.56a4.6 4.6 0 0 1 .31 1 3.3 3.3 0 0 1 .08.55.8.8 0 0 1 .05.19m-.01.48v.42c0 .13 0 .26-.07.39a4.7 4.7 0 0 1-.26.85h-1.6V386Zm-2.43-2.21v1.74h-1.94a.6.6 0 0 1 0-.13v-.29c0-.15.05-.3.08-.44a5 5 0 0 1 .28-.86h1.5Zm.01 2.21v1.66h-1.56a4.7 4.7 0 0 1-.27-.88c0-.16-.05-.31-.07-.47s0-.2 0-.31h1.92zm4.54-.47h-1.63a5.5 5.5 0 0 0-.38-1.75h1.52a4.3 4.3 0 0 1 .37 1.09 3 3 0 0 1 .08.61Zm.01.47a.5.5 0 0 0 0 .11c0 .15 0 .3-.05.44a4.6 4.6 0 0 1-.3 1 1 1 0 0 0-.07.15h-1.51c0-.06 0-.11.05-.16a4.4 4.4 0 0 0 .2-.79 4 4 0 0 0 .07-.59.7.7 0 0 0 0-.14h1.62Zm-.74-2.67h-1.45a4.6 4.6 0 0 0-.71-1.05 3.7 3.7 0 0 0-.54-.5l-.3-.22a4.3 4.3 0 0 1 1.44.43 4.15 4.15 0 0 1 1.56 1.34m-4.09 6.67a4 4 0 0 1-.47-.09 4 4 0 0 1-.83-.3 4.2 4.2 0 0 1-.84-.56 5 5 0 0 1-.51-.5 4 4 0 0 1-.31-.44h1.35a5 5 0 0 0 1.06 1.42 4 4 0 0 0 .56.45Zm-.06-8.46-.2.15a4.6 4.6 0 0 0-.64.6 4.3 4.3 0 0 0-.68 1v.07h-1.4a4.24 4.24 0 0 1 2.94-1.82Zm2.18 6.58a4.8 4.8 0 0 1-.66.89 3.8 3.8 0 0 1-.75.63v-1.52Zm-1.85 0v1.5a4.5 4.5 0 0 1-1.35-1.5Zm1.81-4.79h-1.36v-1.43a3.6 3.6 0 0 1 .76.64 4.7 4.7 0 0 1 .6.79m-1.81-1.33v1.39H271a4.2 4.2 0 0 1 1.33-1.39" style="fill:#23c423"/><path id="freepik--uGJA8C--inject-1" d="M275.92 398.54a3.65 3.65 0 0 0-4.23-1.94 3.4 3.4 0 0 0-2.64 3.61 4.6 4.6 0 0 0 .48 1.58 12.1 12.1 0 0 0 2.05 3c.32.37.67.72 1 1.08l.12-.1c.44-.47.9-.93 1.32-1.43a10.3 10.3 0 0 0 1.89-3 3.4 3.4 0 0 0 .01-2.8m-1.09 1.32a2.23 2.23 0 0 1-2.33 2.14 2.2 2.2 0 1 1 .23-4.4 2.22 2.22 0 0 1 2.1 2.26" style="fill:#23c423"/><path d="M158.45 383.17c20.87-.49 44.3-.49 65.18 0-20.88.49-44.31.49-65.18 0m0 4.7q16.28-.76 32.59 0-16.29.75-32.59 0m0 10.93c20.87-.49 44.3-.49 65.18 0-20.88.49-44.31.49-65.18 0m0 4.7q16.28-.76 32.59 0-16.29.75-32.59 0m130-20.33c20.87-.49 44.31-.49 65.18 0-20.87.49-44.31.49-65.18 0m0 4.7q16.28-.76 32.59 0-16.29.75-32.59 0m0 10.93c20.87-.49 44.31-.49 65.18 0-20.87.49-44.31.49-65.18 0m0 4.7q16.28-.76 32.59 0-16.29.75-32.59 0m-25.89-262.72c26-.49 55.17-.49 81.17 0-26 .49-55.17.49-81.17 0m0 7.97c26-.49 55.17-.49 81.17 0-26 .49-55.17.49-81.17 0m0 7.97c26-.49 55.17-.49 81.17 0-26 .49-55.17.49-81.17 0m0 25.15c26-.49 55.17-.49 81.17 0-26 .49-55.17.49-81.17 0m0 7.97c19.57-.49 41.1-.5 60.66 0-19.56.49-41.09.49-60.66 0m0-25.15c11.42-.51 22.87-.51 34.29 0-11.42.5-22.87.5-34.29 0" style="fill:#a6a6a6"/><path d="M250.83 118.61v-9a.83.83 0 0 1 .84-.84.84.84 0 0 1 .85.84v3.65h3.94v-3.65a.82.82 0 0 1 .83-.84.84.84 0 0 1 .85.84v9a.83.83 0 0 1-.85.83.82.82 0 0 1-.83-.83V115h-3.94v3.65a.83.83 0 0 1-.85.83.82.82 0 0 1-.84-.87m10.08-2.97a3.75 3.75 0 0 1 3.7-3.8 3.64 3.64 0 0 1 3.67 3.53v.07a.3.3 0 0 1 0 .14.72.72 0 0 1-.79.61h-4.83a1.9 1.9 0 0 0 .52 1 2.3 2.3 0 0 0 1.45.69 2.53 2.53 0 0 0 1.59-.38.86.86 0 0 1 1.14 0 .7.7 0 0 1 0 1 3.9 3.9 0 0 1-2.73 1 3.76 3.76 0 0 1-3.72-3.86m1.65-.74h4.3a2.46 2.46 0 0 0-2.25-1.61 2.11 2.11 0 0 0-2.05 1.61m9.07-6.1a.85.85 0 0 1 .85.84v9a.84.84 0 0 1-1.68 0v-9a.84.84 0 0 1 .83-.84m3.79 0a.85.85 0 0 1 .85.84v9a.85.85 0 0 1-1.69 0v-9a.85.85 0 0 1 .84-.84m3.58 9.53a3.76 3.76 0 0 1-1-2.67 3.88 3.88 0 0 1 1-2.66 3.52 3.52 0 0 1 2.61-1.16 3.35 3.35 0 0 1 2.54 1.16 3.8 3.8 0 0 1 1.06 2.66 3.7 3.7 0 0 1-1.06 2.67 3.35 3.35 0 0 1-2.54 1.16 3.52 3.52 0 0 1-2.61-1.16m.6-2.67a2.47 2.47 0 0 0 .55 1.61 2.07 2.07 0 0 0 1.46.56 2 2 0 0 0 1.4-.56 2.34 2.34 0 0 0 .59-1.61 2.27 2.27 0 0 0-.59-1.58 2.13 2.13 0 0 0-1.4-.58 2.18 2.18 0 0 0-1.46.58 2.4 2.4 0 0 0-.59 1.58Zm8.15.12v-6.14a.85.85 0 0 1 .84-.84.83.83 0 0 1 .82.84v6.14a.82.82 0 0 1-.82.84.84.84 0 0 1-.84-.84m.84 3.66a.83.83 0 0 1-.84-.83v-.31a.84.84 0 0 1 .84-.83.83.83 0 0 1 .82.83v.31a.81.81 0 0 1-.82.83" style="fill:#fff"/><path d="M296.7 201.9h8.88v8.88h-8.88z" style="fill:#23c423"/><path d="M300.31 207.28h-1.19v-1.36h1.17v-1.35a1.5 1.5 0 0 1 1.33-1.44 11 11 0 0 1 1.49 0v1.24h-.54a4 4 0 0 0-.48 0 .45.45 0 0 0-.38.44v1.07h1.36c-.06.45-.11.87-.17 1.28 0 0-.11.09-.17.09h-1v3.5h-1.45Z" style="fill:#fff"/><path d="M262.56 201.85h8.88v8.88h-8.88z" style="fill:#23c423"/><path d="M270.27 204.48a1.37 1.37 0 0 0-1.44-1.47h-3.66a1.37 1.37 0 0 0-1.43 1.44v3.61a1.4 1.4 0 0 0 1.47 1.5h3.61a1.39 1.39 0 0 0 1.46-1.47Zm-.59 3.62a.79.79 0 0 1-.87.88h-3.62a.79.79 0 0 1-.87-.87v-3.65a.8.8 0 0 1 .87-.88h3.62a.79.79 0 0 1 .87.87v1.83c0 .61.01 1.21 0 1.82" style="fill:#fff"/><path d="M267 204.57a1.71 1.71 0 0 0-1.71 1.69 1.7 1.7 0 1 0 1.71-1.69m0 2.84a1.16 1.16 0 0 1-1.12-1.12 1.14 1.14 0 1 1 1.12 1.12m2.22-2.88a.39.39 0 0 1-.78-.07.37.37 0 0 1 .41-.36c.25.04.39.17.37.43" style="fill:#fff"/><path d="M279.5 201.9h8.88v8.88h-8.88z" style="fill:#23c423"/><path d="M280.63 209.63c.14-.51.27-1 .41-1.46a.56.56 0 0 0 0-.42 3.28 3.28 0 1 1 6.25-1.35 3.32 3.32 0 0 1-3.11 3.16 3.65 3.65 0 0 1-1.63-.31.47.47 0 0 0-.31 0Zm.8-.77c.32-.09.6-.17.88-.23a.53.53 0 0 1 .28 0 3 3 0 0 0 1.33.35 2.73 2.73 0 0 0 2.73-3.19 2.56 2.56 0 0 0-2-2.15 2.74 2.74 0 0 0-3 4 .5.5 0 0 1 0 .32c-.06.34-.14.6-.22.9" style="fill:#fff"/><path d="M282.51 205c.23-.3.53-.25.68.09.06.13.08.17.14.32a.41.41 0 0 1-.09.52c-.12.1-.11.19 0 .31a2.36 2.36 0 0 0 1 .85.22.22 0 0 0 .3-.07c.29-.35.29-.34.7-.15l.14.07a.38.38 0 0 1 .11.67.9.9 0 0 1-.92.23 3.36 3.36 0 0 1-2-1.52 1.3 1.3 0 0 1-.25-.74 1.1 1.1 0 0 1 .19-.58" style="fill:#fff"/></g><g id="freepik--Plant--inject-1"><path d="M92.58 349.42a40.9 40.9 0 0 1-.79 15.73 42.5 42.5 0 0 1-2.42 7c-1.25 2.88-2.56 5.69-2.24 8.84.3.2-.74.17-.77-.14-8.42-4.79-19.22-5.67-25.7-13.51-3.06-3.71-4.61-8.41-5.35-13.11-.79-5.13-1-10.8.31-15.85 1.11-4.27 3.61-8.39 7.62-10.48s9.57-2 13.93-.62c9.4 2.88 14.08 13.04 15.41 22.14" style="fill:#23c423"/><path d="M96.9 411.73c-1.15-3.83-2.29-7.66-3.47-11.48-2.31-7.48-4.71-14.93-7.37-22.3q-2.39-6.61-5-13.11a80 80 0 0 1 1-8.14c.71-3.26 1.73-6.41 2.68-9.61.06-.19-.26-.3-.34-.11-1.89 4.4-4.35 10-4.42 15.24q-3.07-7.34-6.61-14.48a61.7 61.7 0 0 1 .37-12.06.15.15 0 0 0-.29-.06 43 43 0 0 0-.82 10.65c-1.81-3.57-3.71-7.1-5.74-10.58-.19-.31-.62 0-.46.32 3.17 6.09 6.1 12.31 8.85 18.61A40.4 40.4 0 0 0 62 347c-.21-.08-.36.23-.15.32a47.9 47.9 0 0 1 14.28 9.45q3 6.92 5.65 13.95c-5.26-5.16-12.47-8.56-19.44-10.38-.24-.06-.3.3-.08.37 8.07 2.43 14.34 7 20.48 12.5q1.06 2.83 2.1 5.7 3.9 10.82 7.42 21.77 1.71 5.23 3.35 10.51c1.17 3.77 2.09 7.76 3.63 11.4.14.35.77.27.69-.15a109 109 0 0 0-3.03-10.71" style="fill:#263238"/><path d="M82.94 342.05a20.8 20.8 0 0 0-3 7.55.06.06 0 0 0 .12 0 67 67 0 0 1 3.28-7.41c.1-.19-.26-.36-.4-.14m-15.02 17.54a22.3 22.3 0 0 0-7.55-2.59c-.07 0-.11.09 0 .12 1.21.51 2.49.86 3.72 1.33s2.43 1.05 3.68 1.49a.22.22 0 0 0 .15-.35m-4.23-21.1a14.2 14.2 0 0 0-2.43-1.5.13.13 0 0 0-.14.21 14.7 14.7 0 0 0 2.4 1.55c.15.1.32-.16.17-.26" style="fill:#263238"/><path d="M121 378c-6.06 1.8-12.16 3.46-18.22 5.24-.52.16-10.77-19.48-7.07-29.6a33 33 0 0 1 20.61-19.55c4.33-1.48 9.65-2.71 14.22-1.7 4.07.9 6.94 4.23 8.26 8.05 1.8 5.2 1.2 11.4.22 16.7a29.23 29.23 0 0 1-6 13.64c-3.22 3.83-7.33 5.83-12.02 7.22" style="fill:#23c423"/><path d="M129.75 359.34a80 80 0 0 1-11.89 4.66 51 51 0 0 0-7.93 2.87c2.56-5.7 5.37-11.29 8.35-16.83 3.92-1.13 8-2.9 11-5.67a.17.17 0 0 0-.22-.26c-3.23 2.28-6.79 3.65-10.37 5.2.81-1.49 1.62-3 2.45-4.47.23-.41-.34-.82-.61-.42a129 129 0 0 0-8.62 14.47 66 66 0 0 1-.62-13.26.09.09 0 0 0-.18 0 44.3 44.3 0 0 0 .15 14.57c-2.13 4.24-4.06 8.59-5.8 13-.69-2.64-1.59-5.25-2.19-7.91a36.1 36.1 0 0 1-.87-11.67.09.09 0 0 0-.18 0 41.2 41.2 0 0 0 2.53 21.38c-1 2.65-2 5.31-2.86 8a159 159 0 0 0-8 42.07.26.26 0 0 0 .51 0 209 209 0 0 1 9-41.57c1.76-5.28 3.78-10.41 6-15.45 3.58-1.06 7.15-2.49 10.67-3.71a33.7 33.7 0 0 0 9.83-4.82.13.13 0 0 0-.15-.18" style="fill:#263238"/><path d="M135.4 353.64c-3.7 1.31-7.22 3.16-10.92 4.5-.18.06-.08.34.1.3 3.92-.81 7.81-2 11-4.59.09-.1-.05-.26-.18-.21m-30.27-8c0-.2-.25-.31-.31-.11-1 3.42-1.71 7-.72 10.54a.13.13 0 0 0 .26 0c.18-3.54-.02-6.96.77-10.43m15.32-7.9a9.08 9.08 0 0 0-1.61 5.81c0 .13.21.21.25.06.45-2 1.21-3.74 1.81-5.64a.26.26 0 0 0-.45-.23" style="fill:#263238"/><path d="M48.84 386.67c1.78 5.64 6 13.44 12.69 13.5 4.34 0 8.71-.47 13-.53 4.66-.08 9.32-.06 14 .21.38 0-.56-13.94-11.75-20.73-3.13-1.91-7-2.51-10.52-3.28a48.6 48.6 0 0 0-12.43-1.29c-2.57.1-4.71.64-5.62 3.27s-.21 6.18.63 8.85" style="fill:#23c423"/><path d="M53.66 379.61c2.72.7 5.46 1.5 8.19 2.37a28 28 0 0 0-2.26-2.2c-1.17-1-2.46-1.75-3.72-2.61-.1-.07 0-.27.1-.22a15.37 15.37 0 0 1 6.59 5.25c3.4 1.1 6.77 2.31 10 3.64a37.5 37.5 0 0 1 6.44 3.38 25.3 25.3 0 0 0-2.32-4c-1.48-1.92-3.49-3-5.43-4.36a.17.17 0 0 1 .17-.3 15.9 15.9 0 0 1 8.7 9.44 37.4 37.4 0 0 1 6.35 5.76c7.4 8.41 13.23 19.6 13.25 31 0 .27-.44.35-.49.06a63.3 63.3 0 0 0-14.11-30.32c-.53-.62-1.08-1.21-1.63-1.78a52 52 0 0 0-6.11-.45c-2.39 0-4.75.35-7.12.54-3.9.32-8.22.36-11.74-1.6-.16-.09-.06-.36.12-.29 7.85 2.85 16.09-.77 24 .93A36.8 36.8 0 0 0 71 386.36l-.72-.28c-5 .6-10.36 1.91-15.27.28a.12.12 0 0 1 .06-.24c4.75 1.19 9.3-.3 14-.54-5.09-2-10.28-3.56-15.4-5.53-.47-.17-.48-.56-.01-.44" style="fill:#263238"/><path d="M51.43 384.57a67 67 0 0 0 7.34.56.05.05 0 0 1 0 .1 15.2 15.2 0 0 1-7.4-.47.1.1 0 0 1 .06-.19M68 379.73a12.1 12.1 0 0 1 3.63 2.53c.13.11 0 .34-.18.24-.62-.45-1.25-.87-1.89-1.29a17 17 0 0 1-1.77-1.11.22.22 0 0 1 .21-.37" style="fill:#263238"/><path d="M107.5 397.9c-.08.18.19.36.29.16a.26.26 0 0 0 .17.11 112 112 0 0 0 13.67 2.39c3.7.33 8 .53 11.2-1.62 4.39-2.9 7.27-10.68 4.9-15.62-2.81-5.87-11.26-2.69-15.51-.6a31.16 31.16 0 0 0-14.72 15.18" style="fill:#23c423"/><path d="M104.22 400.61a43.5 43.5 0 0 1 8.16-6.21 28 28 0 0 1 8.27-8.44c.16-.11.3.15.15.26a37.5 37.5 0 0 0-7 7.34 75.6 75.6 0 0 1 10.24-4.66 13.57 13.57 0 0 1 5.5-5.51s.1 0 .06.07a22.6 22.6 0 0 0-5 5.22c2.08-.78 4.18-1.5 6.28-2.2.19-.06.26.23.08.3-3.74 1.46-7.56 3-11.26 4.77a43 43 0 0 0 13.64 0 .1.1 0 0 1 0 .2 26.84 26.84 0 0 1-14.47.21 68 68 0 0 0-6.87 3.85 17.2 17.2 0 0 1 5.55.45 41.7 41.7 0 0 0 9.75 1.1.12.12 0 0 1 0 .23c-5.65 1-11-1.6-16.61-.93a41.26 41.26 0 0 0-14.21 16.74c-2.36 4.8-3.64 9.89-5.55 14.85a.18.18 0 0 1-.34-.09c1.63-9.79 6.5-20.58 13.63-27.55" style="fill:#263238"/><path d="M121.28 387.19a6.4 6.4 0 0 1 1.45-1.76 6 6 0 0 1 1.66-1.25c.06 0 .09.06.06.1-.46.53-1.11.91-1.61 1.41s-.92 1.11-1.43 1.6a.08.08 0 0 1-.13-.1m9.32 3.04c.84-.21 1.73-.2 2.58-.37a23 23 0 0 0 2.5-.75c.11 0 .18.13.08.18a8.27 8.27 0 0 1-5.16 1.2c-.13-.02-.12-.23 0-.26" style="fill:#263238"/><path d="m80.92 416.1.74 8.43L84.18 453h22.29l3.15-28.47.93-8.43z" style="fill:#455a64"/><path d="m80.92 416.1.74 8.43 28.15-1.74.74-6.69z" style="fill:#37474f"/><path d="M78.71 413.8h34.05v6.84H78.71z" style="fill:#455a64" transform="matrix(-1 0 0 -1 191.46 834.44)"/></g><g id="freepik--character-2--inject-1"><path d="M149.9 110.76h87.75v113.38H149.9z" style="fill:#dbdbdb"/><path d="M205.44 151.36c1.73 4.42 4.2 8.45 5.58 13a29.9 29.9 0 0 1 1.16 13.06c-2.46 16.05-23.35 25.68-38 20.69-7-2.38-13.13-8.08-15-15.38-2.28-9 2.5-17.56 5.4-25.73a42 42 0 0 0 2.35-14.25c0-4.25-.26-8.57.61-12.76.61-3 2.65-11.69 13.67-15.16 7.91-2.49 15.91 1.82 19.6 9.34 4.27 8.76 1.19 18.42 4.63 27.19" style="fill:#263238"/><path d="M167.76 152.67c-3.42 7.32-7.91 14.8-9.22 22.87-1.09 6.7.71 14 6.54 17.93 0 0 .11 0 .06-.08-6.12-4.74-6.88-12.94-5.17-20 1.76-7.23 6-13.51 8.13-20.58.07-.22-.24-.37-.34-.14" style="fill:#263238"/><path d="M166.21 152.24c-2.59 9.6-10.49 17.17-11 27.38 0 .12.18.15.19 0 .66-10.2 9.45-17.44 11-27.38.02-.09-.16-.11-.19 0M206 151.2a33.3 33.3 0 0 1-3-11.28c0-.21-.35-.22-.36 0-.93 14.09 15.22 24.66 10.92 39.24 0 .1.12.17.16.06 2.06-6 .46-12-2.24-17.57-1.73-3.54-3.82-6.89-5.48-10.45" style="fill:#263238"/><path d="M202.73 137.82c0-.27-.43-.19-.41.07a31.64 31.64 0 0 0 5 14.82c1.41 2.19 3.13 4.16 4.49 6.38 1.48 2.44 2.63 5 3.88 7.62 0 .06.12 0 .1-.05-1.63-4.86-4.17-8.72-7.09-12.85a34.8 34.8 0 0 1-5.97-15.99" style="fill:#263238"/><path d="M201.31 166.84c16 15.21 36.55 47.61 33.13 54.43-3.81 7.58-26.09-13.74-26.05-15 0-1-8.2-20.8-14.43-35.21s3.39-7.98 7.35-4.22" style="fill:#eb9481"/><path d="M208.25 206.27c-.73-2.12-11.91-28.25-15.13-36.52s-.57-10.95 8.11-3.55 28 32.39 32.63 45.85c4.49 12.95-2.25 13.17-11.34 7.42-7.44-4.7-14.27-13.2-14.27-13.2" style="fill:#23c423"/><path d="M179.8 159.07c.29 1 5.47 7.31 10.08 6.85 1.5-.16 1-8.39 1-8.39l.11-.62 1.45-8.62-10.35-5.89-1.49-.77s-.24 2.38-.51 5.36v.42l-.06.48c0 .45-.09.9-.12 1.35s-.06.68-.08 1 0 .72-.07 1.08a56 56 0 0 0 .04 7.75" style="fill:#eb9481"/><path d="M180.12 147a17.52 17.52 0 0 0 10.9 9.92l1.45-8.62-10.35-5.89-1.49-.77s-.24 2.36-.51 5.36" style="fill:#263238"/><path d="M203.27 133.11c3.12 15-5.53 18.59-8.77 19.25-2.94.61-13 2.3-17.69-12.32s1.35-20.82 8-22.56 15.34.6 18.46 15.63" style="fill:#eb9481"/><path d="M198.2 130.31a9 9 0 0 1-1.06 0 1.67 1.67 0 0 1-1.07-.25.56.56 0 0 1-.11-.66 1.36 1.36 0 0 1 1.26-.53 2 2 0 0 1 1.35.49.57.57 0 0 1-.37.95m-10.02 2.2c.35-.11.65-.26 1-.39a1.8 1.8 0 0 0 .93-.59.55.55 0 0 0-.12-.66 1.35 1.35 0 0 0-1.36-.09 2 2 0 0 0-1.12.9.59.59 0 0 0 .67.83m2.66 3.25s-.07.06-.06.1c.23 1 .32 2.23-.54 2.75v.06c1.12-.38.98-1.98.6-2.91" style="fill:#263238"/><path d="M189.72 134.86c-1.68.2-1.17 3.53.38 3.35s1.02-3.51-.38-3.35" style="fill:#263238"/><path d="M189.09 135.14c-.26.23-.5.61-.84.7s-.76-.2-1.08-.5c0 0-.06 0 0 0 .09.64.43 1.26 1.13 1.25s1-.64 1.06-1.31c-.03-.07-.16-.23-.27-.14m7.75-.72s.09 0 .1.08c.11 1 .42 2.21 1.41 2.42v.06c-1.17.02-1.56-1.55-1.51-2.56" style="fill:#263238"/><path d="M197.61 133.21c1.65-.37 2.26 2.95.74 3.29s-2.12-2.98-.74-3.29" style="fill:#263238"/><path d="M198.34 133.3c.3.13.62.4.93.36s.57-.45.74-.84h.06c.13.63.05 1.33-.54 1.56s-1-.25-1.31-.86c-.05-.08 0-.27.12-.22m-5.75 10.31c.26.23.53.55.91.56a2.9 2.9 0 0 0 1.11-.33 1.44 1.44 0 0 1-1.29.65 1.12 1.12 0 0 1-.88-.87c.03-.01.11-.04.15-.01m3.88-4.27s.4 1.52.49 2.25c0 .07-.16.12-.41.17a3.49 3.49 0 0 1-3.53-.89c-.06-.06 0-.15.1-.11a5.26 5.26 0 0 0 3.28.52c0-.2-.78-2.58-.66-2.6a6.1 6.1 0 0 1 1.7.17c-.74-3.2-2-6.25-2.68-9.44a.1.1 0 0 1 .18-.07 52.4 52.4 0 0 1 3.33 10c.08.45-1.49.09-1.8 0" style="fill:#263238"/><path d="M177.27 139.32c3.23-.45 2.43-7.87 2.43-7.87s5.33-1.72 7.12-5.72c0 0-1.1 3.41-3.07 5-.34.27 10.62-2.28 10.58-10.91 0 0 2.7 8.18 8 9.25.25 0-1.72-7.55-3.58-9.13a18.14 18.14 0 0 0-15.56-3.85c-6.69 1.87-10.23 9.6-10.37 12.6-.29 5.92 2.92 10.85 4.45 10.63" style="fill:#263238"/><path d="M184.12 130.88c6-1 10.34-5.52 10-11.77a.14.14 0 0 1 .27 0c1.63 6.17-4.57 11.64-10.36 11.92-.09-.03-.03-.13.09-.15m-6.88 8.12c3.07-2.1 3.16-5.46 3-8.84 0-.1.16-.13.18 0 .47 3.28.39 7.38-3 9.13a.15.15 0 0 1-.18-.29" style="fill:#263238"/><path d="M194.22 118.54h.06c1.18 3.37 2.08 9.2 6.63 9.5a.1.1 0 0 1 0 .19c-4.39.09-6.7-6.04-6.69-9.69" style="fill:#263238"/><path d="M179.4 139.27s-4-4.23-6-2.72 1.57 8 4.23 8.54a2.59 2.59 0 0 0 3.23-1.9Z" style="fill:#eb9481"/><path d="M174.46 138.38v.07c1.88.45 3.06 1.94 4 3.55a1.43 1.43 0 0 0-2.18-.07.06.06 0 0 0 .06.09 1.58 1.58 0 0 1 1.82.29 7.5 7.5 0 0 1 1.05 1.27c.1.15.38 0 .29-.15-.35-2.3-2.58-5.19-5.04-5.05" style="fill:#263238"/><path d="M210.46 224.14h-46.94c-1.12.05-2.18.05-3.15 0h-6.07c.08-.42.16-.87.25-1.34 0-.16.07-.31.1-.47s0-.06 0-.09.07-.35.11-.53c1.46-7.27 4.06-19.23 7.47-30.78 0-.13.07-.26.11-.39s.14-.48.22-.72c3-10.21 6.73-20 10.79-25.71.29-.43.6-.84.91-1.22s.56-.69.85-1a18 18 0 0 1 1.45-1.43c.76-.64.65-5.69 1-6a7.7 7.7 0 0 1 2.08.06c2 .18 5.22.56 8 .94 1.34.18 2.58.37 3.53.53a7.8 7.8 0 0 1 1.92.42c.19.36 1 5.12 1 5.12l.36.46.31.41c1.46 1.91 3.71 5 6 8.36l.18.25a95.6 95.6 0 0 1 7.61 12.8c.1.22.19.45.28.67s.22.53.31.78c0 .07 0 .13.07.19a11.5 11.5 0 0 1 .46 1.57c1.24 6-2.53 12.65-2.73 13l.5 3.42.18 1.24.21 1.43v.33l.56 3.9 1.63 11.16.15 1Z" style="fill:#23c423"/><path d="M199.42 197.94a31.2 31.2 0 0 0-8.14 1.36c-2.66.75-8.54 3.08-10 3.65v.06a50 50 0 0 0 5.65-1.7c2.61-.89 5.24-1.69 7.9-2.38a38 38 0 0 1 4.58-.83c.11-.01.12-.16.01-.16m4.85 1.4a25.4 25.4 0 0 0-8.55.76s0 .07 0 .06c1.41-.17 2.83-.33 4.25-.45s2.86-.2 4.29-.29c.06 0 .06-.07.01-.08m-25.05-39.64a10.7 10.7 0 0 1 .09-3.74 10.7 10.7 0 0 1-.09 3.74m2.49.3a9 9 0 0 1-.12-1.87 9 9 0 0 1 .21-1.87 10.7 10.7 0 0 1-.09 3.74m2.48.27a10.7 10.7 0 0 1 .09-3.75 10.7 10.7 0 0 1-.09 3.75m2.49.28a10.7 10.7 0 0 1 .09-3.74 10 10 0 0 1 .12 1.87 10 10 0 0 1-.21 1.87m2.48.28a10.7 10.7 0 0 1 .09-3.74 10.7 10.7 0 0 1-.09 3.74m2.49.28a10.7 10.7 0 0 1 .09-3.74 10.7 10.7 0 0 1-.09 3.74m9.12 9.62c6.53 8.82 14.3 19 6.51 29.62l.13-.41.88 6.35v.13c.78 5.91 1.53 11.83 2.15 17.77-1.11-5.87-2.1-11.75-3-17.65v-.08l-1-6.33v-.23c7.56-10.31 0-19.89-5.66-29.12Z" style="fill:#263238"/><path d="M203.08 172.24A8.1 8.1 0 0 1 205 177a34 34 0 0 1-1.89-4.76Z" style="fill:#263238"/><path d="M234.62 220.82a4 4 0 0 1-.17.41 8 8 0 0 1-.76 1 .07.07 0 0 1-.05 0 4 4 0 0 1-.56.56 10.4 10.4 0 0 1-1.78 1.3h-40.59a63 63 0 0 1-2.34-4.65v-.06l-.21-.49c-.16-.35-.31-.7-.44-1-1.43-3.51-2-6.33-.84-6.67l.43-.12c.62-.16 1.4-.37 2.31-.59l.21-.05h.11l.25-.06 1.8-.44c1.52-.36 3.21-.76 4.93-1.15l3.12-.72c1.92-.43 3.75-.84 5.29-1.17h.1l2.43-.52.4-.07h.21c.53-.1.88-.17 1-.18h.52a18.4 18.4 0 0 1 5.41.61l.39.1.53.15.2.06a35 35 0 0 1 6.25 2.61c1.15.6 2.26 1.25 3.31 1.93 5.2 3.2 8.92 7.2 8.54 9.21" style="fill:#eb9481"/><path d="M206 224.14h-39.73a1.3 1.3 0 0 1 .16-.22 1.3 1.3 0 0 1 .16-.22c.07-.11.16-.22.25-.34a33.3 33.3 0 0 1 10.72-9.36 47.2 47.2 0 0 1 9.74-3.25l2.18-.5h.08l.22-.05a1.3 1.3 0 0 0 .28-.06l1.73-.34.16.16c.53.51 2.34 2.26 4.55 4.45l.1.1 1.87 1.86.1.11c2.74 2.67 5.59 5.59 7.43 7.66" style="fill:#eb9481"/><path d="M234.68 221.53a.3.3 0 0 1 0 .07 8.5 8.5 0 0 1-2.58 2.54h-29.16l-6.65-6.94-.19-.2-1.57-1.64-.4-.43-3.65-3.81-.57-.59-.23-.24-.14-.15.46-.14 6.8-1.4 3.19-.66 7.82-1.61.38-.08h.25a14 14 0 0 1 1.59-.18 18.6 18.6 0 0 1 5.05.44l.37.1a5 5 0 0 1 .53.13h.17a30.7 30.7 0 0 1 5.72 2.2 37 37 0 0 1 4.46 2.59c4.49 3 7.82 6.57 8.36 8.78a1.77 1.77 0 0 1-.01 1.22" style="fill:#23c423"/><path d="M222.83 209.45a20.62 20.62 0 0 0-14.37-3.32c-.06 0-.05.11 0 .1 5.2-.31 12.31 2.18 14.31 3.3zm-10.24 14.69h-.77c-.54-.54-1.08-1.09-1.6-1.64-1.75-1.77-3.47-3.55-5.18-5.35-1.4-1.48-2.81-3-4.19-4.47l-.9-1c-.63-.69-1.24-1.39-1.85-2.09 0 0 0-.1.07-.06.62.57 1.23 1.16 1.84 1.75l1.22 1.19 1.11 1.1c2.44 2.4 4.81 4.88 7.18 7.34l.55.57c.85.89 1.69 1.77 2.52 2.66" style="fill:#263238"/><path d="M189.41 209.77a30 30 0 0 1 3.86-1c1.3-.29 2.61-.55 3.92-.81 2.6-.5 8.05-1.86 12.88-2 .06 0-.21.26-.26.26-2.3-.05-18.68 3.76-20 3.9a2 2 0 0 1 .16.27c0 .06 0 .15-.11.11s-.3-.25-.46-.37a.19.19 0 0 1 .01-.36" style="fill:#263238"/><path d="M167.89 171.29c-7.35 12.74-19.52 39.85-14.34 49.57 5 9.36 37.91-4.33 45.51-7.35 3.12-1.23-1.54-25.38-5-24.47-7.62 2-19 7.39-19.38 7.15s1.66-11.56 3.22-22.79c2.25-16.33-4.73-11.27-10.01-2.11" style="fill:#eb9481"/><path d="M189.27 191.42s8.53-4.63 13.77-5.67a34.36 34.36 0 0 1 16.36 1.16c5.71 1.82 18.25 10.17 16.47 14.2-1.6 3.65-14-5.53-14-5.53s14.17 7.27 11.43 11.31-16.51-7.44-16.51-7.44 14.39 7.81 10.91 11.52c-2.64 2.81-15.69-6.88-15.69-6.88s12.32 6.79 9.74 9.8c-2.86 3.32-15.47-4.87-15.47-4.87-7.86 6.54-14.27 6.43-18.83 5.82-1.09-.15 1.82-23.42 1.82-23.42" style="fill:#eb9481"/><path d="M217.14 192.75c1.7.79 3.42 1.58 5 2.53s3.21 1.94 4.73 3a32 32 0 0 1 5.53 4.8 69 69 0 0 0-10.54-7.4c-1.61-.94-3.18-2-4.8-2.9zm-3.51 5.78c2.12 1.11 4.27 2.13 6.34 3.33s3.92 2.52 5.89 3.85c.16.1 0 .15-.11 0-2-1.25-4-2.25-6-3.49s-4-2.54-6.12-3.69c-.06.03-.03-.02 0 0m-3.9 4.47a52.8 52.8 0 0 1 9.3 5.83c.15.11 0 .16-.15.06-3.06-2-5.44-3.59-9.21-5.78-.05-.11-.01-.19.06-.11" style="fill:#263238"/><path d="M199.6 216.13h-.06l-.93.3-2.35.72c-2 .6-4.76 1.41-7.92 2.26a152.6 152.6 0 0 1-21.91 4.49c-1 .1-2 .18-2.91.22-1.12.05-2.18.05-3.15 0a15.4 15.4 0 0 1-3.06-.44 6.65 6.65 0 0 1-2.66-1.37c-6.24-5.29-.05-21.45 1.06-25.46.3-1 1.37-3.79 2.86-7.27v-.06c.36-.83.74-1.71 1.15-2.61l.36-.83.12-.26c3-6.59 6.86-14.37 9.87-18.54a17 17 0 0 1 4.18-4.4c3-1.94 4.79.5 4.2 8.31-.16 2.1-.38 4.28-.64 6.42v.34c-.31 2.58-.66 5.11-1 7.4v.14c-.66 4.49-1.26 8.05-1.33 9.23a.3.3 0 0 0 0 .09v.33l.13-.05.2-.09c2.08-.91 13.08-6.06 13.74-6.37l.18.48v.08l.36 1 .22.61 2.51 6.89.38 1.06.19.52 3.19 8.76.18.49v.23l1.78 4.87.24.66.63 1.71Z" style="fill:#23c423"/><path d="M175.48 194.79a29.5 29.5 0 0 0-4 4.11 51 51 0 0 0-3.31 4.46s.07.06.09 0c1.16-1.46 2.49-2.85 3.74-4.27s2.66-2.76 3.81-4.21c.03-.06-.22-.17-.33-.09" style="fill:#263238"/><path d="M177.84 177.62c-.13 1.38-.3 2.76-.44 4.13l-.5 4.13c-.32 2.74-.72 5.49-1 8.22v.9-.06a.33.33 0 0 0-.17-.16h-.1.1l.23-.09.47-.19 1.89-.83 3.68-1.77 3.8-1.67 3.83-1.63.19.6-.25-.58h.05c-1.22.66-2.45 1.3-3.68 1.93l-3.72 1.86c-1.24.62-2.49 1.21-3.74 1.8l-1.91.85-.48.21-.26.09h-.24a1 1 0 0 1-.16 0h-.08a.44.44 0 0 1-.19-.19v-.14a.4.4 0 0 0 0-.06v-1.04c.32-2.76.74-5.5 1.2-8.23l.71-4.09c.23-1.27.48-2.61.77-3.99m11.22 29.57c-1.13-3.16-2.24-6.33-3.49-9.45-.71-1.77-1.41-3.55-2.14-5.32 0-.07-.14 0-.12 0 1 3.22 2 6.44 3.19 9.62s2.27 6.32 3.47 9.46q1 2.67 2.2 5.29s.07 0 .06 0c-.9-3.24-2.03-6.41-3.17-9.6" style="fill:#263238"/><path d="M178.49 181a23 23 0 0 1-.75 2.33 21 21 0 0 1-1 2.25 24 24 0 0 1 1.75-4.58" style="fill:#263238"/></g><g id="freepik--character-1--inject-1"><path d="M332.57 452.27c2.25.75 66.44.56 68.88-1 .93-.58 1.45-9.94 1.75-21.25.07-2.45-.14-41.84-.14-41.84h-41.49v34.3l.22 7.54s-24.54 11.06-27 13.06-4.46 8.45-2.22 9.19" style="fill:#eb9481"/><path d="M332 452.58c2.3.76 68.06.45 70.56-1.15.95-.6 1.89-10.74.94-21.95l-42.4.25s-24.31 11.38-26.86 13.43-4.53 8.66-2.24 9.42" style="fill:#23c423"/><path d="m402.57 451.43-.14.06h-.11c-2.17.62-14.14 1-27.61 1.25l27.79-23.3h1c.96 11.25.02 21.39-.93 21.99" style="opacity:.1"/><path d="M332.94 450c11-.33 55.51-.59 66.43-.07.09 0 .09.06 0 .07-10.92.56-55.41.46-66.43.18-.23-.06-.23-.18 0-.18m5.53-9.23a8.9 8.9 0 0 1 6.61 2.66 8.65 8.65 0 0 1 2.49 5.88c0 .06-.13.07-.14 0a10.24 10.24 0 0 0-9-8.4.07.07 0 0 1 .04-.14m19.19-9.92c4.41-.08 9.53 1.45 12.29 5 .11.14-.09.29-.22.22a61.2 61.2 0 0 0-12.15-4.73.28.28 0 0 1 .08-.49m-3.4 1.34c4.41-.08 9.53 1.46 12.29 5.05.11.14-.09.29-.22.22a61.2 61.2 0 0 0-12.15-4.72.28.28 0 0 1 .08-.55m-3.4 1.35c4.41-.08 9.53 1.45 12.29 5 .11.14-.09.29-.22.23a61.2 61.2 0 0 0-12.15-4.73.28.28 0 0 1 .08-.5m-3.4 1.34c4.41-.08 9.53 1.45 12.29 5.05.11.14-.09.29-.22.22a60.6 60.6 0 0 0-12.15-4.72.28.28 0 0 1 .08-.55m49.05 4.54c4.95 0 5 7.69 0 7.7s-4.96-7.69 0-7.7" style="fill:#263238"/><path d="M353.22 425.56c2.39 3.07 6 5 9.18 7.14a.54.54 0 0 0 .79-.36c.08 0 .15 0 .14-.13a23.13 23.13 0 0 0-4.06-11.21c-1.39-1.92-4.21-3.71-6.44-1.85s-1.01 4.63.39 6.41m-.22-3.65c.41-4.8 4.76-1.14 5.73.32a25 25 0 0 1 1.62 3 70 70 0 0 1 2.52 6.52c-1.48-1.15-3.05-2.17-4.58-3.27-1.81-1.34-5.52-3.92-5.29-6.57" style="fill:#263238"/><path d="M379 429.33c-.36-2.88-3.65-3.49-6-3a23.1 23.1 0 0 0-10.65 5.47.12.12 0 0 0 0 .19.53.53 0 0 0 .34.8c3.77.57 7.74 1.65 11.58 1 2.27-.35 5.06-1.74 4.73-4.46m-10.37 3.12c-1.87-.23-3.71-.56-5.58-.72a69 69 0 0 1 6.29-3.06 24 24 0 0 1 3.21-1.07c1.7-.4 7.38-.13 4.41 3.67-1.64 2.1-6.12 1.46-8.34 1.18Zm57.29-235.91s-21.9 110-23.44 118.12c-.36 1.85 1 108.54 1 108.54h-41.86s-2.85-94.24-.89-110.46 26.77-116.2 26.77-116.2Z" style="fill:#263238"/><path d="M425.93 196.55s-10.66 53.53-17.64 88.66l-20.8-88.66Zm-25.74 218.24c-2.37-.36-20.43-1.1-35.53-.33-.1 0-.1.17 0 .18 4.93.52 32.74.74 35.51.36.09 0 .13-.19.02-.21" style="fill:#37474f"/><path d="M396.53 410.88c-.33-13-.83-39.06-1-52.06 0-14.66-.64-29.37.08-44 4.25-21 13.1-63.78 17.45-84.46l5.44-25.47-5 25.56c-3.9 19.8-12.53 62.84-16.64 82.95a18 18 0 0 0-.48 3.16c-.22 5.39-.18 10.82-.2 16.23 0 16.66.23 60.91.31 78.1Z" style="fill:#37474f"/><path d="M387.73 452.73c2.25.72 66.43-.09 68.86-1.66.92-.59 1.35-9.95 1.55-21.27 0-2.44-2.55-41.61-2.55-41.61l-39.48.18.65 41.83s-24.44 11.31-26.91 13.32-4.37 8.48-2.12 9.21" style="fill:#eb9481"/><path d="M386.82 452.58c2.3.76 68.06.45 70.56-1.15 1-.6 1.89-10.74.94-21.95l-42.4.25s-24.3 11.38-26.86 13.43-4.54 8.66-2.24 9.42" style="fill:#23c423"/><path d="M387.75 450c11-.33 55.51-.59 66.43-.07.09 0 .09.06 0 .07-10.92.56-55.41.46-66.43.18-.23-.06-.23-.18 0-.18m5.53-9.23a8.9 8.9 0 0 1 6.61 2.66 8.6 8.6 0 0 1 2.49 5.88c0 .06-.12.07-.13 0a10.25 10.25 0 0 0-9-8.4.07.07 0 0 1 .03-.14m19.19-9.92c4.41-.08 9.54 1.45 12.29 5 .11.14-.09.29-.22.22a61.4 61.4 0 0 0-12.14-4.73.27.27 0 0 1 .07-.49m-3.4 1.34c4.41-.08 9.54 1.46 12.29 5.05.11.14-.09.29-.22.22a61.3 61.3 0 0 0-12.14-4.72.28.28 0 0 1 .07-.55m-3.4 1.35c4.41-.08 9.54 1.45 12.29 5 .11.14-.09.29-.22.23a61.4 61.4 0 0 0-12.14-4.73.27.27 0 0 1 .07-.5m-3.4 1.34c4.41-.08 9.54 1.45 12.29 5.05.11.14-.09.29-.22.22a60.7 60.7 0 0 0-12.14-4.72.28.28 0 0 1 .07-.55m49.05 4.54c4.95 0 5 7.69 0 7.7s-4.95-7.69 0-7.7" style="fill:#263238"/><path d="M408 425.56c2.39 3.07 6 5 9.18 7.14a.55.55 0 0 0 .8-.36c.07 0 .14 0 .13-.13a23.13 23.13 0 0 0-4.03-11.21c-1.39-1.92-4.21-3.71-6.43-1.85s-1.02 4.63.35 6.41m-.22-3.65c.41-4.8 4.76-1.14 5.73.32a24 24 0 0 1 1.62 3 70 70 0 0 1 2.52 6.52c-1.48-1.15-3.05-2.17-4.58-3.27-1.78-1.34-5.49-3.92-5.26-6.57Z" style="fill:#263238"/><path d="M433.8 429.33c-.36-2.88-3.65-3.49-6-3a23.1 23.1 0 0 0-10.65 5.47.12.12 0 0 0 0 .19.54.54 0 0 0 .34.8c3.78.57 7.74 1.65 11.58 1 2.28-.35 5.07-1.74 4.73-4.46m-10.37 3.12c-1.86-.23-3.71-.56-5.58-.72 2.08-1.06 4.11-2.21 6.29-3.06a24 24 0 0 1 3.21-1.07c1.7-.4 7.38-.13 4.41 3.67-1.63 2.1-6.11 1.46-8.33 1.18m-6.77-8.39h41.48S453 352 452.23 339.87c-.38-6.18-4.31-73.27-7.9-103a56.87 56.87 0 0 0-5.91-40.38h-51s.8 22 6.65 36.67a89.5 89.5 0 0 1 13.28 5.92s4.56 91.63 5.38 107.36c1.08 20.03 3.93 77.62 3.93 77.62" style="fill:#263238"/><path d="M454.1 415.86c-2.37-.36-20.43-1.1-35.53-.34-.1 0-.09.17 0 .19 4.93.51 32.74.73 35.51.36.09-.01.13-.19.02-.21M393.74 233a93 93 0 0 1 14.85 5.81.16.16 0 0 1-.11.31c-5-1.78-10.08-3.47-15-5.52a.32.32 0 0 1 .26-.6m-3.57-33.18c0-.17.3-.22.31 0a160 160 0 0 0 1.84 16.18c.38 2.49 3.27 16.2 7.55 14.92.71-.22 1-1 1.08-2.06a17.2 17.2 0 0 0-.84-4.21c-.66-2.87-1.23-5.75-1.67-8.66a79.5 79.5 0 0 1-.85-16.38.14.14 0 0 1 .28 0 150.6 150.6 0 0 0 2.74 22.51c.78 3.57 2.93 8.87-.8 9.66s-6.85-8.11-7.48-10.56a83.4 83.4 0 0 1-2.16-21.4" style="fill:#37474f"/><path d="M399.78 231.27a24 24 0 0 1 1.15 2.8 6.6 6.6 0 0 1 .56 2.33c0 .16-.21.18-.3.09a8.4 8.4 0 0 1-1.15-2.23c-.39-.87-.79-1.73-1.15-2.61a.48.48 0 0 1 .89-.38m17.22-28.1c0-.11.17-.09.18 0 .57 4.17.9 8.5 2.91 12.28 1.85 3.48 5.07 5.71 8.59 7.28a63 63 0 0 0 6.25 2.31.13.13 0 0 1 0 .25c-4-.83-8-1.76-11.5-4-3.71-2.39-5.62-6.23-6.23-10.52a37.2 37.2 0 0 1-.2-7.6m16.94-3.72c3.94 11.43 7.69 24.7 4.5 36.72 4 56.63 8.17 117.69 12.12 174.71-3.69-42-7.3-88.74-9.94-131.06q-1.46-21.88-2.78-43.78a32.4 32.4 0 0 0 1.3-9.2c0-9.34-2.21-18.59-5.2-27.39" style="fill:#37474f"/><path d="M431.07 131.94c1.74 4.43 4.21 8.45 5.59 13a30 30 0 0 1 1.16 13.06c-2.46 16.05-23.36 25.68-38 20.69-7-2.38-13.13-8.08-15-15.38-2.29-9 2.49-17.56 5.39-25.73a41.7 41.7 0 0 0 2.36-14.25c0-4.25-.26-8.57.6-12.76.62-3 2.66-11.69 13.67-15.16 7.91-2.49 15.92 1.83 19.61 9.34 4.26 8.76 1.2 18.42 4.62 27.19" style="fill:#263238"/><path d="M393.39 133.25c-3.41 7.32-7.9 14.8-9.22 22.87-1.09 6.7.72 13.95 6.55 17.93v-.08c-6.12-4.74-6.88-12.94-5.16-20 1.76-7.23 6-13.51 8.13-20.58a.19.19 0 0 0-.3-.14" style="fill:#263238"/><path d="M391.85 132.82c-2.59 9.61-10.49 17.17-11 27.38 0 .12.18.15.19 0 .67-10.2 9.45-17.44 11-27.38.02-.09-.16-.11-.19 0m39.78-1.04a33 33 0 0 1-3-11.28.19.19 0 0 0-.37 0c-.92 14.1 15.22 24.66 10.93 39.24 0 .1.12.17.15.06 2.06-6 .46-12-2.24-17.57-1.72-3.54-3.81-6.88-5.47-10.45" style="fill:#263238"/><path d="M428.36 118.4c0-.27-.42-.19-.41.07a31.6 31.6 0 0 0 5 14.82c1.4 2.19 3.12 4.16 4.48 6.38 1.49 2.44 2.63 5.06 3.89 7.62 0 .06.12 0 .1 0-1.63-4.85-4.18-8.72-7.09-12.85a34.65 34.65 0 0 1-5.97-16.04" style="fill:#263238"/><path d="M398.68 141.57c-20.51 18.08-39.57 37.91-41.15 48.13-2.2 14.15 6.47 18.17 10.37 18.25 10.63.23 30.42-42.64 37.33-59 6.7-15.95-2.05-11.35-6.55-7.38" style="fill:#eb9481"/><path d="m390.11 179.64-2.61 16.9h51.95s-4.51-37.61-16.27-55c-5.68-8.39-13.26-7.21-18.74-2-1.39 1.33-15 20.47-16.92 28.54a12.93 12.93 0 0 0 2.59 11.56" style="fill:#23c423"/><path d="M398.41 178.1a45 45 0 0 1 6.42 1.51c1 .34 2.06.73 3.07 1.14.51.21 1 .4 1.53.58a7.3 7.3 0 0 0 1.65.43c.05 0 0 .08 0 .08a12 12 0 0 1-1.6-.14 13 13 0 0 1-1.52-.39c-1.06-.34-2.1-.73-3.15-1.08-2.13-.7-4.25-1.4-6.43-1.95-.11-.02-.07-.19.03-.18m-5.53 1.58a47 47 0 0 1 5.44.1c.91.07 1.8.2 2.7.35l1.28.23c.46.09.92.25 1.39.33.05 0 0 .09 0 .08-.44-.07-.9-.06-1.35-.1l-1.35-.13-2.7-.25c-1.81-.18-3.61-.35-5.42-.47-.1 0-.09-.14.01-.14" style="fill:#263238"/><path d="M417.43 139.25c-.26 1-5.35 7.61-10.06 7.28-1.54-.12-1.3-8.52-1.3-8.52l-.13-.62-1.73-8.74 10.37-6.31 1.49-.83s.32 2.42.69 5.44c0 .14 0 .28.05.43s.05.33.06.49c.07.45.12.91.17 1.37s.08.69.11 1.06.07.73.11 1.1a56 56 0 0 1 .17 7.85" style="fill:#eb9481"/><path d="M416.76 127a17.9 17.9 0 0 1-10.82 10.44l-1.73-8.74 10.37-6.31 1.49-.83s.32 2.37.69 5.44" style="fill:#263238"/><path d="M392 117c.63 15.63 10.07 17 13.43 16.88 3.06-.13 13.46-.95 14.45-16.56s-6.5-20.24-13.51-20.32-15.02 4.39-14.37 20" style="fill:#eb9481"/><path d="M395 115.22c.36-.1.67-.24 1-.37a1.76 1.76 0 0 0 1-.57.56.56 0 0 0-.09-.67 1.4 1.4 0 0 0-1.4-.14 2 2 0 0 0-1.16.88.6.6 0 0 0 .65.87m10.7-1.05a10 10 0 0 1-1.08-.08 1.8 1.8 0 0 1-1.09-.29.57.57 0 0 1-.09-.68 1.39 1.39 0 0 1 1.31-.5 2 2 0 0 1 1.36.54.6.6 0 0 1-.41 1.01m-1.94 4.14s.09 0 .09.09c.08 1.06.36 2.27 1.36 2.51v.06c-1.21-.03-1.54-1.63-1.45-2.66" style="fill:#263238"/><path d="M404.58 117.1c1.69-.32 2.21 3.09.64 3.38s-2.06-3.11-.64-3.38" style="fill:#263238"/><path d="M405.28 117.18c.32.15.67.44 1 .42s.68-.42.9-.81h.06a1.27 1.27 0 0 1-.72 1.57c-.63.18-1.17-.33-1.44-1-.01-.04.06-.24.2-.18m-7.67 1.4s-.07.06-.06.1c.2 1 .25 2.29-.64 2.79v.06c1.15-.35 1.09-1.99.7-2.95" style="fill:#263238"/><path d="M396.5 117.63c-1.72.14-1.31 3.56.28 3.43s1.15-3.55-.28-3.43" style="fill:#263238"/><path d="M395.81 117.94c-.25.21-.48.57-.8.63s-.69-.26-1-.59h-.05c.06.66.36 1.31 1 1.36s.94-.56 1-1.23c.04-.11-.05-.26-.15-.17m8.69 8.9c-.2.3-.39.68-.76.79a2.8 2.8 0 0 1-1.18 0s-.06 0 0 .06a1.43 1.43 0 0 0 1.44.31 1.13 1.13 0 0 0 .64-1.09c-.03-.1-.11-.11-.14-.07m-4.33-1.15a4.4 4.4 0 0 0 1.83 1.21 1.94 1.94 0 0 0 1.19 0c.84-.3.8-1.08.59-1.75a5 5 0 0 0-.46-1 5.63 5.63 0 0 1-3.15 1.54" style="fill:#263238"/><path d="M402 126.9a1.94 1.94 0 0 0 1.19 0c.84-.3.8-1.08.59-1.75a2 2 0 0 0-1.78 1.75" style="fill:#ff9cbd"/><path d="M399.55 123.64s0 1.61.1 2.35c0 .07.2.08.45.06a3.55 3.55 0 0 0 3.25-1.81c.05-.08-.06-.14-.12-.08a5.42 5.42 0 0 1-3.1 1.38c-.08-.2.08-2.76 0-2.75a6.4 6.4 0 0 0-1.63.62c-.11-3.35.33-6.69.18-10a.1.1 0 0 0-.2 0 54.4 54.4 0 0 0-.66 10.79c-.01.38 1.45-.39 1.73-.56" style="fill:#263238"/><path d="M418.76 117.72c-3.25.29-4.16-7.11-4.16-7.11s-5.59-.45-8.24-3.94c0 0 1.85 3.06 4.13 4.17.39.18-10.86.22-12.8-8.2 0 0-.76 8.59-5.66 10.84-.23.1 0-7.74 1.4-9.71a16.6 16.6 0 0 1 2.9-3.08 16 16 0 0 1 11.36-4.23c6.94.28 12.16 7 13 9.89 1.61 5.65-.39 11.22-1.93 11.37" style="fill:#263238"/><path d="M410.16 111.06c-6.1.36-11.33-3-12.48-9.15a.14.14 0 0 0-.27 0c-.17 6.38 7.11 10.28 12.81 9.23.14 0 .08-.09-.06-.08m8.55 6.31c-3.46-1.34-4.33-4.59-4.93-7.92a.09.09 0 0 0-.17 0c.29 3.29 1.31 7.26 5 8.19a.15.15 0 0 0 .1-.27" style="fill:#263238"/><path d="M397.51 101.36h-.07c-.38 3.55.08 9.43-4.28 10.78a.09.09 0 0 0 0 .18c4.35-.91 5.19-7.41 4.35-10.96" style="fill:#263238"/><path d="M416.76 117.66s2.77-5.27 5.12-4.34.7 8.27-1.76 9.56a2.64 2.64 0 0 1-3.69-1Z" style="fill:#eb9481"/><path d="M421.35 115.41s.06 0 0 .07c-1.71 1-2.45 2.76-2.89 4.58a1.46 1.46 0 0 1 2.11-.67c.05 0 0 .11 0 .1a1.65 1.65 0 0 0-1.71.79 8.5 8.5 0 0 0-.67 1.55c-.06.17-.36.12-.33-.07v-.05c-.34-2.3 1.05-5.71 3.49-6.3" style="fill:#263238"/><path d="M418.44 136.76a12.1 12.1 0 0 0-5.82-1.19c-2.24.07-6.8 2.77-6.8 2.77s-5.65 20.67-2.33 20.85c4.12.22 15.43-21.59 14.95-22.43" style="fill:#eb9481"/><path d="M425.21 139.81c19.09 15 37.86 40.92 38 55.42.13 14.31-10.6 9.48-14.12 7-7.52-5.41-21.15-34.52-27.35-50.75s-1.25-15.38 3.47-11.67" style="fill:#eb9481"/><path d="M445.45 196.88c-1-1.81-2-3.59-3-5.41l-3-5.41c-2-3.62-4-7.22-5.87-10.87s-3.87-7.27-5.76-10.93q-1.43-2.73-2.77-5.51c-.94-1.84-1.78-3.71-2.65-5.59a110 110 0 0 0 4.73 11.44c1.75 3.74 3.66 7.4 5.57 11.06s4 7.23 6.08 10.78 4.3 7.06 6.67 10.44M424.44 158a18 18 0 0 0-1.18-1.87c-.22-.29-.42-.59-.65-.88s-.44-.58-.7-.87a5.8 5.8 0 0 0 .94 2 6.3 6.3 0 0 0 1.59 1.62" style="fill:#263238"/><path d="M363.51 168.75c1-6.72 3-16.09 5.44-18s11.78-8.83 14.44-9.72 14.51-5.24 16.66-4c1.73 1-.38 5.57-6 7.69a83 83 0 0 0-8.95 4.28c-1.45.61-5 5.23-4 7.3.54 1.22 4.06 2.69 6.27 1.72s2.81-5.32 5.34-7.34 7-1.73 7.21-.53-1.23 1.74-3.54 5.78c-1.49 2.6-1.66 8.88-5 13.34a78 78 0 0 0-4.65 8.24Z" style="fill:#eb9481"/><path d="M395 148.8a4.44 4.44 0 0 0 2.2-1 1.77 1.77 0 0 0 .51-.9 1.8 1.8 0 0 0 0-.56.86.86 0 0 0-.21-.54c-.05 0 0-.08 0 0a3 3 0 0 0 .2.27 2 2 0 0 1 .13.26 1.5 1.5 0 0 1 .08.55 1.77 1.77 0 0 1-.45 1.11 3 3 0 0 1-2.53.88s.07-.06.07-.07" style="fill:#263238"/><path d="M369 150.72c2.17-3.33 7.71-9.33 13.15-11.35 3.68-1.37 16.22 4.91 15.83 7.31s-2.55 2.39-5.73 2c-1.16-.15-7.28-2.42-8.34-1.14-1.53 1.83-3.51 8.15-3.51 8.15Z" style="fill:#eb9481"/><path d="M397.63 145.74c-1.53-2.6-4.94-4-8.34-5.13-.05 0-.08.06 0 .08.87.28 6.39 2.9 8.33 5.09-.01.02.02-.02.01-.04" style="fill:#263238"/><path d="M369 150.72c2.17-3.33 7.71-9.33 13.15-11.35 3.68-1.37 13.57 6.6 13.18 9s-3.49 2.57-6.9 1.34c-1.1-.4-4.78-3-5.84-1.77-1.52 1.84-5.24 6.4-5.24 6.4Z" style="fill:#eb9481"/><path d="M379.44 151.52a46 46 0 0 1 1.95-2.76 4.9 4.9 0 0 1 1.14-1.18 2.5 2.5 0 0 1 1.52-.28 8.5 8.5 0 0 1 3.24 1.48c1.12.65 3.44 1.72 5.23 1.55a3.5 3.5 0 0 0 1.41-.36 2.3 2.3 0 0 0 .85-.67c.79-1.3-.17-2.81-1.14-3.88a22.7 22.7 0 0 0-6.68-4.66c-.58-.3-1.18-.58-1.77-.86a5.3 5.3 0 0 0-2.16-.64c-1.24 0-3.28 1.21-3.92 1.59-.05 0-.08 0 0-.08.77-.47 2.68-2 4.67-1.87a6.2 6.2 0 0 1 2.08.72c.69.31 1.38.64 2.05 1a27.5 27.5 0 0 1 3.79 2.29 12 12 0 0 1 3.09 3 3.47 3.47 0 0 1 .18 3.57 3 3 0 0 1-2.26 1.18 6 6 0 0 1-1.58 0 24.6 24.6 0 0 1-3.42-1c-1.08-.45-2.05-1.19-3.16-1.54a2.12 2.12 0 0 0-1.62.09 5.7 5.7 0 0 0-1.22 1.09 16.5 16.5 0 0 0-2 2.38c-.25.13-.41.06-.27-.16" style="fill:#263238"/><path d="M367.33 153.64c.8-1.59 2.19-8.16 3.49-10.17s7.16-8.93 9.87-8.6c3.4.42-.21 6.52-2 9s-1.55 6.81-1.55 6.81Z" style="fill:#eb9481"/><path d="M381.2 139.73c-.64.8-1.21 1.68-1.77 2.53a19.5 19.5 0 0 0-1.55 2.49 9 9 0 0 0-.7 2.8 13 13 0 0 0-.07 1.42v1.56h.09a22 22 0 0 1 .4-2.82 11.4 11.4 0 0 1 .88-2.8c.81-1.78 2-3.36 2.83-5.12.04-.06-.06-.11-.11-.06m-4.05 11.7a9.8 9.8 0 0 0 .82 4.79 17 17 0 0 0 1.07 2.22 17.5 17.5 0 0 0 1.39 2 18.5 18.5 0 0 1 2.43 4 19.5 19.5 0 0 1 1.26 4.58 12.7 12.7 0 0 0-.55-4.84 15.1 15.1 0 0 0-2.34-4.33 22.4 22.4 0 0 1-2.52-4 14.6 14.6 0 0 1-1.56-4.42" style="fill:#263238"/><path d="M368.89 207.46c6.64-.89 11-12 18.55-31.52 1.33-3.42-16-24.49-18.37-21.34-3 4-11 26-11.82 32-1.65 11.85 3.89 21.91 11.64 20.86" style="fill:#eb9481"/><path d="M387.44 175.94c-2.23 7.46-4.94 14.91-9 21.58 3.05-6.91 5.92-14.69 9-21.58" style="fill:#263238"/><path d="m418.82 184.54-34.45 2.56-10.13-48.28 34.45-2.55z" style="fill:#263238"/><path d="m417.13 184.67-34.45 2.55-10.13-48.27 34.45-2.56z" style="fill:#455a64"/><path d="M390.16 160a3.73 3.73 0 0 0 3.89 3.08 3 3 0 0 0 2.81-3.58 3.75 3.75 0 0 0-3.89-3.08 3 3 0 0 0-2.81 3.58" style="fill:#fff"/><path d="M457.82 205.17c-6.4.88-13.26-1.23-33.94-16.33-2.87-2.09 6.44-26.25 9.61-24.18 4 2.61 18.93 13.62 19.92 14.56 8.35 7.95 8.75 25.36 4.41 25.95" style="fill:#eb9481"/><path d="M440.88 172s-5.89-8.26-10.33-11.65a35.8 35.8 0 0 0-15.91-6.43c-6.19-.92-21.81 1.16-22 5.77-.17 4.16 15.69 1.23 15.69 1.23s-16.66.32-15.94 5.38 18.93.6 18.93.6-17.11.71-15.54 5.81c1.18 3.85 17.91.75 17.91.75s-14.71.71-13.66 4.72c1.16 4.43 16.77 2.54 16.77 2.54 4.38 9.75 10.66 12.5 15.22 14 1.1.35 8.86-22.72 8.86-22.72" style="fill:#eb9481"/><path d="M414.08 160.41c-1.95 0-3.94-.08-5.89.06s-3.91.35-5.84.67a34.4 34.4 0 0 0-7.4 2c4.35-1.35 11.34-2 13.3-2.1s3.89-.38 5.84-.53c.05-.03.04-.1-.01-.1m.64 7.05c-2.5.06-5 0-7.49.21s-4.83.56-7.3.91c-.19 0-.11.12.08.1 2.48-.25 4.79-.28 7.28-.5s5-.53 7.44-.66c.04 0 .03-.06-.01-.06m1.64 5.95a55.7 55.7 0 0 0-11.43 1.21c-.19 0-.07.14.12.12 3.79-.48 6.76-.87 11.3-1.2.08 0 .09-.13.01-.13m7.64-16.87A33.1 33.1 0 0 1 437.45 167a158 158 0 0 1 14.83 10.91c3.73 2.85 5.94 7.19 7.19 11.64a39 39 0 0 1 1 4.48c-1.15-4.39-2.62-8.86-5.42-12.47-5.22-5.53-11.86-9.59-18-14a36.35 36.35 0 0 0-13.1-11Z" style="fill:#263238"/></g></svg>