<svg xmlns="http://www.w3.org/2000/svg" viewBox="0 0 500 500"><g id="freepik--background-complete--inject-100"><path d="M0 382.4h500v.25H0zm78.54 8.39h33.12v.25H78.54zm54.79 7.21h30.17v.25h-30.17zm-76.48 2.07H95.1v.25H56.85zm377.15-.54h15.9v.25H434zm-42.53 0h39.32v.25h-39.32zM250 390.66h30.33v.25H250zm34.67 0h72.1v.25h-72.1zM237 337.8H43.91a5.71 5.71 0 0 1-5.7-5.71V60.66a5.71 5.71 0 0 1 5.7-5.66H237a5.71 5.71 0 0 1 5.71 5.71v271.38a5.71 5.71 0 0 1-5.71 5.71M43.91 55.2a5.46 5.46 0 0 0-5.45 5.46v271.43a5.46 5.46 0 0 0 5.45 5.46H237a5.47 5.47 0 0 0 5.46-5.46V60.66A5.47 5.47 0 0 0 237 55.2Zm409.4 282.6h-193.1a5.72 5.72 0 0 1-5.71-5.71V60.66a5.72 5.72 0 0 1 5.71-5.66h193.1a5.71 5.71 0 0 1 5.69 5.66v271.43a5.71 5.71 0 0 1-5.69 5.71M260.21 55.2a5.47 5.47 0 0 0-5.46 5.46v271.43a5.47 5.47 0 0 0 5.46 5.46h193.1a5.47 5.47 0 0 0 5.46-5.46V60.66a5.47 5.47 0 0 0-5.46-5.46Z" style="fill:#ebebeb"/><path d="M175.67 382.4h-4a90 90 0 0 1 1.51-12.94c3.18-19.91 8-50-16.88-84.29-14.72-20.29-29.94-50.25-18.82-77.71C147.7 182.22 178.15 165 228 156.24c71.36-12.53 114-33.73 123.24-61.24 5.72-17-1.47-36.52-21.37-57.93l2.93-2.72c21 22.56 28.45 43.4 22.23 61.92-9.75 29-53.44 51.15-126.35 64-48.39 8.5-77.83 24.91-87.49 48.78-10.43 25.76 4.22 54.39 18.35 73.87 25.85 35.64 20.68 67.95 17.59 87.26a87 87 0 0 0-1.46 12.22" style="fill:#f5f5f5"/><path d="M144.45 198.71c11.39-17.6 11.28-38.72 1-54.35-25.56 22.83-1 54.35-1 54.35m82.46-40.1c24.56-9.86 50.7-4.62 67.56 12-34.47 26.04-67.56-12-67.56-12m170.86-91.85c-8.82 18.91-26.69 30-45.33 29.53 5.77-33.58 45.33-29.53 45.33-29.53M166.49 297.73c-9.58-12.31-10.85-28-4.2-40.23 20.38 15.28 4.2 40.23 4.2 40.23M341.41 47.24c-15.6.22-28.88-8.2-34.65-20.89 24.48-7.06 34.65 20.89 34.65 20.89m74.48 335.16h-2.68c0-9.63-8.15-15.28-16.78-21.26-11.43-7.94-24.43-16.95-14.76-36.81 4.68-9.59 12.36-17 19.79-24.17 18.52-17.88 34.52-33.32.2-76.22-31.05-38.82-43.25-69.36-35.28-88.32 5.09-12.1 18.11-19.28 38.7-21.34l.26 2.68c-19.53 2-31.8 8.58-36.48 19.7-7.57 18 4.5 47.6 34.9 85.6 35.85 44.82 18.22 61.83-.44 79.84-7.26 7-14.77 14.25-19.23 23.41-8.67 17.79 2.28 25.38 13.87 33.42 8.82 6.07 17.93 12.44 17.93 23.47" style="fill:#f5f5f5"/><path d="M419 282.58c2.08-13.93 11.51-24.52 23.65-27.81 2.72 22.83-23.65 27.81-23.65 27.81m-15.75-58.65c-8-15.87-23.5-24.83-39.35-24 5.77 28.47 39.35 24 39.35 24m-45.32-122.14c-3.95 13.45.14 27 9.73 35 12-19.47-9.73-35-9.73-35m23.9 225.72c5.61-8.85 5.46-19.4.23-27.17-12.64 11.53-.23 27.17-.23 27.17M395 117c7.76 7 18.19 8.69 26.73 4.85C412.53 107.41 395 117 395 117M240.43 382.4h-2.89c0-10.37-8.78-16.46-18.08-22.91-12.34-8.55-26.32-18.25-15.89-39.65 5-10.32 13.3-18.31 21.3-26 20-19.26 37.2-35.9.23-82.11-33.46-41.82-46.6-74.72-38-95.15 5.48-13 19.51-20.76 41.69-23l.28 2.88c-21 2.1-34.26 9.25-39.3 21.22-8.15 19.39 4.85 51.28 37.6 92.22 38.62 48.28 19.63 66.6-.48 86-7.82 7.55-15.9 15.35-20.71 25.22-9.34 19.17 2.45 27.35 14.94 36 9.49 6.58 19.31 13.39 19.31 25.28" style="fill:#f5f5f5"/><path d="M243.78 274.87c2.23-15 12.39-26.41 25.47-30 2.93 24.63-25.47 30-25.47 30m-16.97-63.18c-8.62-17.1-25.32-26.75-42.4-25.82 6.23 30.63 42.4 25.82 42.4 25.82M178 80.11c-4.25 14.49.15 29 10.49 37.72C201.4 96.84 178 80.11 178 80.11m25.74 243.16c6-9.53 5.87-20.9.24-29.27-13.62 12.42-.24 29.27-.24 29.27m14.18-226.8c8.36 7.58 19.59 9.36 28.79 5.23-9.91-15.54-28.79-5.23-28.79-5.23" style="fill:#f5f5f5"/><path d="m82.23 117.33 18.28 18.28s-3.86 25.67-11.83 18-6.27-12.31-6.27-12.31-15.53 8.7-20.48-9.04 20.3-14.93 20.3-14.93" style="fill:#ebebeb"/><path d="m82.23 117.33 18.28 18.28s25.68-3.86 18-11.83-12.3-6.27-12.3-6.27S114.86 102 97.16 97s-14.93 20.33-14.93 20.33" style="fill:#fafafa"/><circle cx="81.04" cy="116.14" r="2.88" style="fill:#e0e0e0"/><path d="M101.76 136.85a2 2 0 0 1-2.84 0l-18.29-19.46 1.67-1.67L101.71 134a2 2 0 0 1 .05 2.85" style="fill:#e0e0e0"/><path d="m428 164.7-9 17.12s-19.21 2.91-15.51-4.48 7.42-7.2 7.42-7.2-9.6-9.21 2-16.66S428 164.7 428 164.7" style="fill:#fafafa"/><path d="m428 164.7-9 17.12s8.44 17.5 12.45 10.28 1.76-10.18 1.76-10.18 13 2.73 12.65-11S428 164.7 428 164.7" style="fill:#f0f0f0"/><path d="M430.51 164.6a2.16 2.16 0 1 1-.9-2.92 2.15 2.15 0 0 1 .9 2.92" style="fill:#e0e0e0"/><path d="M418.37 183a1.48 1.48 0 0 1-.6-2l9.85-17.37 1.56.83-8.79 17.92a1.48 1.48 0 0 1-2.02.62" style="fill:#e0e0e0"/><path d="m167.87 47.68-6.32 12s-13.44 2-10.85-3.13 5.19-5 5.19-5-6.72-6.44 1.37-11.65 10.61 7.78 10.61 7.78" style="fill:#fafafa"/><path d="m167.87 47.68-6.32 12s5.9 12.25 8.71 7.2 1.23-7.13 1.23-7.13 9.11 1.91 8.85-7.71-12.47-4.36-12.47-4.36" style="fill:#f0f0f0"/><path d="M169.62 47.6a1.51 1.51 0 1 1-.63-2 1.51 1.51 0 0 1 .63 2" style="fill:#e0e0e0"/><path d="M161.12 60.46a1 1 0 0 1-.42-1.46l6.89-12.15 1.09.57L162.54 60a1 1 0 0 1-1.42.46" style="fill:#e0e0e0"/></g><g id="freepik--Shadow--inject-100"><ellipse id="freepik--path--inject-100" cx="250" cy="416.24" rx="193.89" ry="11.32" style="fill:#f5f5f5"/></g><g id="freepik--Head--inject-100"><path d="M371.37 184.33c27.05-70.41-37.54-135.5-120.79-112.11-36.92 10.37-51.17 46-59.94 84.82-5.26 9.94-16.11 27.77-31.28 39.07a8.82 8.82 0 0 0-.43 13.82c6.61 5.56 14.85 7.69 19.78 8.49-1.35 6.25-2.81 12.24-4.48 17.85-10.83 36.5 20.39 55.28 55.6 58.83a132 132 0 0 1 1.94 35.37c-1.21 15.58 13 27.91 28.33 24.82l69-13.93a23.68 23.68 0 0 0 18.93-25.24 564.6 564.6 0 0 1-.16-89.87c7.99-9.44 15.77-21.83 23.5-41.92" style="fill:#407bff"/><path d="M371.37 184.33c27.05-70.41-37.54-135.5-120.79-112.11-36.92 10.37-51.17 46-59.94 84.82-5.26 9.94-16.11 27.77-31.28 39.07a8.82 8.82 0 0 0-.43 13.82c6.61 5.56 14.85 7.69 19.78 8.49-1.35 6.25-2.81 12.24-4.48 17.85-10.83 36.5 20.39 55.28 55.6 58.83a132 132 0 0 1 1.94 35.37c-1.21 15.58 13 27.91 28.33 24.82l69-13.93a23.68 23.68 0 0 0 18.93-25.24 564.6 564.6 0 0 1-.16-89.87c7.99-9.44 15.77-21.83 23.5-41.92" style="fill:#fff;opacity:.6"/><path d="M378.08 415H207.66a9.94 9.94 0 0 1-9.51-12.84l19.56-64a10 10 0 0 1 6.22-6.48l125.64-44a9.93 9.93 0 0 1 13 7.12l25.23 108a9.94 9.94 0 0 1-9.72 12.2" style="fill:#407bff"/><path d="M268.68 91.87a15 15 0 0 0-24.83 8.79 12.28 12.28 0 0 0-15.52 6l13.39 5.69a8.35 8.35 0 1 0 13.44 5.7l14.71 6.25 6.25-14.71a8.34 8.34 0 0 1-8.26-4.45 8 8 0 0 1-.42-1c-.11-.3-.2-.6-.28-.91a8.3 8.3 0 0 1-.24-1.93s0 0 0-.07a8.5 8.5 0 0 1 .67-3.25 8.34 8.34 0 0 1 14.25-1.88l4.1-9.65a16.07 16.07 0 0 0-17.25 5.34Z" style="fill:#fff"/><path d="M261.23 155a8.26 8.26 0 0 0 4.52.56 8.33 8.33 0 0 0-1.34-16.56 7 7 0 0 0-.78 0l6.24-14.71-14.71-6.25a8.27 8.27 0 0 1-.61 4.13 8.35 8.35 0 1 1-12.83-9.83l-13.39-5.69a12.27 12.27 0 0 0 2.17 14 15 15 0 0 0-8.67 23l.22.29a15.1 15.1 0 0 0 5.41 4.6c6.27 3.81 16.27 7 28 9.58l2.44-5.73a8.25 8.25 0 0 0 3.33 2.61" style="opacity:.1"/><path d="M328.82 115a8.35 8.35 0 0 1 5 6.44 9 9 0 0 1 .1 1.18v.08a8.35 8.35 0 0 1-14.92 5.13l-6.24 14.7 14.71 6.24a8.35 8.35 0 1 0 13.44 5.71l13.49 5.73a12.32 12.32 0 0 0-7.14-15.63 15 15 0 0 0-12.34-23.27 16.06 16.06 0 0 0-5.17-12.94 16 16 0 0 0-1.87-1.46l-3.17 7.47a8.3 8.3 0 0 1 4.11.62" style="fill:#fff"/><path d="M278.52 93.64a8.35 8.35 0 0 0-10.94 4.42 8.5 8.5 0 0 0-.67 3.25s0 0 0 .07a8.3 8.3 0 0 0 .24 1.93c.08.31.17.61.28.91a8 8 0 0 0 .42 1 8.34 8.34 0 0 0 8.26 4.45l-6.25 14.71 14.7 6.25a9 9 0 0 1 0-2 .2.2 0 0 1 0-.07v-.13a8.32 8.32 0 0 1 9.63-6.88 8 8 0 0 1 1.86.54 8.35 8.35 0 0 1 4.52 10.91 8.3 8.3 0 0 1-1.78 2.63 10 10 0 0 1-.76.68l14.71 6.24 6.24-14.7a8.35 8.35 0 0 0 14.92-5.13v-.08a9 9 0 0 0-.1-1.18 8.31 8.31 0 0 0-9.11-7l3.17-7.47a16 16 0 0 0-7.8-2.72 17.79 17.79 0 0 0-25.65-11.5 16.12 16.12 0 0 0-8.48-6.17l-4.1 9.65a8.34 8.34 0 0 0-3.31-2.61" style="opacity:.1"/><path d="M340.27 158.62a8.35 8.35 0 1 1-12.82-9.84l-14.71-6.24-6.25 14.71c-.16-.21-.35-.4-.53-.6a8.1 8.1 0 0 0-2.78-1.94 8.35 8.35 0 0 0-7.29 15c.24.13.5.26.76.37a8.4 8.4 0 0 0 4.13.62l-2.31 5.43a13.62 13.62 0 0 0 10.14-1.72 14 14 0 0 0 1.79-1.33 17.6 17.6 0 0 0 2.32 5.94 17.93 17.93 0 0 0 33.11-11 12.31 12.31 0 0 0 8.55-7.8l-13.49-5.73a8.4 8.4 0 0 1-.62 4.13" style="opacity:.1"/><g style="opacity:.2"><path d="m327.26 363.52.67 25.29h41.92l-.67-25.29zm41.18-27.59h-41.92l.67 25.29h41.93z" style="fill:none"/></g></g><g id="freepik--character-1--inject-100"><path d="m88.13 308 .17-2.48a2.55 2.55 0 0 0-.94-2.26l-3-2.23a4.25 4.25 0 0 0-4.38-.28l-1 .44c-.54 4.15 1.61 8.58 1.61 8.58l.48 1.36a1.84 1.84 0 0 0 2.77 1l2.64-1.46a3.42 3.42 0 0 0 1.65-2.67" style="fill:#b55b52"/><path d="m83.71 299 1.54 1.25a89 89 0 0 1-7.81 6.08 18 18 0 0 0-1.91-1.62Z" style="fill:#263238"/><path d="M89.58 258.38c-.57.73-1.28 1.71-1.9 2.6s-1.28 1.83-1.9 2.75c-1.23 1.86-2.42 3.74-3.51 5.62a63 63 0 0 0-2.92 5.65 27 27 0 0 0-1.8 5l.09-1.72a6 6 0 0 0 .19 1.61 23 23 0 0 0 .69 2.41 57 57 0 0 0 2.18 5.4c.84 1.84 1.78 3.69 2.76 5.53s2 3.72 3 5.39l-12.2 8.05c-1.41-2-2.63-3.91-3.87-5.92s-2.41-4-3.55-6.12a73 73 0 0 1-3.21-6.71c-.49-1.21-1-2.47-1.38-3.87a24.3 24.3 0 0 1-.95-4.91l-.06-.7.15-1a42.2 42.2 0 0 1 2.33-8.73 80 80 0 0 1 3.28-7.46c1.15-2.35 2.37-4.62 3.64-6.84.63-1.11 1.28-2.22 2-3.31s1.31-2.13 2.12-3.35Z" style="fill:#407bff"/><path d="M89.58 258.38c-.57.73-1.28 1.71-1.9 2.6s-1.28 1.83-1.9 2.75c-1.23 1.86-2.42 3.74-3.51 5.62a63 63 0 0 0-2.92 5.65 27 27 0 0 0-1.8 5l.09-1.72a6 6 0 0 0 .19 1.61 23 23 0 0 0 .69 2.41 57 57 0 0 0 2.18 5.4c.84 1.84 1.78 3.69 2.76 5.53s2 3.72 3 5.39l-12.2 8.05c-1.41-2-2.63-3.91-3.87-5.92s-2.41-4-3.55-6.12a73 73 0 0 1-3.21-6.71c-.49-1.21-1-2.47-1.38-3.87a24.3 24.3 0 0 1-.95-4.91l-.06-.7.15-1a42.2 42.2 0 0 1 2.33-8.73 80 80 0 0 1 3.28-7.46c1.15-2.35 2.37-4.62 3.64-6.84.63-1.11 1.28-2.22 2-3.31s1.31-2.13 2.12-3.35Z" style="fill:#fff;opacity:.7000000000000001"/><path d="m138.39 397.53-10.63 2.19 5.36 12.03 8.89-1.82z" style="fill:#b55b52"/><path d="m138.39 397.53-10.64 2.2 3.01 6.73 9.66-1.98z" style="opacity:.2"/><path d="M113.58 359.73c-5.3-16.47-18-33-17-49.26l35.41-.09s2.31 32.8 3.51 48c1.25 15.76 5.2 43.4 5.2 43.4l-12 3.22s-16.04-27.63-15.12-45.27m20.11 56.2 2.77-.73.24-1.06 1.59.58a29.85 29.85 0 0 0 14.16-4.79 7.25 7.25 0 0 0-2.21-2.64s-4.12 1-6.86.24a1.82 1.82 0 0 0-1.34.09c-1.71.84-6.3 2.91-9.47 2.63a.4.4 0 0 0-.41.55 33.6 33.6 0 0 1 1.53 5.13" style="fill:#263238"/><path d="m96.42 399.02-10.88.11.52 12.83 9.09-.07z" style="fill:#b55b52"/><path d="m96.42 399.03-10.88.1.29 7.19 9.88-.09z" style="opacity:.2"/><path d="M84.59 355.6c-.88-16.48-10.08-33.89-5.65-44.46l33.89-.76s-.32 31.83-3.84 47C105.33 373.21 96.73 404 96.73 404H84.97s-4.8-29.61-.38-48.4" style="fill:#263238"/><path d="M110.89 227.76c1.19 1.15 2 .46 1.93-1.12a3.13 3.13 0 0 1-.5 5.37c-2.22 1.26-4.72.55-5.59-.81l-.34-4.65c1.69-.86 2.71-.5 4.5 1.21" style="fill:#e0e0e0"/><path d="m105.93 222.72 1.77 4.55a4.15 4.15 0 0 0 2.61-1.46 10.2 10.2 0 0 0-4.38-3.09" style="fill:#a02724"/><path d="M106.24 221.83c.21.54.67.86 1 .71s.47-.69.25-1.23-.67-.86-1-.72-.49.7-.25 1.24" style="fill:#263238"/><path d="M107.64 225.78a2.8 2.8 0 0 1-1.09-.24 5.54 5.54 0 0 1-2.73-3.1c-1-2.41-.42-4.9 1.19-5.56a2.48 2.48 0 0 1 1.99.12 5.54 5.54 0 0 1 2.73 3.1c1 2.41.42 4.9-1.19 5.56a2.2 2.2 0 0 1-.9.12m-1.78-8.57a1.9 1.9 0 0 0-.66.13c-1.36.56-1.77 2.76-.91 4.91a5 5 0 0 0 2.46 2.83 2 2 0 0 0 1.55.07c1.36-.56 1.77-2.76.91-4.91a5 5 0 0 0-2.46-2.83 2.3 2.3 0 0 0-.89-.2" style="fill:#263238"/><path d="M106.3 219.42a.32.32 0 0 1-.31 0 2.69 2.69 0 0 0-2.42-.43.34.34 0 0 1-.44-.19.35.35 0 0 1 .19-.45 3.38 3.38 0 0 1 3.06.52.33.33 0 0 1 .08.47.28.28 0 0 1-.16.08" style="fill:#263238"/><path d="M87 227c3 6.47 5.25 10.79 10.2 12.06 9.85 2.52 13-2.92 12-10.18-1-6.53-5.77-16-13.29-16A9.84 9.84 0 0 0 87 227" style="fill:#b55b52"/><path d="M108.68 243.56a6.38 6.38 0 0 0-3.05-2.89 5.9 5.9 0 0 1-.1-4L90.63 232c1.2 4.92 2.14 8.82.31 11.21 2.93 1.78 8.3 5 14.15 4.83s4.54-2.42 3.59-4.48" style="fill:#b55b52"/><path d="M88.32 242.68c-.89-2.84.46-3.22.46-3.22s9.21-2.21 17.75 0 3.4 5.3 3.4 5.3Z" style="fill:#263238"/><path d="M103.44 226.1c.94-2.19 1-6.6-.84-8.8a1.84 1.84 0 0 1-.72 1.5c-.47-.7-3.39-2.65-7.5-2.56a2.5 2.5 0 0 1 .83 1s-6.44-1.07-9.92 1.56c0 0 .74 1 .2 1.66-1.27.72-1.79 1.61-1.28 4.54s4 8.06 7.39 11.26c6.34.36 9.73-2.23 9.73-2.23s3.67-3.83 2.11-7.93" style="fill:#e0e0e0"/><path d="M100.36 225.25h-.06a.24.24 0 0 1-.18-.3c.4-1.56 2.48-3.05 3.83-3.6 2-.85 5.13-2 5.16-2a.25.25 0 0 1 .17.47s-3.11 1.14-5.14 2c-1.22.5-3.18 1.88-3.54 3.26a.26.26 0 0 1-.24.17" style="fill:#263238"/><path d="M99.5 226.29a6.76 6.76 0 0 0 3 3.7c1.78.93 2.77-1 2.37-3.16-.36-2-1.71-4.88-3.54-4.87s-2.57 2.28-1.83 4.33" style="fill:#b55b52"/><path d="M113.44 243.11a137.5 137.5 0 0 0-30.24.48 10.2 10.2 0 0 0-8.49 12.15c4.7 23.68 2.38 52.21 2.87 56.89 0 0 29.56 7.28 56-.65 3.09-29-7.31-53.08-12.06-63.1a10.16 10.16 0 0 0-8.08-5.77M84.72 415.93h2.36l.6-1 1.28 1h15.21a6.54 6.54 0 0 0-.75-3.27s-5.21-.39-6.94-2.51a.55.55 0 0 0-.54-.22c-1.4.3-7 1.37-10.16.25a.49.49 0 0 0-.68.47 34.6 34.6 0 0 1-.38 5.28" style="fill:#263238"/><path d="M119.34 244.16c-12.27-6.46-36.45-3.73-41.79.17-10.19 7.45-.9 31.6-.82 54.65s-1.09 49.07-1.09 77.71c24.87 19 67.78-1.35 67.78-1.35s.58-118.18-24.08-131.18" style="fill:#407bff"/><path d="M119.34 244.16c-12.27-6.46-36.45-3.73-41.79.17-10.19 7.45-.9 31.6-.82 54.65s-1.09 49.07-1.09 77.71c24.87 19 67.78-1.35 67.78-1.35s.58-118.18-24.08-131.18" style="fill:#fff;opacity:.8"/><path d="m128.72 256.77-9.55 1.71a46.3 46.3 0 0 0 12.25 5.82 80 80 0 0 0-2.7-7.53" style="fill:#407bff;opacity:.2"/><path d="m160.52 225.52-2.41.63a2.53 2.53 0 0 0-1.83 1.61l-1.14 3.6a4.26 4.26 0 0 0 1.14 4.24l.72.76c4.1-.83 7.61-4.29 7.61-4.29l1.14-.88a1.85 1.85 0 0 0 .08-3l-2.22-2a3.41 3.41 0 0 0-3.09-.67" style="fill:#b55b52"/><path d="m152 232.17 1.8-1.94a100 100 0 0 1 9.19 6.48 19 19 0 0 0-1.22 2.61Z" style="fill:#263238"/><path d="M113.82 242.18c2 .38 4.19.75 6.29 1.09s4.23.68 6.33 1c4.21.62 8.43 1.17 12.44 1.49l-1.73.12c-.32.11 0 .09.54-.18a11.4 11.4 0 0 0 1.83-1.21 37 37 0 0 0 4.23-3.93c1.42-1.49 2.81-3.12 4.16-4.8.67-.84 1.34-1.7 2-2.56s1.31-1.79 1.85-2.55l12.34 7.84c-.73 1.19-1.35 2.16-2.05 3.22s-1.38 2.06-2.1 3.07c-1.43 2-2.94 4-4.6 6a53 53 0 0 1-5.64 5.87 28.3 28.3 0 0 1-3.8 2.86 17.6 17.6 0 0 1-5.89 2.42l-.61.13h-1.11c-4.73 0-9.22-.28-13.7-.59q-3.36-.24-6.69-.53c-2.24-.2-4.42-.41-6.71-.65Z" style="fill:#407bff"/><path d="M113.82 242.18c2 .38 4.19.75 6.29 1.09s4.23.68 6.33 1c4.21.62 8.43 1.17 12.44 1.49l-1.73.12c-.32.11 0 .09.54-.18a11.4 11.4 0 0 0 1.83-1.21 37 37 0 0 0 4.23-3.93c1.42-1.49 2.81-3.12 4.16-4.8.67-.84 1.34-1.7 2-2.56s1.31-1.79 1.85-2.55l12.34 7.84c-.73 1.19-1.35 2.16-2.05 3.22s-1.38 2.06-2.1 3.07c-1.43 2-2.94 4-4.6 6a53 53 0 0 1-5.64 5.87 28.3 28.3 0 0 1-3.8 2.86 17.6 17.6 0 0 1-5.89 2.42l-.61.13h-1.11c-4.73 0-9.22-.28-13.7-.59q-3.36-.24-6.69-.53c-2.24-.2-4.42-.41-6.71-.65Z" style="fill:#fff;opacity:.8"/></g><g id="freepik--character-2--inject-100"><path d="m368 318 .42 15.6h-41.96l-.68-25.29h39.92l-.54-2.29h-39.44l-.67-25.29h21.24v-2.3H325l-.64-23.86h-3.41L325.21 415h3.42l-.63-23.89h41.92l.64 23.85H374l-2.14-80.43Zm-41.44 17.9h41.92l.67 25.29h-41.96Zm1.41 52.88-.67-25.29h41.92l.67 25.29Z" style="opacity:.2"/><path d="M396.22 422.8h3.42l-29.22-168.2H367l4.34 25h-41.91l-4.34-25h-3.42l29.22 168.2h3.41l-4.34-25h41.92Zm-14.39-82.89 4.6 26.52h-41.92l-4.6-26.52Zm-42.34-2.42L334.88 311h41.92l4.61 26.52ZM371.77 282l4.61 26.53h-41.92L329.85 282Zm-22.23 113.37-4.61-26.53h41.92l4.61 26.53Z" style="fill:#263238"/><path d="m376.76 224.23-.63-2.11a2.56 2.56 0 0 1 .42-2.31l2.36-3.06a4.77 4.77 0 0 1 4-1.85h1c1.3 3.42.18 8.08.18 8.08l-.17 1.36a2.13 2.13 0 0 1-2.35 1.91l-2.71-.3a2.47 2.47 0 0 1-2.1-1.72" style="fill:#7f3e3b"/><path d="m380.12 214.82-1.12 1.67a89 89 0 0 0 9.41 3.83 18 18 0 0 1 1.44-2.14Z" style="fill:#fff"/><path d="M372.5 164.53c1.84 1.6 3.56 3.15 5.3 4.76s3.46 3.22 5.16 4.88a138 138 0 0 1 10 10.62l.53.64.25.49a16.3 16.3 0 0 1 1.66 5.81 28.6 28.6 0 0 1 .08 4.68 54.6 54.6 0 0 1-1.19 8.14c-.55 2.58-1.22 5.07-2 7.52s-1.52 4.81-2.46 7.34l-11-3.95c.66-2.06 1.32-4.38 1.87-6.58s1-4.47 1.41-6.66a43 43 0 0 0 .64-6.31 15.5 15.5 0 0 0-.16-2.6 2.66 2.66 0 0 0-.35-1.15l.79 1.13a126 126 0 0 0-9.49-9c-1.69-1.47-3.41-2.91-5.15-4.34s-3.52-2.86-5.23-4.19Z" style="fill:#407bff"/><path d="M372.5 164.53c1.84 1.6 3.56 3.15 5.3 4.76s3.46 3.22 5.16 4.88a138 138 0 0 1 10 10.62l.53.64.25.49a16.3 16.3 0 0 1 1.66 5.81 28.6 28.6 0 0 1 .08 4.68 54.6 54.6 0 0 1-1.19 8.14c-.55 2.58-1.22 5.07-2 7.52s-1.52 4.81-2.46 7.34l-11-3.95c.66-2.06 1.32-4.38 1.87-6.58s1-4.47 1.41-6.66a43 43 0 0 0 .64-6.31 15.5 15.5 0 0 0-.16-2.6 2.66 2.66 0 0 0-.35-1.15l.79 1.13a126 126 0 0 0-9.49-9c-1.69-1.47-3.41-2.91-5.15-4.34s-3.52-2.86-5.23-4.19Z" style="fill:#fff;opacity:.7000000000000001"/><path d="M361.57 149.87c-.85 3.9-1.77 11.06.9 13.66 0 0-3.73-.56-11.32 4.3-2.45-3.26-.81-4.3-.81-4.3 4.37-1 4.33-4.27 3.64-7.3Z" style="fill:#7f3e3b"/><path d="M347.23 143.34c-.1.52-.45.9-.79.85s-.54-.53-.44-1.06.45-.9.79-.84.54.53.44 1.05m-.31-3.42a.36.36 0 0 1-.21-.11.31.31 0 0 1 .07-.43 3.22 3.22 0 0 1 2.83-.57.29.29 0 0 1 .19.39.32.32 0 0 1-.4.19 2.59 2.59 0 0 0-2.24.47.28.28 0 0 1-.24.06" style="fill:#263238"/><path d="M346.83 144.31a14.7 14.7 0 0 1-2.48 3 2.23 2.23 0 0 0 1.79.66Z" style="fill:#630f0f"/><path d="m346.94 142.34-1.19-.57s.46 1.09 1.19.57" style="fill:#263238"/><path d="M364.82 144.29c-1.44 6.17-1.91 8.81-5.63 11.49-5.6 4-12.94.94-13.39-5.52-.41-5.82 2-14.92 8.6-16.4a8.66 8.66 0 0 1 10.42 10.43" style="fill:#7f3e3b"/><path d="M350.34 145.05c-1.68-.4-.69-5.34 0-6.36-3.37-.95-5.95-3.68-2.1-6.3s7.21-3.6 8.95-2.44c1.05-3 7.87-1.65 11.21 3.69 3.17 5.05.7 9.09-1.57 9.26 3.6 3-1.1 8.77-5.17 9.93-.23 4-7.14 4.18-10.27 1.16s-1.05-8.94-1.05-8.94" style="fill:#263238"/><path d="M353.08 146.08a4.13 4.13 0 0 1-2.28 2.62c-1.39.54-2.29-1.06-2.07-2.78.2-1.55 1.15-3.7 2.63-3.49s2.21 2.1 1.72 3.65" style="fill:#7f3e3b"/><path d="M395.78 330.57c4.08-2.58 3.43-3.63 5.67-5.16 1.92-1.31 2.56-1.36 4.12-2.39 1.3-.86.38-2.14-1-3.38-.71-.63-1.64-1.35-2.73-2.39l-6.2 3.92c.26 2.2-.28 5.67-2.37 7.44s.88 2.99 2.51 1.96m-51.71 6.92c6.94 0 6.49-.21 9.22-.26 2 0 1.45.26 5.17.26 1.57 0 1.71-1.77 1.13-3.1a23 23 0 0 1-1.55-3.62h-6.71c-1.19 2.13-4.48 3.7-8.17 4-2.63.16-1.04 2.72.91 2.72" style="fill:#263238"/><path d="M342.11 204.91s-.78 35 1.42 57.22c0 20.86 7.81 68.64 7.81 68.64.16 1.07 5.76.64 6.7 0 0 0 4.28-35-.56-68.83 11.46-35.3 10.57-57 10.57-57Z" style="fill:#263238"/><path d="M349.09 204.91s13.44 39.5 19.07 58.9c5.9 20.37 20.45 45.41 27.46 57.36 1.33 0 4.72-2.12 6.2-3.92-7.61-13.51-7.82-32.44-19.41-52.54.11-48.25-7.77-59.8-7.77-59.8Z" style="fill:#263238"/><path d="M393.55 319.07a21 21 0 0 1 1.36 2.5.6.6 0 0 0 .79.33 26.3 26.3 0 0 0 6.36-4.53.56.56 0 0 0 .11-.65l-1.17-2.44a.6.6 0 0 0-.86-.26l-6.48 4.28a.55.55 0 0 0-.11.77" style="fill:#407bff"/><path d="M393.55 319.07a21 21 0 0 1 1.36 2.5.6.6 0 0 0 .79.33 26.3 26.3 0 0 0 6.36-4.53.56.56 0 0 0 .11-.65l-1.17-2.44a.6.6 0 0 0-.86-.26l-6.48 4.28a.55.55 0 0 0-.11.77" style="fill:#fff;opacity:.30000000000000004"/><path d="M350.24 328.28c0 .73.05 2 0 3a.6.6 0 0 0 .56.61 40.4 40.4 0 0 0 7.39-.44.55.55 0 0 0 .46-.47l.36-2.62a.61.61 0 0 0-.61-.68l-7.65.07a.56.56 0 0 0-.51.53" style="fill:#407bff"/><path d="M350.24 328.28c0 .73.05 2 0 3a.6.6 0 0 0 .56.61 40.4 40.4 0 0 0 7.39-.44.55.55 0 0 0 .46-.47l.36-2.62a.61.61 0 0 0-.61-.68l-7.65.07a.56.56 0 0 0-.51.53" style="fill:#fff;opacity:.30000000000000004"/><path d="M339 173.46c.06 2.63.13 5.95.82 12.22.48 5.31 1.12 10.53 2.34 19.23h32.53c-.93-7.52-5.16-16.1-1.25-33a6.58 6.58 0 0 0-5.75-8.1c-1.06-.1-2.19-.19-3.34-.25a101.5 101.5 0 0 0-13.29 0c-1.32.12-2.67.29-4 .47a9.42 9.42 0 0 0-8.06 9.43" style="fill:#407bff"/><path d="M285.11 195a13.4 13.4 0 0 0 3.31 2.74A13.57 13.57 0 0 0 299 199.1l-.48-5.88a8.34 8.34 0 0 1-3.94 1.37 8 8 0 0 1-.85 0 8.34 8.34 0 1 1 2.85-16.23l.74.28-1.32-15.91-16 1.27a10 10 0 0 0 .37-.95 8.5 8.5 0 0 0 .34-3.16 8.35 8.35 0 0 0-9-7.63 9 9 0 0 0-1.9.39 8.3 8.3 0 0 0-5.32 10.57 1 1 0 0 0 0 .13.14.14 0 0 0 0 .06 8 8 0 0 0 .9 1.79l-15.93 1.31 1.31 15.93c.22-.15.45-.27.68-.4a8.34 8.34 0 1 1 .52 14.95l.51 6.2c5.77-1.57 11.85-3.45 18.07-5.55a13.64 13.64 0 0 0 14.56-2.64" style="fill:#fff"/><path d="m291.75 173.19 2.17-.39a2.54 2.54 0 0 1 2.24.68l2.77 2.7a4.8 4.8 0 0 1 1.39 4.16l-.15.95c-3.55.89-8-.76-8-.76l-1.34-.33a2.14 2.14 0 0 1-1.63-2.55l.62-2.65a2.44 2.44 0 0 1 1.93-1.81" style="fill:#7f3e3b"/><path d="m300.71 177.61-1.53-1.35a92 92 0 0 0-4.89 8.91 19 19 0 0 1 2 1.67Z" style="fill:#fff"/><path d="M347.73 162.18c-7 1-11.57 5.8-12.23 21.49a330 330 0 0 0 1.19 35.24c-1 28.34-2.66 68.18 2.26 81.47 17.85 6.62 46.87-2.68 60.43-9.53-4.39-10-13.43-44.52-17.61-71.67-2.19-14.27-4.89-36.33-5.53-45.44s-5.38-10.94-9.9-11.85-11.1-.77-18.61.29" style="fill:#407bff"/><path d="M347.73 162.18c-7 1-11.57 5.8-12.23 21.49a330 330 0 0 0 1.19 35.24c-1 28.34-2.66 68.18 2.26 81.47 17.85 6.62 46.87-2.68 60.43-9.53-4.39-10-13.43-44.52-17.61-71.67-2.19-14.27-4.89-36.33-5.53-45.44s-5.38-10.94-9.9-11.85-11.1-.77-18.61.29" style="fill:#fff;opacity:.8"/><path d="M335.5 183.65c-.09 2.12-.12 5.15-.08 8.72 5.56-4.6 8.1-12.36 8.1-12.36Z" style="fill:#407bff;opacity:.2"/><path d="M350.76 176.15c-1.74 1.64-3.4 3.14-5.12 4.67s-3.46 3-5.23 4.49a123 123 0 0 1-11.35 8.53l-.71.45-.51.19a16.3 16.3 0 0 1-6 1 27.5 27.5 0 0 1-4.66-.47 54.5 54.5 0 0 1-8-2.11c-2.5-.85-4.89-1.8-7.25-2.82s-4.6-2.06-7-3.29l5.19-10.43c2 .89 4.2 1.82 6.32 2.62s4.32 1.55 6.46 2.17a42 42 0 0 0 6.19 1.37 15.3 15.3 0 0 0 2.6.14 3 3 0 0 0 1.19-.21l-1.22.65a109 109 0 0 0 9.53-8.12c1.57-1.46 3.12-3 4.65-4.49s3.07-3.1 4.48-4.6Z" style="fill:#407bff"/><path d="M350.76 176.15c-1.74 1.64-3.4 3.14-5.12 4.67s-3.46 3-5.23 4.49a123 123 0 0 1-11.35 8.53l-.71.45-.51.19a16.3 16.3 0 0 1-6 1 27.5 27.5 0 0 1-4.66-.47 54.5 54.5 0 0 1-8-2.11c-2.5-.85-4.89-1.8-7.25-2.82s-4.6-2.06-7-3.29l5.19-10.43c2 .89 4.2 1.82 6.32 2.62s4.32 1.55 6.46 2.17a42 42 0 0 0 6.19 1.37 15.3 15.3 0 0 0 2.6.14 3 3 0 0 0 1.19-.21l-1.22.65a109 109 0 0 0 9.53-8.12c1.57-1.46 3.12-3 4.65-4.49s3.07-3.1 4.48-4.6Z" style="fill:#fff;opacity:.8"/><path d="M363.94 129.93c-2.22-.65-5.09 1.69-3.92 5.18s4.64 5.14 7.37 4 1.46-7.76-3.45-9.18" style="fill:#407bff"/><path d="M362.35 135.08c-1.49-5.83 6-14.14 9.61-3.52 2.22 6.55-8.18 9.08-9.61 3.52" style="fill:#263238"/></g></svg>