<svg xmlns="http://www.w3.org/2000/svg" width="2000" height="2000" viewBox="0 0 1500 1500"><defs><clipPath id="f183c459a2"><path d="M502.098 369.469H991.64v549H502.098Zm0 0"/></clipPath><clipPath id="68ae66f517"><path d="M610 369.469h350V640H610Zm0 0"/></clipPath><clipPath id="c22b5a3fe6"><path d="M604.828 450.059h417.676v315.18H604.828Zm0 0"/></clipPath><clipPath id="3d2ef9b166"><path d="M0 0h589v166H0z"/></clipPath></defs><g clip-path="url(#f183c459a2)"><path fill="#434345" d="m766.906 776.816-13.351 15.614-13.817-15.203L591.54 614.18l-27.512-30.266h146.47l5.405 6.14 43.512 49.419 199.938-161.625c-39.297-64.871-110.598-108.383-191.774-108.38-116.254.005-211.812 88.52-222.898 201.79l-1.086 40.02-39.899 71.023c-4.785 13.27 1.512 27.976 14.426 33.672l22.399 9.886a20.95 20.95 0 0 1 12.496 19.168v54.215c0 28.094 23 51.078 51.109 51.078l49.324-13.187c10.68 0 19.34 8.652 19.34 19.328v44.367c0 13.434 14.438 21.926 26.188 15.402l188.261-89.84a34.7 34.7 0 0 0 17.867-30.34v-26.03c52.555-40.915 86.391-104.723 86.473-176.442.027-23.473-3.598-46.121-10.324-67.414z"/></g><path fill="#4c4d4e" d="M771.227 771.762c35.425 16.43 74.898 25.601 116.523 25.601 5.824 0 11.605-.183 17.34-.539q.014-.38.015-.773V770.02c52.555-40.915 86.391-104.723 86.473-176.442.027-23.473-3.598-46.121-10.324-67.414z"/><g clip-path="url(#68ae66f517)"><path fill="#4c4d4e" d="M702.309 583.914h8.187l5.406 6.14 43.512 49.419 199.938-161.625c-39.297-64.871-110.598-108.383-191.774-108.38-51.414 0-98.773 17.317-136.574 46.427-13.156 32.242-20.402 67.523-20.402 104.492 0 21.86 2.539 43.125 7.328 63.527z"/></g><path fill="#595a5c" d="m759.414 639.473 199.934-161.625c-35.418-58.473-96.848-99.59-168.067-107.13-49.129 31.692-81.652 86.884-81.652 149.669 0 33.172 9.078 64.222 24.89 90.808zm80.184 52.34c15.316 4.289 31.465 6.585 48.152 6.585 32.2 0 62.406-8.539 88.473-23.476 9.879-25.207 15.32-52.64 15.355-81.344.027-23.473-3.594-46.121-10.324-67.414z"/><path fill="#66686a" d="m832.137 580.684 126.246-102.055c-14.293-24.094-40.574-40.25-70.633-40.25-45.32 0-82.062 36.715-82.062 82.008 0 23.847 10.19 45.312 26.449 60.297m90.613 13.894c21.04-9.933 37.176-28.539 43.785-51.203z"/><g clip-path="url(#c22b5a3fe6)"><path fill="#4ebd38" d="M604.941 602.012h97.368l54.988 62.449 265.207-214.39L753.14 765.058z"/></g><g clip-path="url(#3d2ef9b166)" transform="translate(456 939)"><path fill="#434345" d="M47.556 129.275 29.837 66.853h-.53q.231 2.439.5 6.594.264 4.144.5 8.938.233 4.797.234 9.25v37.64H9.79V42.603h31.187l18.078 61.532h.485l17.718-61.532h31.235v86.672H86.978v-38q0-4.09.14-8.797.154-4.717.36-8.89.217-4.184.39-6.61h-.53l-17.485 62.297Zm101.547-67.172v67.172h-23.172V62.103Zm-11.5-27.03c3.32 0 6.219.694 8.688 2.077q3.703 2.08 3.703 8.25 0 5.987-3.703 8.094-3.705 2.096-8.688 2.094-5.096.002-8.687-2.094-3.58-2.108-3.578-8.094-.001-6.17 3.578-8.25 3.59-2.076 8.687-2.078m69.715 25.86q10.372.001 16.954 5.875c4.382 3.906 6.578 10.167 6.578 18.78v43.688h-23.172v-36.64c0-4.457-.649-7.82-1.938-10.094q-1.921-3.422-6.187-3.422-6.58.001-8.828 5.375-2.25 5.362-2.25 15.375v29.406h-23.188V62.103h17.485l3.14 8.907h.89q2.141-3.201 5.095-5.453c1.976-1.508 4.253-2.657 6.828-3.438q3.857-1.185 8.593-1.187m60.177 69.531q-10.377 0-17.078-8.828-6.704-8.843-6.703-25.86c0-11.457 2.289-20.129 6.875-26.015q6.874-8.826 17.796-8.828 4.499 0 7.75 1.312 3.264 1.301 5.672 3.516a25.3 25.3 0 0 1 4.172 5h.485q-.423-2.545-.782-7.016-.344-4.483-.343-8.75V37.041h23.343v92.234h-17.484l-4.969-8.484h-.89a22 22 0 0 1-4.016 4.875q-2.392 2.189-5.797 3.5-3.41 1.296-8.031 1.297m9.484-18.313q5.56 0 7.844-3.531 2.28-3.528 2.469-10.766v-1.828q0-7.95-2.235-12.187c-1.48-2.82-4.25-4.235-8.312-4.235q-4.16 0-6.89 4.032-2.72 4.031-2.72 12.5-.001 8.36 2.75 12.187c1.844 2.555 4.207 3.828 7.094 3.828m0 0"/><path fill="#4ebd38" d="M382.728 102.947q0 7.066-3.562 13.375c-2.368 4.211-6.047 7.621-11.047 10.235q-7.502 3.907-19.344 3.906c-3.961 0-7.434-.18-10.422-.531q-4.471-.533-8.328-1.75-3.845-1.218-8-3.172v-20.875q7.062 3.562 14.234 5.437 7.173 1.861 12.985 1.86 3.498.002 5.718-.829 2.215-.826 3.282-2.28c.718-.97 1.078-2.087 1.078-3.36q-.002-2.25-1.578-3.813-1.565-1.574-5-3.297-3.44-1.716-9.078-4.265-4.798-2.249-8.688-4.625-3.877-2.374-6.64-5.422-2.754-3.046-4.235-7.14c-.992-2.727-1.484-5.954-1.484-9.673q0-8.355 4.125-14.015 4.124-5.654 11.5-8.5 7.372-2.843 17.047-2.844c5.644 0 10.726.633 15.25 1.89q6.796 1.892 12.187 4.329l-7.172 18.078q-5.566-2.543-10.969-4.063c-3.593-1.007-6.933-1.515-10.015-1.515q-3.019 0-4.953.75-1.923.737-2.844 1.984c-.606.836-.906 1.781-.906 2.844 0 1.344.52 2.555 1.562 3.625q1.578 1.593 5.281 3.469c2.47 1.242 5.836 2.851 10.11 4.828q6.34 2.847 10.781 6.14 4.452 3.282 6.781 7.875 2.344 4.594 2.344 11.344m44.819-42.015q12.75 0 19.922 6.312 7.173 6.314 7.172 17.984v44.047H438.58l-4.453-8.89h-.47c-1.898 2.375-3.843 4.304-5.843 5.78q-2.988 2.22-6.844 3.25-3.843 1.046-9.422 1.048-5.813-.001-10.437-2.375-4.627-2.373-7.297-7.172c-1.773-3.195-2.656-7.25-2.656-12.156q-.001-10.781 7.469-16 7.465-5.218 21.64-5.875l11.203-.344v-.953q-.001-4.5-2.234-6.39-2.22-1.906-5.953-1.907-3.973.001-8.86 1.39a74.5 74.5 0 0 0-9.812 3.579l-6.703-15.282q5.81-2.964 13.156-4.5 7.358-1.546 16.484-1.546m4.032 38.343-5.328.235c-4.274.168-7.266.914-8.985 2.234q-2.578 1.987-2.578 5.656 0 3.439 1.828 5.078 1.84 1.627 4.875 1.625 4.2 0 7.188-2.671 3-2.672 3-6.938Zm79.86-19.797h-14.298v49.797h-23.171V79.478h-8.891V68.103l9.36-5.703v-1.125q-.001-8.701 2.312-14.187 2.31-5.483 7.344-8.094 5.044-2.608 13.171-2.61 5.217.001 9.454.829 4.23.83 8.859 2.375l-4.984 15a36 36 0 0 0-3.829-.828 27 27 0 0 0-4.515-.36q-2.672.001-3.89 1.625-1.22 1.628-1.22 5.313v1.765h14.297Zm39.354-18.546q9.779 0 16.89 3.406 7.125 3.41 10.969 10.219c2.57 4.542 3.86 10.234 3.86 17.078v10.312h-41.438c.195 3.524 1.508 6.406 3.937 8.656 2.438 2.25 6.024 3.375 10.766 3.375q6.279.001 11.516-1.234 5.25-1.247 10.828-3.86v16.657q-4.863 2.55-10.61 3.734-5.755 1.186-14.53 1.188-10.125 0-18.142-3.61-8-3.62-12.593-11.203-4.594-7.592-4.594-19.515 0-12.094 4.14-19.891c2.77-5.195 6.645-9.047 11.626-11.547q7.482-3.764 17.375-3.765m.828 15.765q-4.095 0-6.844 2.578-2.754 2.58-3.234 8.094h19.921q-.062-2.965-1.187-5.39c-.75-1.626-1.852-2.91-3.297-3.86-1.437-.945-3.226-1.422-5.36-1.422m0 0"/></g></svg>