<svg xmlns="http://www.w3.org/2000/svg" viewBox="0 0 500 500"><g id="freepik--Floor--inject-3"><path id="freepik--floor--inject-3" d="M80.1 454.76c-93.84-54.18-93.84-142 0-196.19s246-54.18 339.8 0 93.84 142 0 196.19-245.97 54.17-339.8 0" style="fill:#f5f5f5"/></g><g id="freepik--Shadows--inject-3"><path id="freepik--Shadow--inject-3" d="m102.2 436.4 19.45-11.18c1.26-.72 1.26-1.9 0-2.63l-72.37-41.78a5.08 5.08 0 0 0-4.56 0L25.27 392c-1.26.73-1.26 1.9 0 2.63l72.37 41.77a5 5 0 0 0 4.56 0" style="fill:#e0e0e0"/><path id="freepik--shadow--inject-3" d="m65.35 360.06-46.61-26.87a1.2 1.2 0 0 1 0-2.27l115.21-66.75a4.33 4.33 0 0 1 3.92 0L184.48 291a1.2 1.2 0 0 1 0 2.27L69.27 360.05a4.33 4.33 0 0 1-3.92.01M318.15 227c10.7 6.25 10.7 16.38 0 22.62s-28 6.25-38.74 0-10.7-16.37 0-22.62 28.04-6.27 38.74 0m155.99 121.3-58.84 33.98-96.21-55.54 58.85-33.98zm-77.96 48.23-160.55 92.82a2.37 2.37 0 0 1-2.11 0L114.89 420.8a.65.65 0 0 1 0-1.23l160.55-92.81a2.33 2.33 0 0 1 2.12 0l118.62 68.55a.65.65 0 0 1 0 1.22" style="fill:#e0e0e0"/></g><g id="freepik--Window--inject-3"><g id="freepik--window--inject-3"><g id="freepik--window--inject-3"><g id="freepik--Frame--inject-3"><path d="m464.91 206.34-2.29 1.37-78.06-45.07 2.29-1.37z" style="fill:#fafafa"/><path d="m386.85 161.27 75.77 43.74V72.32L386.85 28.6z" style="fill:#fff"/><path d="M380.22 165.14 467 215.21V69.82l-86.78-50.07Zm4.34-137.89 78.06 45.07v135.39l-78.06-45.07Z" style="fill:#f0f0f0"/><path d="m384.56 162.64 2.29-1.37V28.6l-2.29-1.35z" style="fill:#e0e0e0"/><path d="M462.62 160.31v2.7l-78.06-45.07 2.29-1.37zm0-50.97v2.69l-78.06-45.06 2.29-1.37zm-82.4-89.59 2.34-1.33 86.72 50.06-2.33 1.34z" style="fill:#fafafa"/><path d="m469.28 68.48-2.33 1.34v145.39l2.33-1.34zm-40.05-15.44-2.33-1.34v135.39l2.33-1.33z" style="fill:#e0e0e0"/></g><path d="m422.57 49.21 4.33 2.49v135.39l-4.33-2.5z" style="fill:#f0f0f0"/><path d="M380.22 64.47v4.99l86.73 50.07v-5zm0 50.96v4.99l86.73 50.07v-4.99z" style="fill:#f0f0f0"/><path d="m426.9 91.41 2.33-1.35 33.39 19.28v2.69zm0 50.95 2.33-1.35 33.39 19.28v2.69z" style="fill:#fafafa"/></g></g></g><g id="freepik--Shelves--inject-3"><g id="freepik--shelves--inject-3"><g id="freepik--Shelf--inject-3"><path d="m119.04 126.15-28.23-16.3-74.34 42.88v3.1l28.23 16.3 74.34-42.88z" style="fill:#ebebeb"/><path d="m44.7 169.03 74.34-42.88-28.23-16.3-74.34 42.88z" style="fill:#fafafa"/><path d="M44.7 169.03v3.1l-28.23-16.3v-3.1z" style="fill:#e6e6e6"/><path d="m99.3 82.98 16.57 9.57v31.51L99.3 114.5z" style="fill:#ebebeb"/><path d="m115.33 93.08-16-9.2a6.73 6.73 0 0 1-3.66 2L111.53 95a16 16 0 0 0 3.8-1.92" style="fill:#fff"/><path d="M110 95a3.47 3.47 0 0 0 3.08 0l2.7-1.55a.93.93 0 0 0 0-1.77L100 82.6l-.7.4 15.54 9a.56.56 0 0 1 0 1.06l-2.51 1.42a2.08 2.08 0 0 1-1.85 0l-15.48-9-.76.44Z" style="fill:#fafafa"/><path d="M94.19 85.92v31.51l15.8 9.06a3.41 3.41 0 0 0 3.08 0l2.7-1.54a1.11 1.11 0 0 0 .64-.89V92.55a1.11 1.11 0 0 1-.64.89l-2.7 1.56a3.41 3.41 0 0 1-3.07 0Z" style="fill:#e0e0e0"/><path d="M111.53 95.35a3.2 3.2 0 0 0 1.54-.36l2.7-1.55a1.11 1.11 0 0 0 .64-.89v31.51a1.11 1.11 0 0 1-.64.89l-2.7 1.54a3.1 3.1 0 0 1-1.54.37Z" style="fill:#f0f0f0"/><path d="m92.36 87.76 16.56 9.56-5.14 32.47-16.57-9.57z" style="fill:#ebebeb"/><path d="m108.27 97.78-16-9.21A8.73 8.73 0 0 1 88 90.23l15.9 9.16a21.3 21.3 0 0 0 4.37-1.61" style="fill:#fff"/><path d="M102.2 99.27a4.37 4.37 0 0 0 3.34.15l3.15-1.29c1-.41 1.11-1.13.26-1.62l-15.81-9.07-.78.32 15.54 9c.51.29.44.73-.16 1l-2.93 1.18a2.6 2.6 0 0 1-2-.09l-15.53-9-.89.37Z" style="fill:#fafafa"/><path d="m86.39 90.19-5.14 32.47 15.8 9.07a4.33 4.33 0 0 0 3.34.15l3.15-1.29c.5-.2.78-.48.82-.78l5.15-32.46c-.05.29-.33.57-.82.78l-3.15 1.29a4.32 4.32 0 0 1-3.34-.15Z" style="fill:#e0e0e0"/><path d="M103.81 99.68a4.2 4.2 0 0 0 1.73-.26l3.15-1.29c.49-.21.77-.49.82-.78l-5.15 32.46c0 .3-.32.58-.82.78l-3.15 1.29a4.35 4.35 0 0 1-1.72.26Z" style="fill:#f0f0f0"/><g id="freepik--Pot--inject-3"><path id="freepik--shadow--inject-3" d="M86.31 129.26c3.9 2.25 3.9 5.89 0 8.14a15.59 15.59 0 0 1-14.11 0c-3.9-2.25-3.9-5.89 0-8.14a15.59 15.59 0 0 1 14.11 0" style="opacity:.05"/><path d="M72.91 134.93c-3.39-3.46-5.38-12.11-2.07-14.86h16.84c3.31 2.75 1.32 11.39-2.07 14.86l-.1.09-.11.12-.31.27-.08.06-.26.2a4 4 0 0 1-.44.28 11.18 11.18 0 0 1-10.11 0c-.15-.09-.29-.18-.44-.29a2 2 0 0 1-.24-.18l-.1-.07-.29-.27L73 135a.6.6 0 0 0-.09-.07" style="fill:#f5f5f5"/><path d="M86.22 118.76c3.84 2.22 3.84 5.81 0 8a15.38 15.38 0 0 1-13.92 0c-3.84-2.22-3.84-5.81 0-8a15.38 15.38 0 0 1 13.92 0" style="fill:#fff"/><path d="M83.49 120.33c2.34 1.35 2.34 3.54 0 4.89a9.36 9.36 0 0 1-8.47 0c-2.33-1.35-2.33-3.54 0-4.89a9.36 9.36 0 0 1 8.47 0" style="fill:#ebebeb"/><path d="M75 122.65a9.36 9.36 0 0 1 8.47 0 3.9 3.9 0 0 1 1.4 1.28 3.9 3.9 0 0 1-1.4 1.29 9.36 9.36 0 0 1-8.47 0 3.9 3.9 0 0 1-1.4-1.29 3.9 3.9 0 0 1 1.4-1.28" style="fill:#e0e0e0"/><path d="M83 123.93a19.5 19.5 0 0 0 3-4.07c1.41-2.5 1.67-5.85.94-6.26s-3.7 2.93-3.7 2.93a18.5 18.5 0 0 0 .31-4.27c-.13-2.23-.67-4.25-1.31-4.66s-2.02 2.4-2.63 4.4-1 3.71-1 3.71a31.5 31.5 0 0 0-1.1-4.69c-.74-2.11-1.41-2.59-1.94-2.38s-.86 1.19-1 4a29 29 0 0 0 .13 4s-1-1.16-2.21-2.28-1.83-1.39-2.2-1.16-.46 2.15 1.52 5.73a20 20 0 0 0 3.74 4.92s2.74 1.85 7.45.08" style="fill:#ebebeb"/></g><path d="m52.98 106.89 16.56 9.57v31.51l-16.56-9.57z" style="fill:#e0e0e0"/><path d="m69 117-16-9.2a6.76 6.76 0 0 1-3.67 2l15.9 9.16A16.2 16.2 0 0 0 69 117" style="fill:#fff"/><path d="M63.67 118.89a3.41 3.41 0 0 0 3.08 0l2.7-1.55a.93.93 0 0 0 0-1.77l-15.8-9.06-.67.38 15.54 9a.56.56 0 0 1 0 1.06L66 118.34a2 2 0 0 1-1.85 0l-15.53-9-.76.43Z" style="fill:#fafafa"/><path d="M47.87 109.82v31.51l15.8 9.07a3.47 3.47 0 0 0 3.08 0l2.7-1.55a1.08 1.08 0 0 0 .63-.89v-31.51a1.08 1.08 0 0 1-.63.89l-2.7 1.55a3.41 3.41 0 0 1-3.08 0Z" style="fill:#e0e0e0"/><path d="M65.21 119.26a3.25 3.25 0 0 0 1.54-.37l2.7-1.55a1.08 1.08 0 0 0 .63-.89V148a1.08 1.08 0 0 1-.63.89l-2.7 1.55a3.24 3.24 0 0 1-1.54.36Z" style="fill:#f0f0f0"/><path d="m46.2 110.78 16.57 9.56v31.51l-16.57-9.56z" style="fill:#ebebeb"/><path d="m62.24 120.87-16-9.2a6.7 6.7 0 0 1-3.66 2l15.89 9.16a16 16 0 0 0 3.77-1.96" style="fill:#fff"/><path d="M56.89 122.78a3.41 3.41 0 0 0 3.08 0l2.7-1.55a.93.93 0 0 0 0-1.77l-15.8-9.07-.67.39 15.54 9a.56.56 0 0 1 0 1.06l-2.51 1.42a2.05 2.05 0 0 1-1.84 0l-15.54-9-.75.43Z" style="fill:#fafafa"/><path d="M41.1 113.71v31.51l15.79 9.06a3.41 3.41 0 0 0 3.08 0l2.7-1.54a1.08 1.08 0 0 0 .64-.89v-31.51a1.08 1.08 0 0 1-.64.89L60 122.78a3.41 3.41 0 0 1-3.08 0Z" style="fill:#e0e0e0"/><path d="M58.43 123.14a3.2 3.2 0 0 0 1.54-.36l2.7-1.55a1.08 1.08 0 0 0 .64-.89v31.51a1.08 1.08 0 0 1-.64.89L60 154.28a3.1 3.1 0 0 1-1.54.37Z" style="fill:#f0f0f0"/><path d="m39.52 117.46 16.56 9.57-5.15 32.46-16.56-9.57z" style="fill:#ebebeb"/><path d="m55.42 127.48-16-9.2a8.8 8.8 0 0 1-4.27 1.65L51 129.1a21.2 21.2 0 0 0 4.42-1.62" style="fill:#fff"/><path d="M49.35 129a4.3 4.3 0 0 0 3.34.15l3.16-1.29c1-.4 1.11-1.13.25-1.62l-15.8-9.07-.78.32 15.53 9c.51.3.44.73-.15 1l-2.9 1.1a2.56 2.56 0 0 1-2-.1l-15.54-9-.88.36Z" style="fill:#fafafa"/><path d="m33.55 119.9-5.14 32.46 15.8 9.07a4.28 4.28 0 0 0 3.34.15l3.15-1.29c.5-.2.78-.48.82-.77l5.15-32.47c-.05.3-.33.58-.82.78l-3.16 1.29a4.28 4.28 0 0 1-3.34-.15Z" style="fill:#e0e0e0"/><path d="M51 129.38a4.15 4.15 0 0 0 1.72-.26l3.16-1.29c.49-.2.77-.48.82-.78l-5.15 32.47c0 .29-.32.57-.82.77l-3.15 1.29a4.2 4.2 0 0 1-1.72.26Z" style="fill:#f0f0f0"/></g><g id="freepik--shelf--inject-3"><path d="M119.04 65 90.81 48.7 16.47 91.58v3.1l28.23 16.29 74.34-42.87z" style="fill:#ebebeb"/><path d="M44.7 107.88 119.04 65 90.81 48.7 16.47 91.58z" style="fill:#fafafa"/><path d="M44.7 107.88v3.09L16.47 94.68v-3.1z" style="fill:#e6e6e6"/><path d="m95.15 18.84 18.3 10.57v34.83l-18.3-10.57z" style="fill:#ebebeb"/><path d="M112.87 30 95.15 19.82A7.4 7.4 0 0 1 91.1 22l17.56 10.12a17.4 17.4 0 0 0 4.21-2.12" style="fill:#fff"/><path d="M107 32.1a3.79 3.79 0 0 0 3.41 0l3-1.71a1 1 0 0 0 0-1.95l-17.46-10-.74.42 17.17 9.92c.57.32.57.84 0 1.17l-2.77 1.57a2.29 2.29 0 0 1-2 0L90.34 21.6l-.84.48Z" style="fill:#fafafa"/><path d="M89.5 22.08v34.83l17.46 10a3.79 3.79 0 0 0 3.41 0l3-1.71a1.18 1.18 0 0 0 .7-1V29.41a1.18 1.18 0 0 1-.7 1l-3 1.71a3.79 3.79 0 0 1-3.41 0Z" style="fill:#e0e0e0"/><path d="M108.66 32.51a3.5 3.5 0 0 0 1.71-.41l3-1.71a1.18 1.18 0 0 0 .7-1v34.85a1.18 1.18 0 0 1-.7 1l-3 1.71a3.5 3.5 0 0 1-1.71.4Z" style="fill:#f0f0f0"/><path d="m88.04 24.89 18.3 10.57-5.68 35.88-18.31-10.57z" style="fill:#ebebeb"/><path d="M105.62 36 87.9 25.79a9.75 9.75 0 0 1-4.72 1.83l17.57 10.13a23.5 23.5 0 0 0 4.87-1.75" style="fill:#fff"/><path d="M98.91 37.61a4.8 4.8 0 0 0 3.69.17l3.49-1.43c1.1-.45 1.22-1.25.28-1.79l-17.47-10-.86.35 17.17 9.92c.57.32.49.8-.17 1.07l-3.23 1.3a2.84 2.84 0 0 1-2.22-.1l-17.17-9.9-1 .4Z" style="fill:#fafafa"/><path d="m81.44 27.58-5.68 35.88 17.47 10a4.75 4.75 0 0 0 3.69.16l3.48-1.42c.55-.22.86-.53.91-.86L107 35.49c0 .33-.35.64-.9.86l-3.49 1.43a4.75 4.75 0 0 1-3.69-.17Z" style="fill:#e0e0e0"/><path d="M100.7 38.06a4.7 4.7 0 0 0 1.9-.28l3.49-1.43c.55-.22.85-.53.9-.86l-5.68 35.88c0 .33-.36.64-.91.86l-3.48 1.42a4.6 4.6 0 0 1-1.91.29Z" style="fill:#f0f0f0"/><g id="freepik--Picture--inject-3"><g id="freepik--frame--inject-3"><path d="m57.62 90.06 1.3.63 24.02-13.87-1.3-.62z" style="fill:#fafafa"/><path d="M81.64 76.2 58.79 89.39l-3.32-34.18 22.85-13.18z" style="fill:#fff"/><path d="M81.46 37.65 53 54.07l3.92 40.31L85.38 78Zm1.48 39.17-24 13.87-3.47-35.48 24-13.87Z" style="fill:#f0f0f0"/><path d="m82.94 76.82-1.3-.62-3.32-34.17 1.16-.69z" style="fill:#e0e0e0"/><path d="m81.46 37.65-1.32-.6-28.43 16.41 1.31.61z" style="fill:#fafafa"/><path d="m51.71 53.46 1.31.61 3.92 40.31-1.31-.61z" style="fill:#e0e0e0"/></g><path id="freepik--Land--inject-3" d="M80.63 75.55 59.57 87.71l-.56-5.76 3.92-16.91 3.73 5.77-.77 4.86 6.23-17.94 7.95 12.06zM62.6 57.92a3 3 0 0 0-1.39 2.6c.09.94.86 1.3 1.72.8a2.94 2.94 0 0 0 1.4-2.6c-.09-.94-.87-1.3-1.73-.8" style="fill:#f0f0f0"/></g><g id="freepik--pot--inject-3"><path id="freepik--shadow--inject-3" d="M45.79 87.69c3.89 2.25 3.89 5.9 0 8.15a15.61 15.61 0 0 1-14.12 0c-3.89-2.25-3.89-5.9 0-8.15a15.59 15.59 0 0 1 14.12 0" style="opacity:.05"/><path d="M32.39 93.37C29 89.9 27 81.26 30.31 78.51h16.84c3.31 2.75 1.32 11.39-2.07 14.85l-.09.1-.12.11-.31.28-.08.06a2 2 0 0 1-.26.19 3.5 3.5 0 0 1-.43.28 11.12 11.12 0 0 1-10.11 0 4 4 0 0 1-.45-.28l-.23-.18a.4.4 0 0 1-.1-.08 2.6 2.6 0 0 1-.3-.26l-.14-.13Z" style="fill:#f5f5f5"/><path d="M45.69 77.19c3.84 2.22 3.84 5.82 0 8a15.38 15.38 0 0 1-13.92 0c-3.84-2.22-3.84-5.82 0-8a15.44 15.44 0 0 1 13.92 0" style="fill:#fff"/><path d="M43 78.77c2.34 1.35 2.34 3.54 0 4.89a9.34 9.34 0 0 1-8.46 0c-2.34-1.35-2.34-3.54 0-4.89a9.34 9.34 0 0 1 8.46 0" style="fill:#ebebeb"/><path d="M34.5 81.09a9.34 9.34 0 0 1 8.46 0 3.86 3.86 0 0 1 1.41 1.28A4 4 0 0 1 43 83.66a9.34 9.34 0 0 1-8.46 0 3.9 3.9 0 0 1-1.4-1.29 3.8 3.8 0 0 1 1.36-1.28" style="fill:#e0e0e0"/><path d="M42.45 82.37a19 19 0 0 0 3.06-4.07c1.42-2.5 1.68-5.85 1-6.26S42.75 75 42.75 75a18 18 0 0 0 .31-4.26c-.12-2.23-.67-4.26-1.3-4.66s-2.07 2.4-2.68 4.43-1 3.71-1 3.71A31.5 31.5 0 0 0 37 69.5c-.74-2.12-1.41-2.59-1.93-2.39s-.87 1.2-1 4a28 28 0 0 0 .12 4S33.12 74 32 72.88s-1.83-1.4-2.19-1.16-.47 2.14 1.51 5.73A20 20 0 0 0 35 82.37s2.76 1.77 7.45 0" style="fill:#ebebeb"/></g></g></g></g><g id="freepik--Pictures--inject-3"><g id="freepik--picture--inject-3"><g id="freepik--frame--inject-3"><path d="m361.7 136.96-1.6.96-32.88-18.98 1.6-.96z" style="fill:#fafafa"/><path d="m328.82 117.98 31.28 18.05v-32.75l-31.28-18.04z" style="fill:#fff"/><path d="m324.2 120.68 38.92 22.47v-41.61L324.2 79.06Zm3-36.38 32.88 19v34.64l-32.88-19Z" style="fill:#f0f0f0"/><path d="m327.22 118.94 1.6-.96V85.24l-1.6-.94z" style="fill:#e0e0e0"/><path d="m324.2 79.06 1.62-.93 38.93 22.48-1.63.93z" style="fill:#fafafa"/><path d="m364.75 100.61-1.63.93v41.61l1.63-.93z" style="fill:#e0e0e0"/></g><g id="freepik--land--inject-3"><path d="m330.04 117 28.84 16.65v-8.33l-7.21-16.64-4.49 4.16 1.61 6.98-9.95-21.29-8.8 10.15z" style="fill:#f0f0f0"/><path d="M347.45 100.64a4.7 4.7 0 0 1 2.13 3.69c0 1.36-.95 1.91-2.13 1.23a4.7 4.7 0 0 1-2.13-3.69c0-1.36.95-1.87 2.13-1.23" style="fill:#f0f0f0"/></g></g><g id="freepik--picture--inject-3"><g id="freepik--frame--inject-3"><path d="m361.7 82.1-1.6.95-32.88-18.98 1.6-.95z" style="fill:#fafafa"/><path d="m328.82 63.12 31.28 18.05V48.42l-31.28-18.04z" style="fill:#fff"/><path d="m324.2 65.82 38.92 22.47V46.67L324.2 24.2Zm3-36.38 32.88 19v34.61l-32.88-19Z" style="fill:#f0f0f0"/><path d="m327.22 64.07 1.6-.95V30.38l-1.6-.94z" style="fill:#e0e0e0"/><path d="m324.2 24.2 1.62-.93 38.93 22.47-1.63.93z" style="fill:#fafafa"/><path d="m364.75 45.74-1.63.93v41.62l1.63-.93z" style="fill:#e0e0e0"/></g><g id="freepik--land--inject-3"><path d="m330.04 62.14 28.84 16.64v-8.32l-7.21-16.65-4.49 4.17 1.61 6.97-9.95-21.29-8.8 10.15z" style="fill:#f0f0f0"/><path d="M347.45 45.78a4.7 4.7 0 0 1 2.13 3.69c0 1.36-.95 1.91-2.13 1.23a4.7 4.7 0 0 1-2.13-3.7c0-1.35.95-1.9 2.13-1.22" style="fill:#f0f0f0"/></g></g></g><g id="freepik--Plant--inject-3"><g id="freepik--plant--inject-3"><g id="freepik--pot--inject-3"><path d="M282.34 242c-8.79-9.07-14-32-5.38-39.19h43.64c8.57 7.19 3.4 30.09-5.38 39.19l-.24.25-.3.29c-.25.25-.51.49-.79.72l-.21.17c-.22.17-.43.34-.67.5a13 13 0 0 1-1.13.74c-7.24 4.22-19 4.22-26.2 0a13 13 0 0 1-1.14-.74l-.62-.47-.26-.21c-.27-.23-.53-.46-.77-.69l-.35-.35c-.06-.09-.14-.15-.2-.21" style="fill:#ebebeb"/><path d="M316.81 199.89c9.95 5.81 9.95 15.24 0 21.05s-26.1 5.81-36.06 0-10-15.24 0-21.05 26.1-5.81 36.06 0" style="fill:#fafafa"/><path d="M312 202.68c7.31 4.27 7.31 11.2 0 15.46s-19.17 4.27-26.48 0-7.31-11.19 0-15.46 19.19-4.26 26.48 0" style="fill:#ebebeb"/><path d="M285.54 210c7.31-4.27 19.17-4.27 26.48 0a12.2 12.2 0 0 1 4.38 4.06 12.14 12.14 0 0 1-4.38 4.06c-7.31 4.27-19.17 4.27-26.48 0a12.14 12.14 0 0 1-4.38-4.06 12.2 12.2 0 0 1 4.38-4.06" style="fill:#fff"/></g><path d="M292.81 155.82c-2.95 3.72-11.8 5.36-16.21-3.76-4.14-8.55-8.51-16.62-9.83-19.77a3.34 3.34 0 0 1 1.81-4.47s-.12-4.86 8.34-2.2 14.63 7.19 18.82 15 2.48 13.7-2.93 15.2" style="fill:#f0f0f0"/><path d="M297.31 168a44 44 0 0 0-1.09-4.85 69 69 0 0 0-3.44-9.25 70 70 0 0 0-10.85-16.83 60.7 60.7 0 0 0-8.12-7.91c-.09-.07-.15.12-.08.18a75 75 0 0 1 12.94 15.28 76 76 0 0 1 8.17 17.82c.54 1.76 1.06 3.52 1.52 5.3s.81 3.64 1.26 5.45c0 .18.33.27.33 0a35 35 0 0 0-.64-5.19" style="fill:#e0e0e0"/><path d="M297.31 168a44 44 0 0 0-1.09-4.85 69 69 0 0 0-3.44-9.25 70 70 0 0 0-10.85-16.83 60.7 60.7 0 0 0-8.12-7.91c-.09-.07-.15.12-.08.18a75 75 0 0 1 12.94 15.28 76 76 0 0 1 8.17 17.82c.54 1.76 1.06 3.52 1.52 5.3s.81 3.64 1.26 5.45c0 .18.33.27.33 0a35 35 0 0 0-.64-5.19" style="opacity:.1"/><path d="M302.4 149.29c-7.68 2.37-13.38-3.62-11.41-13s11.85-19.83 15.58-17c2.33-2.33 7.46-1.49 9.87 6.14s.22 27.19-14.04 23.86" style="fill:#e0e0e0"/><path d="M306.91 125a103.3 103.3 0 0 0-5.11 16.88 165 165 0 0 0-3 17.69 275 275 0 0 0-1.54 34.65q0 4.8.12 9.6c.07 3.29 0 6.62.3 9.89.11 1.26 1.89.93 1.92-.23.11-5.75-.21-11.53-.27-17.29s0-11.39.11-17.08a240 240 0 0 1 3.11-34.61c.55-3.19 1.15-6.37 1.9-9.52.78-3.31 1.74-6.57 2.61-9.86.07-.12-.06-.34-.15-.12" style="fill:#e0e0e0"/><path d="M306.91 125a103.3 103.3 0 0 0-5.11 16.88 165 165 0 0 0-3 17.69 275 275 0 0 0-1.54 34.65q0 4.8.12 9.6c.07 3.29 0 6.62.3 9.89.11 1.26 1.89.93 1.92-.23.11-5.75-.21-11.53-.27-17.29s0-11.39.11-17.08a240 240 0 0 1 3.11-34.61c.55-3.19 1.15-6.37 1.9-9.52.78-3.31 1.74-6.57 2.61-9.86.07-.12-.06-.34-.15-.12" style="opacity:.1"/><path d="M288.12 175c-2.22 4.56-9.72 6.3-16.5 1.14s-16.62-28.86-9.16-29.24c.57-3.69 22.08-1.18 29 14.15 5.05 11.15-3.34 13.95-3.34 13.95" style="fill:#e0e0e0"/><path d="M297.12 185a36 36 0 0 0-2.2-4.21 94 94 0 0 0-5.34-8.09 96.7 96.7 0 0 0-13.34-14.54 86 86 0 0 0-8.53-7c-.08-.05-.09.13 0 .18 2.42 2 4.86 4 7.14 6.23a97 97 0 0 1 6.72 7.21 121 121 0 0 1 11.13 15.32c.93 1.53 1.79 3.11 2.74 4.63s2.1 3.09 3 4.71c.13.24.48.24.35-.09-.58-1.35-1.05-2.9-1.67-4.35" style="fill:#e0e0e0"/><path d="M297.12 185a36 36 0 0 0-2.2-4.21 94 94 0 0 0-5.34-8.09 96.7 96.7 0 0 0-13.34-14.54 86 86 0 0 0-8.53-7c-.08-.05-.09.13 0 .18 2.42 2 4.86 4 7.14 6.23a97 97 0 0 1 6.72 7.21 121 121 0 0 1 11.13 15.32c.93 1.53 1.79 3.11 2.74 4.63s2.1 3.09 3 4.71c.13.24.48.24.35-.09-.58-1.35-1.05-2.9-1.67-4.35" style="opacity:.1"/><path d="M302.18 173.09c-4.39-1-4.61-6.28.88-12.74s19.31-9.29 20-6.57c3.07 0 3.07 9.62-3.73 18.46s-16.74 6.76-17.15.85" style="fill:#e0e0e0"/><path d="M310.78 163.68a34.53 34.53 0 0 0-12.7 16.4c-.15.37.5.92.66.51a40.2 40.2 0 0 1 12.07-16.82s.03-.13-.03-.09" style="fill:#e0e0e0"/><path d="M310.78 163.68a34.53 34.53 0 0 0-12.7 16.4c-.15.37.5.92.66.51a40.2 40.2 0 0 1 12.07-16.82s.03-.13-.03-.09" style="opacity:.1"/><path d="M307.2 205.2c-6.08 2.46-3.48 9.7 2.46 15.2s14.42 6.94 18.5 6.65 5.12-.84 5.12-.84.65-6.26 0-10.07a19.44 19.44 0 0 0-14.33-15.43c-9.48-2.56-11.75.87-11.75 4.49" style="fill:#f0f0f0"/><path d="M324 215.89a49.4 49.4 0 0 0-9.31-8.62c-3.46-2.27-8.08-4.22-12.23-2.8-1.61.55-4.11 2.15-3.81 4.15 0 .19.38.69.62.41a16.7 16.7 0 0 1 2.19-2.55 6.5 6.5 0 0 1 3.26-1.24 15.1 15.1 0 0 1 8.53 1.94c4.11 2.18 7.43 5.56 10.7 8.8.05.02.1-.06.05-.09" style="fill:#e0e0e0"/><path d="M324 215.89a49.4 49.4 0 0 0-9.31-8.62c-3.46-2.27-8.08-4.22-12.23-2.8-1.61.55-4.11 2.15-3.81 4.15 0 .19.38.69.62.41a16.7 16.7 0 0 1 2.19-2.55 6.5 6.5 0 0 1 3.26-1.24 15.1 15.1 0 0 1 8.53 1.94c4.11 2.18 7.43 5.56 10.7 8.8.05.02.1-.06.05-.09" style="opacity:.1"/><path d="M284.09 181.43c.06-2.58-4.61-7.87-16-7-5.2.42-10 1.82-13.79 5.5a7.88 7.88 0 0 0-2.52 4.58 3.45 3.45 0 0 0 .27 2 3.5 3.5 0 0 0 1 1.12c2.72 2.2 6.27 1.62 9.48 2.44 5 1.27 15.44 5.8 21.47 2.78s3.7-9.53.09-11.42" style="fill:#f0f0f0"/><path d="M294.18 188.53c-6.51-8.88-19.21-9.63-29.14-7.75a40 40 0 0 0-9.46 3s0 .13 0 .11a52.5 52.5 0 0 1 16.16-3.13 34.1 34.1 0 0 1 15.84 3 20.4 20.4 0 0 1 6.37 5c.22.24.36-.05.23-.23" style="fill:#e0e0e0"/><path d="M294.18 188.53c-6.51-8.88-19.21-9.63-29.14-7.75a40 40 0 0 0-9.46 3s0 .13 0 .11a52.5 52.5 0 0 1 16.16-3.13 34.1 34.1 0 0 1 15.84 3 20.4 20.4 0 0 1 6.37 5c.22.24.36-.05.23-.23" style="opacity:.1"/><path d="M313.09 159.52c-.16 4.36 6 6.89 11.91 3.12s12.16-7.44 17.66-8.86 8.11-5.91 6.37-8.08-4.5-7.65-19-5.86-19.59 8.31-21.57 12.91 2.45 8.03 4.63 6.77" style="fill:#f0f0f0"/><path d="M336.63 145.68a15.8 15.8 0 0 0-6.21.65 30.6 30.6 0 0 0-5.31 1.91 29.2 29.2 0 0 0-9 6.55 24 24 0 0 0-2 2.45 10.5 10.5 0 0 0-1.55 2.53c-.09.29.32.76.58.46.71-.82 1.25-1.83 1.92-2.7a30 30 0 0 1 2.33-2.66 29 29 0 0 1 5.57-4.39 34.6 34.6 0 0 1 6.18-3 37 37 0 0 1 3.6-1.08 12.8 12.8 0 0 1 3.93-.55c-.01 0 .02-.16-.04-.17" style="fill:#e0e0e0"/><path d="M336.63 145.68a15.8 15.8 0 0 0-6.21.65 30.6 30.6 0 0 0-5.31 1.91 29.2 29.2 0 0 0-9 6.55 24 24 0 0 0-2 2.45 10.5 10.5 0 0 0-1.55 2.53c-.09.29.32.76.58.46.71-.82 1.25-1.83 1.92-2.7a30 30 0 0 1 2.33-2.66 29 29 0 0 1 5.57-4.39 34.6 34.6 0 0 1 6.18-3 37 37 0 0 1 3.6-1.08 12.8 12.8 0 0 1 3.93-.55c-.01 0 .02-.16-.04-.17" style="opacity:.1"/><path d="M302.71 183.05c-2-2-7.53-1.56-10.13 4.43s2.86 12.54 3.47 14.39c2.51-1.45 4.47-.59 8.89-1.45a11 11 0 0 0 8.48-11c-.29-5.5-2.6-9.12-10.71-6.37" style="fill:#f0f0f0"/><path d="M302.63 182.45a8.26 8.26 0 0 0-2.68 2.77 15 15 0 0 0-1.74 3.36 14.3 14.3 0 0 0-.77 7.63c0 .1.1 0 .1-.05a15.6 15.6 0 0 1 1.28-7.54 15.2 15.2 0 0 1 1.82-3 15 15 0 0 1 1.23-1.41A8 8 0 0 0 303 183c.17-.21-.06-.7-.37-.55" style="fill:#e0e0e0"/><path d="M302.63 182.45a8.26 8.26 0 0 0-2.68 2.77 15 15 0 0 0-1.74 3.36 14.3 14.3 0 0 0-.77 7.63c0 .1.1 0 .1-.05a15.6 15.6 0 0 1 1.28-7.54 15.2 15.2 0 0 1 1.82-3 15 15 0 0 1 1.23-1.41A8 8 0 0 0 303 183c.17-.21-.06-.7-.37-.55" style="opacity:.1"/><path d="M294.35 199.14c-1.13-4.32-6.6-6.74-13.75-7.27a18.68 18.68 0 0 0-17.79 9.13c-3.74 6.39-5.29 11.48-3 12.32s11.88 2.17 18.08 2.72 13.95-.57 19-5.28 3.38-10.63-2.54-11.62" style="fill:#e0e0e0"/><path d="M294.62 198.57a19 19 0 0 0-7.73-.36 34.4 34.4 0 0 0-7.29 1.68 47 47 0 0 0-7.22 3.25c-1.21.66-2.4 1.36-3.56 2.11a25 25 0 0 0-3.2 2.21s0 .18 0 .15c1.17-.53 2.27-1.27 3.39-1.9s2.43-1.35 3.67-2a51.6 51.6 0 0 1 7.15-3 34.6 34.6 0 0 1 7.59-1.63 46 46 0 0 1 7.24.19c.54.02.25-.6-.04-.7" style="fill:#e0e0e0"/><path d="M294.62 198.57a19 19 0 0 0-7.73-.36 34.4 34.4 0 0 0-7.29 1.68 47 47 0 0 0-7.22 3.25c-1.21.66-2.4 1.36-3.56 2.11a25 25 0 0 0-3.2 2.21s0 .18 0 .15c1.17-.53 2.27-1.27 3.39-1.9s2.43-1.35 3.67-2a51.6 51.6 0 0 1 7.15-3 34.6 34.6 0 0 1 7.59-1.63 46 46 0 0 1 7.24.19c.54.02.25-.6-.04-.7" style="opacity:.1"/><path d="M307.35 188.55c-4.91-3.91-3.27-13.27 13.93-13.77s29.47 4 28.93 9.52c2.76 2.76 1.36 10.52-12.56 12.94s-33.84 1.21-30.3-8.69" style="fill:#e0e0e0"/><path d="M342.12 184.36a74 74 0 0 0-15.36-.9 59.4 59.4 0 0 0-14.19 1.63 20.5 20.5 0 0 0-3.45 1.29 16 16 0 0 0-1.51.8c-.39.24-.83.45-1 .9a.47.47 0 0 0 .51.55 18.3 18.3 0 0 0 3-1.49 23.5 23.5 0 0 1 3-1.08 37 37 0 0 1 6-1.18 105 105 0 0 1 14.52-.8c2.82 0 5.64.25 8.45.48.08 0 .11-.19.03-.2" style="fill:#e0e0e0"/><path d="M342.12 184.36a74 74 0 0 0-15.36-.9 59.4 59.4 0 0 0-14.19 1.63 20.5 20.5 0 0 0-3.45 1.29 16 16 0 0 0-1.51.8c-.39.24-.83.45-1 .9a.47.47 0 0 0 .51.55 18.3 18.3 0 0 0 3-1.49 23.5 23.5 0 0 1 3-1.08 37 37 0 0 1 6-1.18 105 105 0 0 1 14.52-.8c2.82 0 5.64.25 8.45.48.08 0 .11-.19.03-.2" style="opacity:.1"/></g></g><g id="freepik--Furniture--inject-3"><g id="freepik--Drawer--inject-3"><path d="m75.21 334.07-4 19.86-3.89 2.25-3.86-2.23-4.04-19.88 7.9-4.56z" style="fill:#e0e0e0"/><path d="m75.21 334.07-4 19.86-3.89 2.25-3.86-2.23-4.04-19.88 7.9-4.56z" style="opacity:.05"/><path d="M67.32 356.18v-17.55l7.89-4.56-4 19.86z" style="fill:#ebebeb"/><path d="m75.21 334.07-2.58 12.83-5.31 3.06-5.29-3.05-2.61-12.84 7.9-4.56z" style="opacity:.05"/><path d="m40.5 314.03-4.01 19.86-3.89 2.25-3.86-2.23-4.03-19.88 7.89-4.56z" style="fill:#e0e0e0"/><path d="m40.5 314.03-4.01 19.86-3.89 2.25-3.86-2.23-4.03-19.88 7.89-4.56z" style="opacity:.05"/><path d="M32.6 336.14v-17.55l7.9-4.56-4.01 19.86z" style="fill:#ebebeb"/><path d="m40.5 314.03-2.59 12.83-5.31 3.06-5.29-3.05-2.6-12.84 7.89-4.56zm137.4-39.25-4 19.86-3.89 2.25-3.86-2.23-4.04-19.88 7.9-4.56z" style="opacity:.05"/><path d="M170.01 296.89v-17.55l7.89-4.56-4 19.86z" style="fill:#ebebeb"/><path d="m177.9 274.78-2.58 12.83-5.31 3.06-5.29-3.05-2.61-12.84 7.9-4.56z" style="opacity:.05"/><g id="freepik--Cabinet--inject-3"><g id="freepik--cabinet--inject-3"><path d="m67.32 346.76-43.03-24.84v-93.11l43.02 24.84z" style="fill:#e0e0e0"/><path d="m67.31 253.65 112.83-65.15v93.12L67.32 346.76z" style="fill:#ebebeb"/><path d="M180.14 188.5 67.31 253.65l-43.02-24.84 112.83-65.14z" style="fill:#f5f5f5"/><path d="m73.46 299.77 100.53-58.04v34.17l1.13.66L74.59 334.6l-1.13-.66z" style="fill:#e0e0e0"/><path d="m74.59 300.43 100.53-58.05v34.18L74.59 334.6z" style="fill:#f5f5f5"/><path d="m122.92 279 8.36-4.83c1.09-.63 2-.34 2 .64a3.94 3.94 0 0 1-2 2.91l-8.36 4.83c-1.08.62-2 .34-2-.64a3.93 3.93 0 0 1 2-2.91m-49.46-20.49 100.53-58.04v34.17l1.13.65-100.53 58.04-1.13-.65z" style="fill:#e0e0e0"/><path d="m74.59 259.16 100.53-58.04v34.17L74.59 293.33z" style="fill:#f5f5f5"/><path d="m122.92 237.72 8.36-4.83c1.09-.63 2-.34 2 .64a3.94 3.94 0 0 1-2 2.91l-8.36 4.82c-1.08.63-2 .34-2-.63a3.93 3.93 0 0 1 2-2.91" style="fill:#e0e0e0"/></g></g><g id="freepik--pot--inject-3"><path d="M133.89 191.3c5.22 3 5.22 7.89 0 10.9s-13.67 3-18.89 0-5.21-7.89 0-10.9 13.67-3.01 18.89 0" style="fill:#e0e0e0"/><path d="M116.14 197.42c-4.54-4.63-7.21-16.2-2.78-19.88h22.54c4.43 3.68 1.77 15.24-2.77 19.88a2 2 0 0 0-.13.13l-.15.15c-.13.12-.27.25-.41.36l-.11.09-.35.26a6 6 0 0 1-.58.37 14.94 14.94 0 0 1-13.53 0c-.2-.11-.4-.24-.59-.37s-.22-.16-.32-.24l-.14-.11c-.14-.12-.27-.23-.39-.35l-.18-.18a.6.6 0 0 1-.11-.11" style="fill:#ebebeb"/><path d="M133.94 176.06c5.15 3 5.15 7.78 0 10.75s-13.48 3-18.62 0-5.14-7.78 0-10.75 13.48-2.97 18.62 0" style="fill:#fafafa"/><path d="M130.3 178.17c3.13 1.8 3.13 4.73 0 6.54a12.5 12.5 0 0 1-11.33 0c-3.13-1.81-3.13-4.74 0-6.54a12.5 12.5 0 0 1 11.33 0" style="fill:#f5f5f5"/><path d="M119 181.27a12.56 12.56 0 0 1 11.33 0 5.1 5.1 0 0 1 1.87 1.72 5.1 5.1 0 0 1-1.87 1.72 12.5 12.5 0 0 1-11.33 0 5.2 5.2 0 0 1-1.88-1.72 5.2 5.2 0 0 1 1.88-1.72" style="fill:#ebebeb"/><path d="M129.61 183a26 26 0 0 0 4.1-5.45c1.89-3.34 2.24-7.83 1.26-8.38s-5 3.92-5 3.92a24.7 24.7 0 0 0 .42-5.72c-.17-3-.9-5.68-1.75-6.23s-2.76 3.21-3.58 5.94-1.31 5-1.31 5a42 42 0 0 0-1.47-6.27c-1-2.83-1.89-3.47-2.59-3.19s-1.16 1.6-1.37 5.37a38 38 0 0 0 .17 5.39s-1.4-1.54-3-3-2.45-1.87-2.94-1.56-.62 2.88 2 7.67a26.8 26.8 0 0 0 5 6.59s3.79 2.28 10.06-.08" style="fill:#e0e0e0"/></g><g id="freepik--picture--inject-3"><g id="freepik--frame--inject-3"><path d="m64.25 234.83 1.68.8 31.03-17.91-1.68-.81z" style="fill:#fafafa"/><path d="m95.28 216.91-29.51 17.04-4.3-44.15 29.52-17.03z" style="fill:#fff"/><path d="m95.05 167.12-36.73 21.21 5.06 52.07 36.74-21.21Zm1.95 50.6-31 17.91-4.53-45.83 31-17.91Z" style="fill:#f0f0f0"/><path d="m96.96 217.72-1.68-.81-4.29-44.14 1.51-.88z" style="fill:#e0e0e0"/><path d="m95.05 167.12-1.7-.78-36.73 21.2 1.7.79z" style="fill:#fafafa"/><path d="m56.62 187.54 1.7.79 5.06 52.07-1.7-.78z" style="fill:#e0e0e0"/></g><path id="freepik--land--inject-3" d="m93.98 216.07-27.21 15.71-.72-7.43 5.06-21.85 4.83 7.45-1 6.28 8.04-23.18 10.28 15.59zM70.69 193.3a3.84 3.84 0 0 0-1.8 3.36c.12 1.22 1.12 1.68 2.23 1a3.83 3.83 0 0 0 1.8-3.36c-.12-1.18-1.12-1.64-2.23-1" style="fill:#f0f0f0"/></g></g></g><g id="freepik--Rack--inject-3"><g id="freepik--rack--inject-3"><path d="m469.11 325.32-53.95 31.14-89.92-51.91 53.95-31.15z" style="fill:#f5f5f5"/><path d="M415.16 356.46v4.16l-89.92-51.92v-4.15z" style="fill:#ebebeb"/><path d="m469.11 325.32-53.95 31.14v4.16l53.95-31.15z" style="fill:#e0e0e0"/><path d="m410.68 308.04 4.48 2.58v50l-4.48-2.59z" style="fill:#ebebeb"/><path d="m419.63 308.04-4.47 2.58v50l4.47-2.59z" style="fill:#e0e0e0"/><path d="m374.75 226.02 4.48 2.58v50l-4.48-2.58z" style="fill:#f0f0f0"/><path d="m383.7 226.02-4.47 2.58v50l4.47-2.58zm85.41 53.46-4.48 2.59v49.99l4.48-2.58z" style="fill:#e0e0e0"/><path d="m460.16 284.64 4.47-2.57v45.83l-4.47-2.58z" style="fill:#f0f0f0"/><path d="m325.25 258.71 4.47 2.59v50l-4.47-2.59z" style="fill:#ebebeb"/><path d="m334.2 263.87-4.48-2.57v45.83l4.48-2.58z" style="fill:#e0e0e0"/><path d="m469.11 275.33-53.95 31.14-89.92-51.91 53.95-31.15z" style="fill:#f5f5f5"/><path d="M415.16 306.47v4.16l-89.92-51.92v-4.15z" style="fill:#ebebeb"/><path d="m469.11 275.33-53.95 31.14v4.16l53.95-31.15z" style="fill:#e0e0e0"/><path d="m469.11 234-53.95 31.14-89.91-51.91 53.94-31.15z" style="fill:#fafafa"/><path d="M379.2 183.36 466.91 234l-51.75 29.87-87.71-50.64zm0-1.28-53.95 31.15 89.91 51.91L469.11 234z" style="fill:#e0e0e0"/><path d="M415.16 265.14v4.16l-89.91-51.92v-4.15z" style="fill:#ebebeb"/><path d="m469.11 234-53.95 31.14v4.16l53.95-31.15z" style="fill:#e0e0e0"/><path d="m410.68 266.7 4.48 2.59v41.34l-4.48-2.59z" style="fill:#ebebeb"/><path d="m419.63 266.7-4.47 2.59v41.34l4.47-2.59zm49.48-28.55-4.48 2.59v41.33l4.48-2.58z" style="fill:#e0e0e0"/><path d="m460.16 243.31 4.47-2.57v37.17l-4.47-2.58z" style="fill:#f0f0f0"/><path d="m325.25 217.38 4.47 2.59v41.34l-4.47-2.59z" style="fill:#ebebeb"/><path d="m334.2 222.54-4.48-2.57v37.17l4.48-2.58z" style="fill:#e0e0e0"/><path d="m410.68 358.03 4.48 2.58V378l-4.48-2.58z" style="fill:#ebebeb"/><path d="m419.63 358.03-4.47 2.58V378l4.47-2.58zm49.48-28.55-4.48 2.58v17.39l4.48-2.58z" style="fill:#e0e0e0"/><path d="m460.16 334.63 4.47-2.57v17.39l-4.47-2.58z" style="fill:#f0f0f0"/><path d="m325.25 308.71 4.47 2.58v17.4l-4.47-2.58z" style="fill:#ebebeb"/><path d="m334.2 313.87-4.48-2.58v17.4l4.48-2.59z" style="fill:#e0e0e0"/></g></g><g id="freepik--Folders--inject-3"><g id="freepik--Files--inject-3"><path d="m451.78 230.63-43.33 24.75a.84.84 0 0 1-.49.13 1 1 0 0 1-.51-.11l-53.76-31a.33.33 0 0 1 0-.61L397 199Z" style="fill:#e0e0e0"/><path d="M356.89 223.67a1 1 0 0 0 .49.75l50.19 29a1 1 0 0 0 .9 0L447.64 231l-.05-1-51.1-29.5-39.19 22.41a1 1 0 0 0-.41.76" style="fill:#455a64"/><path d="m447.59 230-39.17 22.37a.75.75 0 0 1-.44.12.87.87 0 0 1-.46-.1l-50.19-29a.3.3 0 0 1 0-.55l39.19-22.37Z" style="fill:#37474f"/><path d="m447.59 230 .05 1-39.17 22.37a.9.9 0 0 1-.44.12v-.95a.75.75 0 0 0 .44-.12Z" style="fill:#263238"/><path d="m447 230.43-51.12-29.49-.64-12.51 51.12 29.64z" style="fill:#455a64"/><path d="M357.1 216.93a1.31 1.31 0 0 0-.5 1l.13 2.53a1.37 1.37 0 0 0 .61 1l50 28.83a1.17 1.17 0 0 0 1.12 0l33.14-20.23-.2-3.91-51.1-29.5Z" style="fill:#ebebeb"/><path d="m390.26 196.69-33.16 20.24a.38.38 0 0 0 0 .69l50 28.83a1.2 1.2 0 0 0 1.12 0l33.14-20.24Z" style="fill:#fafafa"/><path d="M437 226.59a1.2 1.2 0 0 0 .38.13 1.14 1.14 0 0 0 .61 0 .5.5 0 0 0 .18-.08c.3-.18.25-.51-.12-.72a1.35 1.35 0 0 0-.54-.15 1.05 1.05 0 0 0-.63.12.1.1 0 0 0-.06 0c-.2.23-.14.5.18.7" style="fill:#263238"/><path d="m407.67 246.57.2 3.91a1.2 1.2 0 0 1-.57-.13l-50-28.82a1.43 1.43 0 0 1-.6-1l-.1-2.53a1.3 1.3 0 0 1 .4-1c-.16.19-.11.42.16.58l50 28.82a1 1 0 0 0 .51.17" style="fill:#e6e6e6"/><path d="M442.73 221.07a2.12 2.12 0 0 0-2.31.18 8.17 8.17 0 0 0-2.91 5l.77.11a7.4 7.4 0 0 1 2.56-4.45 1.9 1.9 0 0 1 .94-.33 1.13 1.13 0 0 1 .6.16 3.25 3.25 0 0 1 1.05 2.75c.06 2.59-1.19 5.55-2.78 6.59a1.7 1.7 0 0 1-1.14.32l-.8.52h.05a1.8 1.8 0 0 0 1 .27 2.5 2.5 0 0 0 1.32-.45c1.82-1.19 3.2-4.38 3.13-7.27-.06-1.61-.59-2.87-1.48-3.4" style="fill:#263238"/><path d="M356.49 215.73a1 1 0 0 0 .48.74l50.2 29a.94.94 0 0 0 .89 0L447 218.54l-.05-.95-51.1-29.5L356.9 215a1 1 0 0 0-.41.73" style="fill:#37474f"/><path d="m447 217.59-39 26.88a1 1 0 0 1-.45.12.83.83 0 0 1-.45-.1l-50.19-29c-.26-.15-.27-.4 0-.55l39-26.88Z" style="fill:#455a64"/><path d="m447 217.59.05.95-38.93 26.88a.86.86 0 0 1-.45.11l-.05-.94a1 1 0 0 0 .45-.12Z" style="fill:#263238"/><path d="m447.59 230.04-.63-12.43-.6.46.64 12.36z" style="fill:#263238"/><path d="M445.49 217.43a.71.71 0 0 0 .39-.64v-1l-49.39-27.93a2.15 2.15 0 0 0-2.06 0L355.92 213 407 242.49Z" style="fill:#ba68c8"/><path d="M445.49 217.43a.71.71 0 0 0 .39-.64v-1l-49.39-27.93a2.15 2.15 0 0 0-2.06 0L355.92 213 407 242.49Z" style="opacity:.2"/><path d="M445.44 216.48a.68.68 0 0 0-.06-1.26l-49-28.28a2.18 2.18 0 0 0-2.06 0l-38.47 25.07L407 241.55Z" style="fill:#ba68c8"/><path d="M445.44 216.48a.68.68 0 0 0-.06-1.26l-49-28.28a2.18 2.18 0 0 0-2.06 0l-38.47 25.07L407 241.55Z" style="opacity:.5"/><path d="M364.69 205.52 393.17 187a2.18 2.18 0 0 1 2.06 0l45.47 26.26 3.71-2.44.24 4.81-.07.05a.65.65 0 0 1-.31.86l-32.61 21.25-51.12-29.49-.27-5.26Z" style="fill:#ebebeb"/><path d="M444 211.22a.68.68 0 0 0-.06-1.26l-49-28.28a2.18 2.18 0 0 0-2.06 0L360.27 203l51.12 29.5Z" style="fill:#fafafa"/><path d="m411.39 232.47.26 5.25-51.11-29.49-.27-5.26z" style="fill:#e6e6e6"/><path d="M410.74 230.42a1.2 1.2 0 0 0 .39.14 1.1 1.1 0 0 0 .6 0 .5.5 0 0 0 .19-.08c.3-.18.24-.51-.12-.71a1.3 1.3 0 0 0-.55-.16 1 1 0 0 0-.63.13s-.05 0-.06 0c-.23.26-.16.49.18.68" style="fill:#263238"/><path d="M405.76 234.63a3.13 3.13 0 0 0 .61 1.81 1.84 1.84 0 0 0 1.51.71 2.5 2.5 0 0 0 1.4-.48l.25-.16-.6-.35c-1.36.86-2.51.17-2.6-1.54a5.88 5.88 0 0 1 2.31-4.73 1.59 1.59 0 0 1 1.9-.13 1.5 1.5 0 0 1 .57.8 1.1 1.1 0 0 0 .6 0 2.4 2.4 0 0 0-.48-.95 1.86 1.86 0 0 0-1.51-.7 2.6 2.6 0 0 0-1.41.48 6.41 6.41 0 0 0-2.55 5.24" style="fill:#263238"/><path d="m407 229.64 38.48-21.24v.69a1.19 1.19 0 0 1-.46 1l-38 20.54Z" style="fill:#ba68c8"/><path d="m407 229.64 38.48-21.24v.69a1.19 1.19 0 0 1-.46 1l-38 20.54Z" style="opacity:.2"/><path d="M445.06 209a.68.68 0 0 0-.06-1.26l-49-28.24a2.15 2.15 0 0 0-2.06 0l-38.67 21L406.4 230Z" style="fill:#ba68c8"/><path d="M407.04 242.49 355.92 213l-.63-12.51L406.4 230z" style="fill:#ba68c8"/><path d="M407.04 242.49 355.92 213l-.63-12.51L406.4 230z" style="opacity:.1"/><path d="M397.59 234.63a1.73 1.73 0 0 0 1.44-.77 2.9 2.9 0 0 0 .43-1.83 7 7 0 0 0-3.11-5.17 2.74 2.74 0 0 0-1.46-.43c-1.19 0-1.95 1.06-1.87 2.6a6.94 6.94 0 0 0 3.11 5.17 2.77 2.77 0 0 0 1.46.43" style="fill:#455a64"/><path d="M398.87 232.05c.09 1.72-1 2.44-2.47 1.6a6.26 6.26 0 0 1-2.78-4.63c-.09-1.73 1-2.45 2.46-1.61a6.32 6.32 0 0 1 2.79 4.64m-9.56-6.12.05.95c.09 1.89-1.12 2.68-2.71 1.76l-24.34-14a7 7 0 0 1-3.06-5.09v-.95c-.1-1.89 1.11-2.68 2.7-1.76l24.34 14.05a7 7 0 0 1 3.02 5.04" style="fill:#f5f5f5"/><path d="m407.63 242.11-.63-12.43-.6.32.64 12.49z" style="fill:#ba68c8"/><path d="m407.63 242.11-.63-12.43-.6.32.64 12.49z" style="opacity:.2"/></g></g><g id="freepik--Briefcase--inject-3"><g id="freepik--briefcase--inject-3"><path d="M87.07 354.8h3.25v-10a12 12 0 0 0-5.51-9.54l-17.46-10.05a4.38 4.38 0 0 0-7 4.15l.31 10.21 3.25-.07-.3-10.21c0-.8.17-1.41.5-1.6s1-.07 1.64.33l17.44 10.08a8.75 8.75 0 0 1 3.88 6.73Z" style="fill:#37474f"/><path d="m32.36 391.47 3.49-64.32a5.67 5.67 0 0 1 2.54-4.15l2-1.16a1.7 1.7 0 0 1 1.77-.14l67.21 38.81-9.25 71.25L33 393a1.59 1.59 0 0 1-.64-1.53" style="fill:#37474f"/><path d="m111.87 425.74-10.14 5.86c-1.32.76-2.32.15-2.23-1.37l3.5-64.32a5.66 5.66 0 0 1 2.53-4.12l2-1.16a1.54 1.54 0 0 1 2.52 1.37l4.07 59.62a4.91 4.91 0 0 1-2.25 4.12" style="fill:#263238"/><path d="M76.5 412.24a.93.93 0 0 0 .92-.86l1.78-30.14a.92.92 0 0 0-1.84-.11l-1.78 30.14a.92.92 0 0 0 .87 1Zm-25.74-14.79a.93.93 0 0 0 .92-.86l1.77-30.14a.92.92 0 0 0-.86-1 .94.94 0 0 0-1 .87l-1.78 30.13a.92.92 0 0 0 .87 1Z" style="fill:#ba68c8"/><path d="M94.3 395.6a4.88 4.88 0 0 0 7.3-4l1.4-25.7a5.68 5.68 0 0 1 2.55-4.11l2-1.15a1.78 1.78 0 0 1 1.64-.23l-67-38.69a1.65 1.65 0 0 0-1.76.13l-2 1.16a5.7 5.7 0 0 0-2.53 4.13l-1.36 25.41A13.44 13.44 0 0 0 41.19 365Z" style="fill:#455a64"/><path d="m70.78 379.09-9.74-5.61-.41 5.39 9.76 5.63z" style="fill:#ba68c8"/></g></g><g id="freepik--Character--inject-3"><g id="freepik--Chair--inject-3"><path d="m259.58 357.16-13.42-77.41-8.49-.43 17.64 77.83a1.13 1.13 0 0 0 .56.76 3.37 3.37 0 0 0 3 .15 1 1 0 0 0 .66-.9Z" style="fill:#263238"/><path d="M133.34 267h-8.5l-20 80.41a1 1 0 0 0 .62.93 3.31 3.31 0 0 0 3 0 1.12 1.12 0 0 0 .6-.73Zm58.8 127.05-.38-86.7-8.49-.43 4.59 87.08a1.16 1.16 0 0 0 .57.77 3.35 3.35 0 0 0 3 .15 1 1 0 0 0 .67-.9Z" style="fill:#37474f"/><path d="M179.74 240.06h-8.5l-13.61 85.43a1 1 0 0 0 .62.93 3.31 3.31 0 0 0 3 0 1.12 1.12 0 0 0 .6-.73Z" style="fill:#263238"/><g id="freepik--chair--inject-3"><path d="M108.87 173.13a48.1 48.1 0 0 0-3.4 14.93c-1 11.44 2.91 48.49 5.23 65.05 3.37 27.68 7.49 27.73 13.49 32.37 10.32 8 40 23.59 49.79 27.45 17.76 7 32.28-3.79 43.1-9.14a249 249 0 0 0 28.67-17c2.71-2 4.11-4 4.08-6.05v-5.11c0-2.67-2.36-5.54-7.33-8.76-9.17-5.95-42.32-25.29-55.17-32.4a.13.13 0 0 0-.1-.11c-9.89-6-15.84-46.79-22.68-68.49-.15-.46-.29-.91-.44-1.34s-.24-.69-.36-1a35 35 0 0 0-1.35-3.25" style="fill:#ba68c8"/><path d="M249.83 275.64c0-2.67-2.36-5.54-7.33-8.76-9.17-5.95-42.32-25.29-55.17-32.4a.13.13 0 0 0-.1-.11c-9.89-6-15.84-46.79-22.68-68.49-.07-.2-.55-1.87-1.44-4l-.12-.29c-.12-.29-.25-.58-.39-.88-.07-.15-.13-.3-.2-.44a21 21 0 0 0-4.57-6.6 10.4 10.4 0 0 0-2.24-1.57c-1.11-.63-3.45-1.93-4-2.27-6.72-4-15.52.8-26.5 6.81-6.82 3.75-12.65 8.19-16.19 16.48a48.1 48.1 0 0 0-3.4 14.93c-1 11.44 2.91 48.49 5.23 65.05 3.37 27.68 7.49 27.73 13.49 32.37 10.32 8 40 23.59 49.79 27.45 17.76 7 32.28-3.79 43.1-9.14a249 249 0 0 0 28.67-17c2.71-2 4.11-4 4.08-6.05-.05-.81-.03-4.21-.03-5.09" style="fill:#ba68c8"/><path d="M249.83 275.64c0-2.67-2.36-5.54-7.33-8.76-9.17-5.95-42.32-25.29-55.17-32.4a.13.13 0 0 0-.1-.11c-9.89-6-15.84-46.79-22.68-68.49-.07-.2-.55-1.87-1.44-4l-.12-.29c-.12-.29-.25-.58-.39-.88-.07-.15-.13-.3-.2-.44a21 21 0 0 0-4.57-6.6 10.4 10.4 0 0 0-2.24-1.57c-1.11-.63-3.45-1.93-4-2.27-6.72-4-15.52.8-26.5 6.81-6.82 3.75-12.65 8.19-16.19 16.48a48.1 48.1 0 0 0-3.4 14.93c-1 11.44 2.91 48.49 5.23 65.05 3.37 27.68 7.49 27.73 13.49 32.37 10.32 8 40 23.59 49.79 27.45 17.76 7 32.28-3.79 43.1-9.14a249 249 0 0 0 28.67-17c2.71-2 4.11-4 4.08-6.05-.05-.81-.03-4.21-.03-5.09" style="fill:#fff;opacity:.25"/><path d="M217.07 298.64a252 252 0 0 0 28.67-17c6.16-4.47 5.59-9-3.23-14.77-12.26-7.95-62.23-36.3-62.23-36.3s-63.17 37.28-60.45 44.16 41.82 28.18 54.14 33c17.76 7.03 32.28-3.73 43.1-9.09" style="fill:#ba68c8"/><path d="M217.07 298.64a252 252 0 0 0 28.67-17c6.16-4.47 5.59-9-3.23-14.77-12.26-7.95-62.23-36.3-62.23-36.3s-63.17 37.28-60.45 44.16 41.82 28.18 54.14 33c17.76 7.03 32.28-3.73 43.1-9.09" style="fill:#fff;opacity:.6000000000000001"/><path d="M155.59 152.11c-6.65-3.49-15.29 1.25-26 7.11-6.85 3.75-12.68 8.2-16.23 16.52l-4.51-2.61c3.54-8.29 9.37-12.73 16.19-16.48 11-6 19.78-10.83 26.5-6.81.6.34 2.94 1.64 4.05 2.27" style="fill:#ba68c8"/><path d="M155.59 152.11c-6.65-3.49-15.29 1.25-26 7.11-6.85 3.75-12.68 8.2-16.23 16.52l-4.51-2.61c3.54-8.29 9.37-12.73 16.19-16.48 11-6 19.78-10.83 26.5-6.81.6.34 2.94 1.64 4.05 2.27" style="fill:#fff;opacity:.5"/><path d="M164.55 165.88c-.15-.46-2.43-8.42-6.72-12.2a10.84 10.84 0 0 0-7.27-2.77c-5.81 0-12.78 3.84-20.95 8.31-.69.38-1.36.76-2 1.15l-.76.46c-.31.18-.61.37-.91.56s-.44.28-.66.44a38 38 0 0 0-4.11 3.12 8 8 0 0 0-.62.57 28 28 0 0 0-2.34 2.42l-.39.46c-.15.2-.32.39-.46.58s-.3.39-.45.6-.29.39-.44.6a31 31 0 0 0-1.63 2.62c-.07.11-.13.23-.19.34s-.26.49-.39.74l-.53 1.1a47.4 47.4 0 0 0-3.7 15.64c-1.58 18.8 4.86 80.91 11.32 86.27 0 0-1-6.08 12-14.26 8.83-5.56 15-10.23 24.47-14.85 23-11.29 29.42-13.41 29.42-13.41-9.9-6-15.85-46.79-22.69-68.49" style="fill:#ba68c8"/><path d="M164.55 165.88c-.15-.46-2.43-8.42-6.72-12.2a10.84 10.84 0 0 0-7.27-2.77c-5.81 0-12.78 3.84-20.95 8.31-.69.38-1.36.76-2 1.15l-.76.46c-.31.18-.61.37-.91.56s-.44.28-.66.44a38 38 0 0 0-4.11 3.12 8 8 0 0 0-.62.57 28 28 0 0 0-2.34 2.42l-.39.46c-.15.2-.32.39-.46.58s-.3.39-.45.6-.29.39-.44.6a31 31 0 0 0-1.63 2.62c-.07.11-.13.23-.19.34s-.26.49-.39.74l-.53 1.1a47.4 47.4 0 0 0-3.7 15.64c-1.58 18.8 4.86 80.91 11.32 86.27 0 0-1-6.08 12-14.26 8.83-5.56 15-10.23 24.47-14.85 23-11.29 29.42-13.41 29.42-13.41-9.9-6-15.85-46.79-22.69-68.49" style="fill:#fff;opacity:.4"/></g></g><g id="freepik--character--inject-3"><g id="freepik--Bottom--inject-3"><path d="M203.81 331c-2.43 5.56-5.11 11.64-5.11 11.64a6.36 6.36 0 0 0 2.18 5.45l7.5-11Z" style="fill:#263238"/><path d="m200.88 348.05 15.45 4.83 4.71-7.65-12.66-8.19z"/><path d="M213.46 316.81a1.33 1.33 0 0 1 1.92-.72l-.56 1.28a16.43 16.43 0 0 0 6.77 6.89c7.31 4.24 9.58 2.46 10.08 2.05 0 0 .43-.85.67-1.43.74.26 1.2.6.42 2.27-.19.4-1.55 4.69-1.71 5.52a41.8 41.8 0 0 0-2 10.19 45.5 45.5 0 0 0 .58 12.29c2 11.43 3.72 14.22 4.08 17.94.54 5.64-6.49 7-16.69.65-6.73-4.21-12-11.36-12.34-15.63s2.92-12.91 2.48-16.14-3.41-6-3.38-11c3-6.74 5-7.15 7.26-10.08a14.1 14.1 0 0 0 2.42-4.08" style="fill:#37474f"/><path d="m232.34 324.88 5.51-14-19.06-9.79-3.41 15-.56 1.28s-.89 4.73 5.11 8.66 11.14 1.32 11.74.28Z" style="fill:#c8856a"/><path d="M199.84 211.36c5 3.47 10.3 6.6 22.81 14.76 12.23 8 29.65 18.21 34.06 26 4 7 3.22 14-.92 25.73s-21.55 46.76-21.55 46.76c-8.23-3-14.65-7.24-18.48-13.12 0 0 2.84-21.66 5.6-28.89 2.16-5.67 4.32-7.53 4.32-7.53L181.79 260l-10.72-22.83c1.93-12.81 16.46-21.94 28.77-25.81" style="fill:#37474f"/><path d="M234.24 324.64c-8.12-2.91-14.47-7.14-18.48-13.12 0 0 2.84-21.66 5.6-28.89a28 28 0 0 1 2.65-5.4c4 4.39 6.37 6.82 9.38 18.38 1.36 5.23 3.16 13.57 4.71 21.12-3.85 7.94-3.86 7.91-3.86 7.91m-35.64-97c2.7 12-1.06 20.82-1.06 20.82l24.07 25.24-39.82-13.7Zm18.72 7.02c5.56 2.78 18.54 12.35 21.46 14.64a65.4 65.4 0 0 1 8.64 7.7 17 17 0 0 1 2.57 3.56 5.9 5.9 0 0 1 .64 1.89 13 13 0 0 1 0 2.15 47 47 0 0 1-1.71 8.93c-.79 3-1.73 5.91-2.69 8.85q-3 8.81-6.19 17.56a163 163 0 0 0 7.65-17q1.68-4.36 3-8.87a45 45 0 0 0 1.85-9.33 14 14 0 0 0-.07-2.5 7.8 7.8 0 0 0-.85-2.5 17 17 0 0 0-2.93-3.93 64 64 0 0 0-8.88-7.64c-5.13-3.93-16.64-11.39-22.49-13.51" style="fill:#263238"/><path d="M272.7 403.23c-.94-1-8-7.22-9.11-8.42-5.26-5.51-11.75-18.59-14-25.15-1.18-3.44-2.75-9-5.46-18.66s-15-58.23-18.39-66.9-35.53-33.75-35.53-33.75 8.34-12.15 6.83-36.25c-22.17 8.35-43.49 11.88-64.12 10.67a71 71 0 0 0 4.39 31.14c3.92 10.23 15.43 18.19 30.13 25.84 12.17 6.34 28.57 15.14 32 17 3 1.6 4.91 3.67 5.63 10.18.74 6.74 1.1 18 13.8 38.65 4.47 8.17 9.19 21.87 10.75 26.47l.34 2.4a6.57 6.57 0 0 0 1.82 4.12c1.11 1.24 2.28 2.4 3.52 3.54 3.29 3 9.6 9.93 13.94 14.88 6.25 7.13 13.64 8.42 20.31 7.94s3.98-2.83 3.15-3.7" style="fill:#c8856a"/><path d="M230.26 394.18c1.8 6.23 3.76 13.08 3.76 13.08a6.81 6.81 0 0 0 5.52 3l-1.36-14.2Z" style="fill:#263238"/><path d="m239.54 410.26 16.03-6.59-1.36-9.53-16.03 1.92z"/><path d="M228.53 375.93c-.51-1.38.77-1.77 1.09-1.91l.42 1.44a17.6 17.6 0 0 0 10.28 1c8.91-1.51 9.57-4.53 9.7-5.21 0 0-.23-1-.42-1.63.78-.29 1.39-.33 1.89 1.58.12.45 1.93 4.92 2.37 5.71a44.8 44.8 0 0 0 5.35 9.75 49 49 0 0 0 8.88 9.72c9.46 8.05 12.8 9.16 15.63 12 4.31 4.28-.53 10.23-13.29 12-8.43 1.13-17.64-1.16-20.86-4.43s-6.43-12.63-9-15-6.93-2.64-10.31-6.75c-2.14-7.61-.78-9.3-.92-13.27a14.9 14.9 0 0 0-.81-5M130.9 223.35c-1.33 4.31-3.41 14.33-2.36 22.74s2.13 18 19.56 29.47c14.49 9.53 47.67 29.09 49.39 32.06s5.7 20.82 9.48 27.73c7 12.83 19.64 31.14 19.64 31.14 8.53 1.15 16.13-1 20.6-5.45 0 0-8.45-32.62-11.88-46.41-5.88-23.59-7.08-31-12.3-36.51s-7-7.21-7-7.21l-23.86-21.73s4.08-6.75 6-18.19a60.7 60.7 0 0 0 .12-17.79s-41.15 15.15-67.39 10.15" style="fill:#37474f"/><path d="m146.26 251.83-.21-.41c-5.38-6.67-4.77-13.67-4-22.81.14-1.54.27-3.15.38-4.8l1 .08c-.11 1.66-.24 3.26-.38 4.81-.76 8.74-1.33 15.46 3.53 21.78 6.22-4.13 3.75-14.72 2.23-21.15-.25-1.07-.48-2-.64-2.83l1-.18c.16.79.38 1.73.63 2.78 1.57 6.68 4.16 17.66-2.56 22.17a26 26 0 0 0 3 3c5.84 5 20.35 15.39 33.15 24.55 10.11 7.23 18.84 13.47 20.82 15.32 2.49 2.33 4.55 9.92 7.15 19.53 2.13 7.88 4.55 16.81 7.72 24.63a132.5 132.5 0 0 0 16 27.91c-.38 0-.77.05-1.16.06a132.3 132.3 0 0 1-15.76-27.61c-3.2-7.87-5.62-16.83-7.76-24.74-2.46-9.08-4.58-16.93-6.88-19.07-1.93-1.8-10.64-8-20.72-15.24-12.82-9.17-27.34-19.56-33.22-24.6a28 28 0 0 1-3.19-3.21Z" style="fill:#263238"/><path d="M160 228.14a32.5 32.5 0 0 0 1.37 9.27 46.7 46.7 0 0 0 3.51 8.73A50 50 0 0 0 170 254a42 42 0 0 0 6.58 6.66c-1.86-2.51-3.66-5-5.35-7.55s-3.24-5.18-4.64-7.88a81 81 0 0 1-3.8-8.31 78 78 0 0 1-2.79-8.78m-2.12.29a31 31 0 0 0-1.07 7.88 51.5 51.5 0 0 0 .51 7.95A56 56 0 0 0 159 252a31.4 31.4 0 0 0 3.09 7.32c-.63-2.57-1.14-5.12-1.61-7.68s-.92-5.11-1.27-7.68-.68-5.14-.92-7.72-.35-5.15-.41-7.81m43.85 39.36c3.65 3.91 7.44 7.69 11.05 11.57a79 79 0 0 1 5.13 6 26.7 26.7 0 0 1 3.83 6.68c.85 2.45 1.7 5 2.5 7.54l2.48 7.6q2.46 7.62 5.2 15.16-1.57-7.87-3.69-15.61c-1.42-5.16-2.88-10.26-4.69-15.37a26.2 26.2 0 0 0-4.22-7.09 62 62 0 0 0-5.49-6c-3.83-3.67-7.97-7.09-12.1-10.48m44.63 89.97c-2.7 3.5-16.64 7.94-21.91 6.3l3.29 6.25s3.6 1.23 11.74-.63 8.65-5.24 8.65-5.24Z" style="fill:#263238"/></g><g id="freepik--Top--inject-3"><g id="freepik--Arm--inject-3"><path d="M246.35 120.19c1.27-1.66 1.9-3.07 1.52-4.44a15.5 15.5 0 0 1-3-1.74s-.56.12-2.62.37-2.93-.18-3.7-1-.27-1.76 1.1-2.27 4.22-1.67 4.93-1.85 7.44 3.19 8.17 4.22.54 8-1.14 11.25-15.05 11.1-15.05 11.1-4.64 7-3.71 4.65c1.28-3.21-.31-8.5.39-15.29.31-3 1.42-8.6 1.55-10.79.15-2.48.67-2.93 1.89-2.44s2.33 1 2.25 6.31c-.08 4.78 1 4.75 2.05 4.64 1.48-.13 5.37-2.72 5.37-2.72" style="fill:#c8856a"/><path d="M251.66 112.63c-.07 1.34-.61 5.94-1.47 7.88a36.4 36.4 0 0 0 .48-8.47Z" style="fill:#af6152"/><path d="M250 121c.54-1.43 1.34-4 1.35-9.15 0-6.49-.26-8.35.61-11.27 1-3.26 3.3-3.45 3.86-2.6s1.12 8.83 1.12 8.83 1.18 8.16-1 12.06A4.54 4.54 0 0 1 250 121" style="fill:#c8856a"/><path d="M256.9 105.89s-.19-2.37-.35-3.8c-1.49 1.11-2.14 4-2.41 8-.25 3.71 0 8-2.45 12.18 0 0 1 1.18 2.54-4.4 1.2-4.28 1.68-9.29 2.67-11.98" style="fill:#af6152"/><path d="M259.67 110.41a39 39 0 0 1 .8-6.84c.16-1.29-2.27-1.15-4 1.6s-1.79 5.73-2 9a14.23 14.23 0 0 1-5 10.25s4.14 2.07 6.62-1.86a20 20 0 0 0 3.58-12.15" style="fill:#c8856a"/><path d="M259.67 110.51v-.1a14.6 14.6 0 0 1 .1-2.35c-1.84.55-3.07 3.26-3.38 6s-.21 4-.7 5.19-4 5.22-4 5.22a9.7 9.7 0 0 0 3.76-2c1.25-1.3 3.35-9.46 3.35-9.46Z" style="fill:#af6152"/><path d="M220.12 189.51c13 6.94 16.38 2.73 20.66-14.31 3.24-12.85 5.55-29 7-32.88a22.3 22.3 0 0 1 4-7.22c2.19-2.8 5.76-8.24 7.59-10.69a10.5 10.5 0 0 0 2.14-7.13c-.06-1.12.13-7.72-.45-7.77-1.17-.1-2.92-.08-3.84 3.74-.47 1.93-.41 4.81-.9 6.22a17.8 17.8 0 0 1-5.41 5.19c-3.07 2-6.16-1.62-10.29 2.14a18.4 18.4 0 0 0-5.1 7.17c-1.45 4.38-13.26 28.52-13.26 28.52s-1.34-1.47-11.86-11.69c-7.95-7.73-10.77-10.63-16-14.63s-13.4-3.92-13.4-3.92l.83 31.51s6.25 4.33 13.53 9.17c10.42 6.88 15.83 11.81 24.76 16.58" style="fill:#c8856a"/><path d="M222.21 162.49a44.6 44.6 0 0 0-3 18.84s-4-8.84 1-20.93Zm25.87-38.77-1.9.34a19 19 0 0 0-2.34.64 12.5 12.5 0 0 0-3.47 1.75 7 7 0 0 0-2.26 2.92 15.7 15.7 0 0 0-.75 4.15c0 .06.06.12.09 0a33 33 0 0 1 1.69-3.68 7.4 7.4 0 0 1 2.31-2.87 18 18 0 0 1 3.48-1.78 20.4 20.4 0 0 0 3.37-1.34c.08-.06.18-.16.13-.25Z" style="fill:#af6152"/></g><g id="freepik--Chest--inject-3"><g id="freepik--chest--inject-3"><path d="M129.58 178.1c-2.84-13.87-1.12-29 5.23-39.61 5.75-1.73 13.2-4 13.2-4s12.27-1.88 22.37-2.29l10.66.09c6.31 5.44 20.83 18.62 24.19 28.86a20.26 20.26 0 0 1-8.13 22.66 79 79 0 0 0 .74 15.51s5.51 6.88 6.12 14.36c-2.25 11.5-13 21.79-40.62 23.75-23 1.64-33.7-8.78-33.7-8.78-3.4-4 3.46-19.89 3-28.22a142.6 142.6 0 0 0-3.06-22.33" style="fill:#f0f0f0"/><path d="M174.62 186.89s-6.32 7-18 5c-12.05-2-13.85-12.21-13.85-12.21s-1.25 13.14 13.15 15.57c13.27 2.24 18.7-8.36 18.7-8.36" style="fill:#e0e0e0"/></g></g><g id="freepik--Head--inject-3"><path d="M138.83 77.1a12.3 12.3 0 0 1 6.47-4c2.42-.59 3.91-.55 6.22-1.48s4.09-2.41 6.28-3.33c4.82-2 10.62-.72 14.74 2.48 1.83 1.42 3.53 3.25 5.81 3.6a23 23 0 0 0 3.42 0c3.6 0 6.93 2.36 8.82 5.43a18.55 18.55 0 0 1 2.49 8c.28 2.79-.7 5.39-.54 8.16.12 2 1.38 3.84 2.62 5.38 1.66 2.07 3 3.66 3.84 6.29a12.74 12.74 0 0 1 .59 6.26 6.33 6.33 0 0 1-3.76 4.77c.75-2-.36-4.72-1.61-6.42.46 1.86.73 6.48-4 10.47-3.32 2.8-8.12 3.85-12.52 3.84-4.61 0-9.27-1.6-13.85-.42a38 38 0 0 0-3.7 1.33 33 33 0 0 1-6.5 1.72c-2.12.34-4.28.17-6.38.46a13.8 13.8 0 0 1-9.87-2.37 15.49 15.49 0 0 1-5.92-12.14 7.14 7.14 0 0 0-1.43 3.45 10.08 10.08 0 0 1-2-8.91c.65-2.41 2.2-4.57 2.39-7 .17-2.15-.71-4.24-.93-6.38a11 11 0 0 1 7.86-11.38 10.16 10.16 0 0 1 1.46-7.81" style="fill:#263238"/><path d="M139.47 103.5c2.94-1.22 5.5-.19 7.18 2.89 1.47 2.68 4.36 1.63 3.54-2.57 6.51-6.57-1.39-10.41 3.95-16.73 3.32-3.94 10.7-3.13 13.71-.81a7.2 7.2 0 0 1 8.23-3.58c3.12 1 5.14 2.78 6.74 7 1.68 4.42.11 5.31 1 8.43.33 1.22 1.62 3.58 1.77 6.69.68 14.75-2.28 18.57-5.46 21.09-2.19 1.73-5 2.7-9.88 2.89l.35 6.91a46.7 46.7 0 0 1 8.67 23.29 143 143 0 0 1-18.14-11.41 69 69 0 0 1-13-12.17l-1-19c-.63 1.7-4 3.65-7.54.93-4.51-3.43-5.32-11.69-.12-13.85" style="fill:#c8856a"/><path d="m181.18 95.94-4.79-1.79a2.44 2.44 0 0 1 3.2-1.55 2.69 2.69 0 0 1 1.59 3.34m-17.35-.74-4.5 2.41a2.45 2.45 0 0 1 .95-3.43 2.68 2.68 0 0 1 3.55 1.02" style="fill:#263238"/><path d="m169.14 98.29 3.37 13.85 7.01-4.09z" style="fill:#af6152"/><path d="M172.26 115.66c-.44-.25-1-.1-1.53-.13a8.4 8.4 0 0 1-1.2-.22 5.8 5.8 0 0 1-2-1 .61.61 0 0 0-.67-.09.37.37 0 0 0-.18.21v.11a.3.3 0 0 0 0 .1v.09a.46.46 0 0 0 .11.22 2 2 0 0 0 .32.31 4.3 4.3 0 0 0 .58.36 7.4 7.4 0 0 0 1.34.54 5.6 5.6 0 0 0 3.22 0 .3.3 0 0 0 .16-.22v.06a.32.32 0 0 0-.15-.34" style="fill:#874c4c"/><path d="M169.31 117.62h-.59a2 2 0 0 1-.43-.11c-.14 0-.27-.12-.4-.18a.9.9 0 0 0-.26-.12c-.2 0-.2.2-.13.33a1 1 0 0 0 .31.27l.2.12a4 4 0 0 0 .45.18 3 3 0 0 0 .42.1.9.9 0 0 0 .28 0 .5.5 0 0 0 .27 0c.17-.21.02-.54-.12-.59" style="fill:#af6152"/><path d="M165.34 102.34c.07 1.17-1.07-.25-2.41-.17s-2.37 1.64-2.44.46a2.45 2.45 0 0 1 4.85-.29M181 100.9c.07 1.18-1.07-.25-2.41-.16s-2.37 1.64-2.44.46a2.45 2.45 0 0 1 4.85-.3" style="fill:#263238"/><path d="M170.2 128.81c-4.74-.15-15.1-1.89-19.15-7.09 0 0 .53 3.84 7.81 7.18 4.81 2.21 11.47 2.44 11.47 2.44Z" style="fill:#af6152"/></g><g id="freepik--arm--inject-3"><path d="M85.87 144.47c-1.25-1.68-1.86-3.09-1.45-4.46a15.4 15.4 0 0 0 3-1.68s.56.13 2.62.42 2.93-.14 3.72-.92.3-1.76-1.06-2.3-4.19-1.73-4.9-1.92-7.5 3.06-8.25 4.07-.67 8 1 11.27 14.85 11.36 14.85 11.36 4.52 7.06 3.6 4.69c-1.22-3.23.46-8.49-.12-15.3-.26-3-1.27-8.62-1.37-10.81-.11-2.49-.62-2.95-1.85-2.47s-2.35 1-2.35 6.27c0 4.78-1 4.73-2.14 4.6-1.46-.15-5.3-2.82-5.3-2.82" style="fill:#c8856a"/><path d="M80.68 136.83c0 1.34.51 5.95 1.33 7.91a36.5 36.5 0 0 1-.33-8.48Z" style="fill:#af6152"/><path d="M82.17 145.19c-.52-1.43-1.27-4-1.19-9.16.09-6.49.4-8.35-.43-11.29-.91-3.27-3.24-3.5-3.81-2.66s-1.26 8.81-1.26 8.81-1.33 8.11.78 12.11a4.53 4.53 0 0 0 5.91 2.19" style="fill:#c8856a"/><path d="M75.56 130s.23-2.36.41-3.8c1.48 1.15 2.07 4 2.27 8.1.19 3.72-.17 8 2.25 12.22 0 0-1 1.16-2.47-4.45-1.12-4.35-1.52-9.36-2.46-12.07" style="fill:#af6152"/><path d="M72.71 134.47a39 39 0 0 0-.68-6.85c-.14-1.3 2.29-1.11 3.92 1.66s1.69 5.77 1.84 9a14.24 14.24 0 0 0 4.78 10.34s-4.18 2-6.59-2a20 20 0 0 1-3.27-12.15" style="fill:#c8856a"/><path d="M72.71 134.57v-.1a15.6 15.6 0 0 0-.06-2.35c1.83.58 3 3.31 3.28 6.06s.14 3.95.61 5.2 3.87 5.28 3.87 5.28a9.7 9.7 0 0 1-3.72-2c-1.23-1.32-3.19-9.51-3.19-9.51Z" style="fill:#af6152"/><path d="M139.19 160.51c0-13.39-4.38-22-4.38-22-7.39 2.56-11.77 3.41-15.48 12.42-2.5 6.06-12.58 27.22-13.4 29.6-3.33-7.17-8.41-18.82-9.43-22.06a18.4 18.4 0 0 0-5-7.26c-4.07-3.84-7.22-.26-10.26-2.32a17.9 17.9 0 0 1-5.24-5.3c-.46-1.42-.35-4.3-.78-6.24-.86-3.83-2.61-3.88-3.78-3.8-.58 0-.51 6.64-.59 7.76a10.5 10.5 0 0 0 2 7.17c1.79 2.48 4.56 7.43 6.7 11.11a44 44 0 0 1 3.56 8.07c1.35 3.9 3.21 17.44 6.65 30.23 3.66 13.67 7.85 18.26 11 19.78 6.43 3.16 13.15-3.56 17.16-9.6 5.35-8.06 9.64-14.24 14.44-22.29a52.16 52.16 0 0 0 6.83-25.27" style="fill:#c8856a"/><path d="M105.93 180.51c3.95 8.21 6 14.4 5.24 22.54 3.51-7.71-.29-19.7-4.11-25.17ZM84.07 148l1.89.38a19 19 0 0 1 2.34.68 12.3 12.3 0 0 1 3.43 1.81 7.14 7.14 0 0 1 2.22 3 15.8 15.8 0 0 1 .68 4.16c0 .06-.06.12-.09 0a37 37 0 0 0-1.63-3.71 7.34 7.34 0 0 0-2.27-2.9 17.4 17.4 0 0 0-3.45-1.85 20.3 20.3 0 0 1-3.34-1.4c-.08-.05-.18-.16-.12-.24Z" style="fill:#af6152"/></g></g></g></g><g id="freepik--thought-bubble--inject-3"><g id="freepik--thought-bubble--inject-3"><path d="M200.88 96.84a2.1 2.1 0 0 1-.93-.22 2.08 2.08 0 0 1-.92-2.8 2.08 2.08 0 0 1 2.8-.92 2.17 2.17 0 0 1 1 1.21 2.09 2.09 0 0 1-2 2.73Zm0-3.48a1.3 1.3 0 0 0-.44.07 1.35 1.35 0 0 0-.82.7 1.37 1.37 0 0 0-.08 1.07 1.4 1.4 0 0 0 2.59.2 1.4 1.4 0 0 0 .08-1.08 1.36 1.36 0 0 0-.7-.81 1.4 1.4 0 0 0-.62-.15Zm9.56 4.64a4 4 0 0 1-4-3.48 3.93 3.93 0 0 1 .78-3 4 4 0 0 1 5.62-.76 4 4 0 0 1-2.43 7.2Zm0-7.35a3 3 0 0 0-.45 0 3.34 3.34 0 0 0-2.86 3.75 3.26 3.26 0 0 0 1.28 2.21 3.33 3.33 0 0 0 4-5.3 3.28 3.28 0 0 0-1.96-.63ZM221.73 93a5.52 5.52 0 1 1 5.47-6.25 5.51 5.51 0 0 1-5.47 6.25m0-10.36a4.85 4.85 0 1 0 3.85 7.78 4.84 4.84 0 0 0-3.85-7.78m30 6.78A32.4 32.4 0 1 1 284.13 57a32.43 32.43 0 0 1-32.4 32.42m0-64.11A31.72 31.72 0 1 0 283.45 57a31.76 31.76 0 0 0-31.72-31.69" style="fill:#455a64"/><path d="m251.73 65.68-.25-.15c-.29-.17-7.21-4.25-7.82-12.31-.47-6.25 2.3-11.84 7.78-15.73l.29-.21.29.21c5.49 3.89 8.25 9.48 7.78 15.73-.6 8.06-7.52 12.14-7.82 12.31Zm0-27.17c-5 3.68-7.5 8.86-7.07 14.63.5 6.71 5.84 10.57 7.07 11.37 1.23-.8 6.58-4.67 7.08-11.37.43-5.77-2.08-10.95-7.08-14.63" style="fill:#ba68c8"/><path d="M246.67 66.39a14.43 14.43 0 0 1-8.53-2.65c-4.84-3.48-7.22-8.91-6.7-15.29v-.35l.34-.09C238 46.39 243.76 47.79 248 52c5.51 5.38 4.25 12.92 4.19 13.24l-.05.28-.27.1a16.5 16.5 0 0 1-5.2.77m-14.26-17.5c-.37 5.86 1.86 10.83 6.32 14 5.14 3.7 11.19 2.2 12.55 1.79.16-1.41.59-7.62-3.95-12-3.93-3.84-9.21-5.18-14.92-3.79" style="fill:#ba68c8"/><path d="M239.33 74.15a15.14 15.14 0 0 1-10.72-4.68l-.25-.25.15-.32c2.46-5.19 6.75-8.34 12.08-8.88 6.88-.69 11.34 4.54 11.52 4.76l.19.22-.1.27c-.1.27-2.5 6.71-9.2 8.41a14.6 14.6 0 0 1-3.67.47M229.57 69a13.72 13.72 0 0 0 13.18 3.7c5.42-1.38 7.87-6.29 8.4-7.51-.92-1-4.88-4.75-10.46-4.18A13.74 13.74 0 0 0 229.57 69" style="fill:#ba68c8"/><path d="M264.13 74.15a14.5 14.5 0 0 1-3.66-.47c-6.7-1.7-9.11-8.14-9.21-8.41l-.1-.27.19-.22c.19-.22 4.66-5.44 11.53-4.76 5.32.54 9.61 3.69 12.08 8.88l.15.32-.26.25a15.12 15.12 0 0 1-10.72 4.68m-11.82-9c.53 1.22 3 6.13 8.4 7.51A13.73 13.73 0 0 0 273.9 69a13.75 13.75 0 0 0-11.12-8c-5.59-.55-9.55 3.24-10.47 4.2Z" style="fill:#ba68c8"/><path d="M256.79 66.39a16.5 16.5 0 0 1-5.23-.82l-.27-.1v-.28c-.06-.32-1.32-7.86 4.19-13.24 4.27-4.16 10-5.56 16.22-3.94l.35.09v.35c.51 6.38-1.87 11.81-6.71 15.29a14.43 14.43 0 0 1-8.55 2.65m-4.61-1.67c1.37.41 7.41 1.91 12.56-1.79a15.43 15.43 0 0 0 6.32-14c-5.71-1.39-11 0-14.93 3.78-4.54 4.39-4.13 10.6-3.95 12.01" style="fill:#ba68c8"/></g></g><g id="freepik--Desk--inject-3"><g id="freepik--desk--inject-3"><path d="m240.65 361.65-4.53-2.61-7.5 119.54 4.53 2.61z" style="fill:#455a64"/><path d="m240.65 361.65 6.77-3.91-9.75 120.84-4.52 2.61z" style="fill:#37474f"/><path d="m369.61 287.23-4.53-2.61 9.75 109.58 4.53 2.61z" style="fill:#455a64"/><path d="m369.61 287.23 6.77-3.91 7.5 110.88-4.53 2.61z" style="fill:#37474f"/><path d="m140.96 304.09-4.52-2.61-7.5 119.54 4.52 2.61z" style="fill:#455a64"/><path d="m140.96 304.09 6.77-3.91-9.75 120.84-4.52 2.61z" style="fill:#37474f"/><path d="m269.92 229.67-4.53-2.61 9.75 109.58 4.53 2.61z" style="fill:#455a64"/><path d="m269.92 229.67 6.77-3.91 7.5 110.88-4.52 2.61z" style="fill:#37474f"/><g id="freepik--desk--inject-3"><path d="M114.27 315.43v-6.19a2.45 2.45 0 0 1 1.11-1.92l169-97.62a2.46 2.46 0 0 1 2.21 0L394 271.84a2.45 2.45 0 0 1 1.11 1.92v6.18a2.45 2.45 0 0 1-1.11 1.92l-169 97.62a2.46 2.46 0 0 1-2.21 0l-107.41-62.14a2.44 2.44 0 0 1-1.11-1.91" style="fill:#ba68c8"/><path d="M114.27 315.43v-6.19a2.45 2.45 0 0 1 1.11-1.92l169-97.62a2.46 2.46 0 0 1 2.21 0L394 271.84a2.45 2.45 0 0 1 1.11 1.92v6.18a2.45 2.45 0 0 1-1.11 1.92l-169 97.62a2.46 2.46 0 0 1-2.21 0l-107.41-62.14a2.44 2.44 0 0 1-1.11-1.91" style="opacity:.2"/><path d="M223.88 371v8.74a2.36 2.36 0 0 1-1.11-.26l-107.39-62.14a2.44 2.44 0 0 1-1.11-1.91v-6.19a2.44 2.44 0 0 1 .9-1.77c-.4.34-.33.81.21 1.13l107.39 62.14a2.36 2.36 0 0 0 1.11.26" style="fill:#ba68c8"/><path d="M223.88 371v8.74a2.36 2.36 0 0 1-1.11-.26l-107.39-62.14a2.44 2.44 0 0 1-1.11-1.91v-6.19a2.44 2.44 0 0 1 .9-1.77c-.4.34-.33.81.21 1.13l107.39 62.14a2.36 2.36 0 0 0 1.11.26" style="opacity:.4"/><path d="m115.38 308.6 107.39 62.13a2.4 2.4 0 0 0 2.21 0l169-97.61a.68.68 0 0 0 0-1.28L286.62 209.7a2.46 2.46 0 0 0-2.21 0l-169 97.62a.68.68 0 0 0-.03 1.28" style="fill:#ba68c8"/></g></g></g><g id="freepik--Mug--inject-3"><g id="freepik--Coffee--inject-3"><ellipse id="freepik--shadow--inject-3" cx="200.12" cy="318.75" rx="24.1" ry="13.91" style="opacity:.2"/><g id="freepik--mug--inject-3"><g id="freepik--Plate--inject-3"><path d="M216.49 307.05c-9-5.22-23.71-5.22-32.75 0-4.52 2.62-6.78 6-6.78 9.46v1c0 3.42 2.26 6.84 6.78 9.45 9 5.22 23.71 5.22 32.75 0 4.52-2.61 6.78-6 6.78-9.45v-1c.01-3.42-2.27-6.84-6.78-9.46" style="fill:#f0f0f0"/><path d="M192.43 329.12v-25.23a29.3 29.3 0 0 0-8.69 3.16c-4.52 2.62-6.78 6-6.78 9.46v1c0 3.42 2.26 6.84 6.78 9.45a30.2 30.2 0 0 0 10.62 3.5c-1.83-.35-1.93-1.34-1.93-1.34" style="opacity:.1"/><path d="M216.49 307.05c-9-5.22-23.71-5.22-32.75 0s-9 13.69 0 18.91 23.71 5.22 32.75 0 9.05-13.68 0-18.91" style="fill:#fff"/><path d="M212.11 310.07c-6.62-3.83-17.36-3.83-24 0s-6.62 10 0 13.85 17.37 3.82 24 0 6.62-10.03 0-13.85" style="fill:#f0f0f0"/><path d="M210.62 311.59c-5.8-3.36-15.21-3.36-21 0s-5.81 8.78 0 12.13 15.21 3.35 21 0 5.81-8.78 0-12.13" style="fill:#fff"/><path d="M183.6 325.19a26.8 26.8 0 0 0 6.08 2.3 37.6 37.6 0 0 0 6.41 1 44 44 0 0 0 6.48 0 39 39 0 0 0 6.39-1 28.2 28.2 0 0 0 6-2.24 16.3 16.3 0 0 0 5.08-3.86 9.8 9.8 0 0 0 1.63-2.73 7.2 7.2 0 0 0 .47-3.13 8 8 0 0 0-.86-3.08 9.3 9.3 0 0 0-.86-1.37 10.4 10.4 0 0 0-1-1.26 11.5 11.5 0 0 1 1.12 1.2 10 10 0 0 1 .92 1.36 8 8 0 0 1 1 3.13 7.7 7.7 0 0 1-.39 3.29 10 10 0 0 1-1.64 2.89 13.7 13.7 0 0 1-2.39 2.3 20 20 0 0 1-2.79 1.78 28.5 28.5 0 0 1-6.17 2.3 39.1 39.1 0 0 1-13.06.94 34.4 34.4 0 0 1-6.44-1.22 28 28 0 0 1-3.09-1.1 23 23 0 0 1-2.89-1.5" style="fill:#fff"/><path d="M208.45 311.85c-4.6-2.66-12.07-2.66-16.67 0s-4.61 7 0 9.63 12.07 2.66 16.68 0 4.6-6.97-.01-9.63" style="fill:#f0f0f0"/><path d="m208.43 319.82-15.18-8.41-16.25 5.13c0 3.41 2.27 6.82 6.78 9.42a28.7 28.7 0 0 0 8.69 3.16Z" style="opacity:.1"/></g><g id="freepik--coffee--inject-3"><path d="M214.45 315.35a8.2 8.2 0 0 0 3.23-.45c1.43-.53 2.68-2.07 3.81-4.71 1-2.23 2.49-7.12 1.41-9.64-1.37-3.2-5.25-3.31-7.82-3.39h-.89l-.14 3.06c.31 0 .79.11 1.12.12 1.45 0 4.64.54 5 1.36 1.2 2-1.86 9.61-3.2 10.43a11.7 11.7 0 0 1-5 0l-1 2.56a11.7 11.7 0 0 0 3.48.66" style="fill:#e0e0e0"/><path d="M187.44 293.47c.29-1.31 1.57-2.59 3.86-3.61 5.28-2.36 13.87-2.45 19.2-.2 2.3 1 3.62 2.22 3.94 3.52h.07c1 8.56-.43 18.52-3.42 24.05l-.06.11a.4.4 0 0 0 0 .09 6.65 6.65 0 0 1-2.48 2.39 16.1 16.1 0 0 1-14.56.15 6.44 6.44 0 0 1-2.53-2.34.3.3 0 0 0 0-.07l-.07-.13c-3.11-5.46-4.74-15.38-3.93-24Z" style="fill:#ebebeb"/><path d="M194.36 318.3c-3.76-3.08-4.13-13.32-4-19.36l1.63-9.35-.67.27c-2.29 1-3.57 2.3-3.86 3.61h-.08c-.81 8.58.82 18.5 3.93 24l.07.13a.3.3 0 0 1 0 .07 6.44 6.44 0 0 0 2.53 2.34c3.78 2.13 9.71 2.21 13.74.28a14 14 0 0 1-13.29-1.99" style="fill:#e0e0e0"/><path d="M191.28 288.44c-5.27 3.15-5.21 8.15.12 11.18s13.93 2.94 19.2-.2 5.22-8.15-.12-11.18-13.93-2.94-19.2.2" style="fill:#fafafa"/><path d="M192.44 289.63c-4.64 2.48-4.6 6.4.1 8.78s12.26 2.29 16.9-.18 4.61-6.4-.09-8.78-12.26-2.29-16.91.18" style="fill:#e0e0e0"/><path d="M192.5 294.93a8.2 8.2 0 0 0-2.33 1.77 8.5 8.5 0 0 0 2.36 1.71c4.7 2.37 12.27 2.29 16.91-.18a8.4 8.4 0 0 0 2.33-1.76 8.3 8.3 0 0 0-2.36-1.71c-4.7-2.38-12.27-2.3-16.91.17" style="fill:#ba68c8"/><path d="M192.5 294.93a8.2 8.2 0 0 0-2.33 1.77 8.5 8.5 0 0 0 2.36 1.71c4.7 2.37 12.27 2.29 16.91-.18a8.4 8.4 0 0 0 2.33-1.76 8.3 8.3 0 0 0-2.36-1.71c-4.7-2.38-12.27-2.3-16.91.17" style="opacity:.5"/></g></g><g id="freepik--tea-spoon--inject-3"><path id="freepik--shadow--inject-3" d="M202.43 331.25h-.06L181 319.26a3.06 3.06 0 0 0 .55-1.54s0-.09 0-.13c0-.69-.53-1.44-1.65-2.21-2.34-1.61-7.72-3-10-1.7a1.62 1.62 0 0 0-.85 1.89 6.3 6.3 0 0 0 1.77 3l.22.22.27.26a8.5 8.5 0 0 0 2.05 1.44 7 7 0 0 0 .68.28 7.5 7.5 0 0 0 1.11.3 9.4 9.4 0 0 0 1.74.15 5.3 5.3 0 0 0 2.79-.78L200 332.69c.64.37 2.45-.57 2.45-1.11v-.32Z" style="opacity:.1"/><g id="freepik--tea-spoon--inject-3"><path d="M176.9 320.44c2.54 0 4.63-1.76 4.63-3.66l-12.51-2a7 7 0 0 0 2.3 3.51 7.56 7.56 0 0 0 5.58 2.15" style="fill:#ebebeb"/><path d="M176.9 320.44c2.54 0 4.63-1.76 4.63-3.66l-12.51-2a7 7 0 0 0 2.3 3.51 7.56 7.56 0 0 0 5.58 2.15" style="opacity:.15"/><path d="M180.89 317.06c0 1.37-1.6 3.06-4.14 3.05a8.92 8.92 0 0 1-6.39-2.85 11 11 0 0 0 1 1 7.56 7.56 0 0 0 5.58 2.17c2.54 0 4.63-1.76 4.63-3.66l-.65-.11c-.03.15-.03.34-.03.4" style="opacity:.15"/><path d="M179.88 314.57c-2.34-1.61-7.72-3-10-1.7s.16 4.43 2.95 5.78a7.62 7.62 0 0 0 7.21.09c1.87-1.09 2.15-2.58-.16-4.17" style="fill:#e6e6e6"/><path d="M172.36 312.48a15.1 15.1 0 0 1 7.44 2.2q1.63 1.13 1.59 2.19c0 .62-.52 1.23-1.43 1.75a6.4 6.4 0 0 1-3.26.85 8.85 8.85 0 0 1-3.83-.94c-2.06-1-3.72-2.83-3.77-4.16a1.47 1.47 0 0 1 .84-1.38 4.8 4.8 0 0 1 2.42-.51m0-.13a5.16 5.16 0 0 0-2.49.52c-2.29 1.32.16 4.43 2.95 5.78a8.84 8.84 0 0 0 3.88 1 6.6 6.6 0 0 0 3.33-.86c1.88-1.09 2.16-2.58-.15-4.17a15.33 15.33 0 0 0-7.52-2.22Z" style="fill:#e0e0e0"/><path d="M178.56 314.91c-2.28-1.52-7.05-3-8.68-1.84s1 4 3.64 5.28 4.68 1.22 6 .3 1.29-2.24-.96-3.74" style="fill:#f0f0f0"/><path d="M176 314.35c-1.61-1.07-5-2.09-6.16-1.3s.75 2.83 2.59 3.75 3.32.86 4.27.21.9-1.59-.7-2.66" style="fill:#fafafa"/><path d="m202.29 330.25-21.62-11.95a6.3 6.3 0 0 1-1.38.8v.32L200 331.9c.64.37 2.45-.57 2.45-1.11v-.32a.24.24 0 0 0-.16-.22" style="fill:#e0e0e0"/><path d="m202.29 330.25-21.62-11.95a6 6 0 0 1-1.38.8v.32L200 331.9c.64.37 2.45-.57 2.45-1.11v-.32a.24.24 0 0 0-.16-.22" style="opacity:.25"/><path d="M200 331.58c.74.43 3.05-.9 2.31-1.33l-21.64-11.95a6.7 6.7 0 0 1-1.38.8Z" style="fill:#f0f0f0"/><path d="m180.8 318.64 19.39 10.66c1.48.81 2.37 1.18 1.44 1.72-1.1.63-1.37.35-1.37.35a2.4 2.4 0 0 0 1-.35c.55-.35.07-.83-1-1.35s-19.46-11.03-19.46-11.03" style="fill:#fafafa"/></g></g><path d="M205.84 272.65c-1.53-5-7.26-8.26-7.26-8.26s3.52 4.56 3.37 8.5-3.3 6.71-4.53 10.77a12.05 12.05 0 0 0 3.58 12.92s-2.39-6.24.21-10.88c1.5-2.7 6.15-7.99 4.63-13.05m2.34 1.37a9.43 9.43 0 0 1-.84 5.88 36.2 36.2 0 0 1-4.5 6.67c-2 2.58-1.73 7.26.24 10a16.13 16.13 0 0 1 2.52-7.91c1.16-1.75 4.45-4.91 5-8.44a6.06 6.06 0 0 0-2.42-6.22Zm-8.94 2.8a14.54 14.54 0 0 0-4.94 4.09c-1.81 2.6-1.06 5.62 1.22 8.89-1.2-4.89.74-9.29 3.72-12.98" style="fill:#fff;opacity:.5"/></g></g><g id="freepik--Device--inject-3"><g id="freepik--Laptop--inject-3"><g id="freepik--laptop--inject-3"><g id="freepik--laptop--inject-3"><path d="m336 257-41.85-24.16a2.41 2.41 0 0 0-2.41 0l-72.59 41.92a.54.54 0 0 0 0 .93l42.24 24.39Z" style="opacity:.2"/><path d="M332.89 251.89v.94a3.86 3.86 0 0 1-1.93 3.35l-67.62 39a3.93 3.93 0 0 1-3.87 0L222.61 274a3.88 3.88 0 0 1-1.93-3.35v-1.3a.46.46 0 0 0 .24.42l40.48 23.38Z" style="fill:#37474f"/><path d="m332.9 251.89-40.1-23.15a2.3 2.3 0 0 0-2.3 0l-69.57 40.17a.52.52 0 0 0 0 .89l40.48 23.37Z" style="fill:#455a64"/><path d="m261.04 289.76-21.63-12.47 63.24-36.51 21.74 12.41z" style="fill:#37474f"/><path d="m324.38 253.19-.82.47-20.92-11.93-62.4 36.04-.83-.48 63.23-36.51zm-73.97 1.87.4.23 10.6 6.12 18.85-10.88.39-.22-11-6.35z" style="fill:#263238"/><path d="m250.81 255.29 10.6 6.12 18.85-10.88-10.61-6.12z" style="fill:#37474f"/><path d="M261.41 293.16v2.58a3.83 3.83 0 0 0 1.93-.52l67.62-39a3.87 3.87 0 0 0 1.94-3.35v-.94Z" style="fill:#263238"/></g></g><path d="M262.5 293.73a4.56 4.56 0 0 0 3.94-.3l67.33-38.87a4.6 4.6 0 0 0 2.23-3.2l7.37-44a5 5 0 0 0 .06-.75 4.57 4.57 0 0 0-1.36-3.25l-70 40.4a3.39 3.39 0 0 0-1.65 2.37Z" style="fill:#37474f"/><path d="m261.41 293.17.46.26a3.6 3.6 0 0 0 .63.3l8-47.56a3.39 3.39 0 0 1 1.65-2.37l70-40.4a4.3 4.3 0 0 0-.93-.71L271 243.16a3.4 3.4 0 0 0-1.64 2.37Z" style="fill:#455a64"/><path d="m271.11 244.69-1.08-.62a3.3 3.3 0 0 0-.64 1.46l-8 47.64.46.26a3.6 3.6 0 0 0 .63.3l8-47.56a3.5 3.5 0 0 1 .63-1.48" style="fill:#263238"/><path d="M300.42 253.16c.49-2.94 3.53-6.85 6.78-8.73s5.49-1 5 1.92-3.53 6.86-6.79 8.74-5.49 1.01-4.99-1.93" style="fill:#ba68c8"/></g></g></svg>