<svg xmlns="http://www.w3.org/2000/svg" viewBox="500 369 500 560">
  <path fill="#434345" d="M 766.90625 776.816406 L 753.554688 792.429688 L 739.738281 777.226562 L 591.539062 614.179688 L 564.027344 583.914062 L 710.496094 583.914062 L 715.902344 590.054688 L 759.414062 639.472656 L 959.351562 477.847656 C 920.054688 412.976562 848.753906 369.464844 767.578125 369.46875 C 651.324219 369.472656 555.765625 457.988281 544.679688 571.257812 L 543.59375 611.277344 L 503.695312 682.300781 C 498.910156 695.570312 505.207031 710.277344 518.121094 715.972656 L 540.519531 725.859375 C 548.117188 729.210938 553.015625 736.726562 553.015625 745.027344 L 553.015625 799.242188 C 553.015625 827.335938 576.015625 850.320312 604.125 850.320312 L 653.449219 837.132812 C 664.128906 837.132812 672.789062 845.785156 672.789062 856.460938 L 672.789062 900.828125 C 672.789062 914.261719 687.226562 922.753906 698.976562 916.230469 L 887.238281 826.390625 C 898.265625 820.273438 905.105469 808.65625 905.105469 796.050781 L 905.105469 770.019531 C 957.660156 729.105469 991.496094 665.296875 991.578125 593.578125 C 991.605469 570.105469 987.980469 547.457031 981.253906 526.164062 L 766.90625 776.816406"/>
  <path fill="#4ebd38" d="M 604.941406 602.011719 L 702.308594 602.011719 L 757.296875 664.460938 L 1022.503906 450.070312 L 753.140625 765.058594 L 604.941406 602.011719"/>
</svg>
